<?xml version="1.0" encoding="UTF-8" standalone="no"?>
<!-- Created with Inkscape (http://www.inkscape.org/) -->

<svg
   width="126.21233mm"
   height="34.158833mm"
   viewBox="0 0 126.21233 34.158833"
   version="1.1"
   id="svg5"
   xml:space="preserve"
   inkscape:version="1.2.2 (b0a8486, 2022-12-01)"
   sodipodi:docname="warehouse.svg"
   xmlns:inkscape="http://www.inkscape.org/namespaces/inkscape"
   xmlns:sodipodi="http://sodipodi.sourceforge.net/DTD/sodipodi-0.dtd"
   xmlns="http://www.w3.org/2000/svg"
   xmlns:svg="http://www.w3.org/2000/svg"><sodipodi:namedview
     id="namedview7"
     pagecolor="#505050"
     bordercolor="#eeeeee"
     borderopacity="1"
     inkscape:showpageshadow="0"
     inkscape:pageopacity="0"
     inkscape:pagecheckerboard="0"
     inkscape:deskcolor="#505050"
     inkscape:document-units="mm"
     showgrid="false"
     inkscape:zoom="11.313709"
     inkscape:cx="258.49172"
     inkscape:cy="111.59029"
     inkscape:window-width="1846"
     inkscape:window-height="1136"
     inkscape:window-x="74"
     inkscape:window-y="27"
     inkscape:window-maximized="1"
     inkscape:current-layer="layer1" /><defs
     id="defs2"><rect
       x="278.3267"
       y="85.608489"
       width="232.33557"
       height="43.495762"
       id="rect3263" /><rect
       x="548.62549"
       y="653.59943"
       width="209.99144"
       height="37.477547"
       id="rect841" /><rect
       x="548.62549"
       y="653.59943"
       width="209.99144"
       height="37.477547"
       id="rect841-2" /><rect
       x="548.62549"
       y="653.59943"
       width="209.99144"
       height="37.477547"
       id="rect841-7" /></defs><g
     inkscape:label="Layer 1"
     inkscape:groupmode="layer"
     id="layer1"
     transform="translate(-30.867371,-21.876179)"><g
       id="g2277"
       style="display:inline"><path
         id="path2837"
         style="color:#000000;display:inline;fill:#3d3d3d;fill-opacity:1;stroke-width:0.25;stroke-linecap:round;stroke-linejoin:round;-inkscape-stroke:none"
         d="m 60.207178,34.919316 c -0.06165,0.0053 -0.116272,0.05505 -0.117823,0.121956 5.28e-4,0.0859 9.13e-4,0.110176 5.17e-4,0.206706 v 6.293156 12.468489 c 7e-6,0.06903 0.05603,0.12505 0.125057,0.125057 h 14.511776 c 0.06903,-7e-6 0.12505,-0.05603 0.125057,-0.125057 V 41.541134 c -3.72e-4,-0.04905 -0.02959,-0.09324 -0.07441,-0.113172 L 60.269706,34.929651 c -0.02038,-0.0091 -0.04198,-0.0121 -0.06253,-0.01033 z" /><path
         id="path2898"
         style="color:#000000;display:inline;fill:#2693d7;fill-opacity:1;stroke-width:0.25;stroke-linecap:round;stroke-linejoin:round;-inkscape-stroke:none"
         d="m 55.480334,21.876184 c -0.01731,0 -0.03448,0.0032 -0.05064,0.01034 L 30.980538,32.929773 h 0.01189 c -0.06903,7e-6 -0.12505,0.05603 -0.125057,0.125057 v 21.427633 c 7e-6,0.06903 0.05603,0.12505 0.125057,0.125057 h 23.988199 0.499711 0.500228 c 0.06903,-7e-6 0.12505,-0.05603 0.125057,-0.125057 V 23.39082 l 22.78879,10.388513 v 20.70313 c 7e-6,0.06903 0.05603,0.12505 0.125057,0.125057 h 0.949296 c 0.06903,-7e-6 0.12505,-0.05603 0.125057,-0.125057 V 33.05483 c -7e-6,-0.06903 -0.05603,-0.12505 -0.125057,-0.125057 h 0.01189 L 55.531494,21.886519 c -0.01617,-0.0072 -0.03385,-0.01034 -0.05116,-0.01034 z" /></g><g
       inkscape:groupmode="layer"
       id="layer1-3"
       inkscape:label="flight"
       style="display:inline"
       transform="matrix(0.12756178,0,0,0.12756178,11.865278,-38.646025)"><g
         id="g56"
         transform="matrix(1.3333333,0,0,-1.3333333,562.01058,678.29473)"
         style="fill:#3d3d3d;fill-opacity:1"><path
           d="M 0,0 V -1.509 H -4.126 V -4.916 H 0 v -28.182 h 3.468 v 28.182 h 8.136 v 3.407 H 3.468 v 1.333 c 0,5.6 2.512,8.279 7.484,7.992 l 0.652,-0.041 v 3.223 l -0.559,0.048 C 4.233,11.669 0,7.3 0,0"
           style="fill:#586674;fill-opacity:1;fill-rule:nonzero;stroke:none"
           id="path58" /><path
           d="m 433.575,281.982 h 3.408 v 45.093 h -3.408 z"
           style="fill:#586674;fill-opacity:1;fill-rule:nonzero;stroke:none"
           id="path60"
           transform="translate(-418.4229,-315.08009)" /></g><path
         d="m 442.299,317.477 h 3.411 v 6.646 h -3.411 z"
         style="fill:#2794d8;fill-opacity:1;fill-rule:nonzero;stroke:none"
         id="path62"
         transform="matrix(1.3333333,0,0,-1.3333333,4.1133924,1098.4015)" /><path
         d="m 442.299,281.982 h 3.411 v 31.589 h -3.411 z"
         style="fill:#586674;fill-opacity:1;fill-rule:nonzero;stroke:none"
         id="path64"
         transform="matrix(1.3333333,0,0,-1.3333333,4.1133924,1098.4015)" /><g
         id="g66"
         transform="matrix(1.3333333,0,0,-1.3333333,624.38031,718.82339)"
         style="fill:#586674;fill-opacity:1"><path
           d="m 0,0 c -6.813,0 -12.355,5.832 -12.355,13.007 0,7.265 5.542,13.177 12.355,13.177 7.124,0 12.297,-5.542 12.297,-13.177 C 12.297,5.47 7.124,0 0,0 M 12.297,23.357 C 9.5,27.337 5.048,29.654 0,29.654 c -8.692,0 -15.765,-7.467 -15.765,-16.647 0,-9.087 7.073,-16.476 15.765,-16.476 5.038,0 9.493,2.305 12.297,6.258 v -4.052 c 0,-7.828 -4.78,-12.887 -12.179,-12.887 -5.526,0 -9.636,2.687 -11.269,7.372 l -0.145,0.413 h -3.554 l 0.232,-0.789 c 1.903,-6.514 7.413,-10.406 14.736,-10.406 9.323,0 15.588,6.549 15.588,16.297 v 30.151 h -3.409 z"
           style="fill:#586674;fill-opacity:1;fill-rule:nonzero;stroke:none"
           id="path68" /></g><g
         id="g70"
         transform="matrix(1.3333333,0,0,-1.3333333,670.99751,679.28433)"
         style="fill:#586674;fill-opacity:1"><path
           d="m 0,0 c -4.206,0 -7.883,-1.655 -10.349,-4.599 v 17.336 h -3.411 v -45.092 h 3.411 v 18.952 c 0,5.73 4.426,10.052 10.292,10.052 6.22,0 9.644,-3.57 9.644,-10.052 v -18.952 h 3.411 v 18.952 C 12.998,-5.136 8.017,0 0,0"
           style="fill:#586674;fill-opacity:1;fill-rule:nonzero;stroke:none"
           id="path72" /></g><g
         id="g74"
         transform="matrix(1.3333333,0,0,-1.3333333,711.75524,684.84939)"
         style="fill:#586674;fill-opacity:1"><path
           d="m 0,0 v 3.407 h -8.194 v 6.484 h -3.41 V 3.407 H -15.73 V 0 h 4.126 v -17.074 c 0,-3.31 0.887,-6.097 2.564,-8.06 1.733,-2.028 4.243,-3.103 7.256,-3.103 0.396,0 0.807,0.02 1.224,0.058 L 0,-28.131 v 3.206 l -0.64,-0.026 c -0.172,-0.008 -0.34,-0.012 -0.508,-0.012 -5.824,0 -7.046,4.293 -7.046,7.889 V 0 Z"
           style="fill:#586674;fill-opacity:1;fill-rule:nonzero;stroke:none"
           id="path76" /></g></g><g
       aria-label="Warehouse"
       transform="matrix(0.28397668,0,0,0.29491842,24.121698,18.577198)"
       id="text3261"
       style="font-weight:bold;font-size:34.6667px;font-family:'DejaVu Sans';-inkscape-font-specification:'DejaVu Sans, Bold';white-space:pre;fill:#586674;stroke-width:18.8976;stroke-linecap:round;stroke-linejoin:round"><path
         d="m 303.87553,118.47344 h -4.68001 l -4.22933,-19.72535 -4.12534,19.72535 h -4.68 l -7.14134,-25.272022 h 5.512 l 3.91734,18.928022 3.91733,-18.928022 h 5.13068 l 4.09067,18.962682 3.77867,-18.962682 h 5.512 z"
         style="-inkscape-font-specification:'FreeSans, Semi-Bold'"
         id="path3729" /><path
         d="m 318.64353,118.47341 q -2.56534,0 -4.12534,-1.52534 -1.56,-1.56 -1.56,-4.09067 0,-4.95734 5.512,-5.89334 l 1.94134,-0.34667 q 0.0693,0 0.69333,-0.0693 0.624,-0.104 0.79734,-0.13867 0.17333,-0.0693 0.65867,-0.17333 0.52,-0.104 0.728,-0.24267 0.208,-0.13866 0.48533,-0.34666 0.312,-0.24267 0.416,-0.52 0.104,-0.312 0.104,-0.69334 0,-1.872 -2.808,-1.872 -1.80267,0 -2.53067,0.55467 -0.728,0.55466 -0.90134,2.01067 h -4.68 q 0.45067,-6.482676 8.00801,-6.482676 7.66134,0 7.66134,5.754676 v 10.40001 q 0,1.28266 1.10933,2.288 v 0.58933 h -5.26934 q -0.55466,-0.69333 -0.55466,-1.872 -2.56534,2.66934 -5.68534,2.66934 z m 5.65067,-8.32001 v -1.31734 q -0.65867,0.312 -2.04534,0.58934 l -1.664,0.312 q -1.52533,0.312 -2.14933,0.90133 -0.624,0.58934 -0.624,1.664 0,1.04 0.69333,1.664 0.728,0.58934 1.94134,0.58934 1.83733,0 2.84267,-1.144 1.00533,-1.144 1.00533,-3.25867 z"
         style="-inkscape-font-specification:'FreeSans, Semi-Bold'"
         id="path3731" /><path
         d="m 333.44621,98.956054 h 4.85333 v 3.674666 q 0.76267,-1.90666 2.14934,-2.946665 1.38667,-1.040001 3.05067,-1.040001 0.312,0 0.58933,0.03467 v 4.922666 q -0.86666,-0.13867 -1.52533,-0.13867 -4.26401,0 -4.26401,4.26401 v 9.94934 h -4.85333 z"
         style="-inkscape-font-specification:'FreeSans, Semi-Bold'"
         id="path3733" /><path
         d="m 354.8355,98.644054 q 1.21333,0 2.35734,0.277333 1.144,0.277334 2.32266,1.005334 1.21334,0.727999 2.08001,1.871999 0.90133,1.10934 1.456,2.98134 0.55467,1.83733 0.55467,4.22934 0,0.416 -0.0347,0.832 h -12.54935 q 0.0347,1.07466 0.17334,1.872 0.17333,0.76267 0.55466,1.52533 0.416,0.728 1.17867,1.144 0.79734,0.38134 1.976,0.38134 2.77334,0 3.70934,-2.35734 h 4.784 q -0.79733,2.77334 -3.15466,4.43734 -2.35734,1.62934 -5.51201,1.62934 -3.98667,0 -6.27467,-2.56534 -2.288,-2.6 -2.288,-7.10667 0,-4.71467 2.32266,-7.41868 2.32267,-2.738666 6.34401,-2.738666 z m 3.70934,7.973336 q -0.17334,-2.04533 -1.144,-3.15467 -0.936,-1.10933 -2.63467,-1.10933 -3.18934,0 -3.67467,4.264 z"
         style="-inkscape-font-specification:'FreeSans, Semi-Bold'"
         id="path3735" /><path
         d="m 378.8248,106.23606 q 0,-3.46667 -2.98134,-3.46667 -1.62934,0 -2.704,1.04 -1.04,1.04 -1.04,2.63467 v 11.23201 h -4.85334 V 92.404048 h 4.85334 v 9.256012 q 2.01066,-3.016006 5.47733,-3.016006 1.10934,0 2.08001,0.312 1.00533,0.277333 1.94133,0.970667 0.97067,0.658669 1.52534,2.010669 0.55466,1.352 0.55466,3.18934 v 12.54934 h -4.85333 z"
         style="-inkscape-font-specification:'FreeSans, Semi-Bold'"
         id="path3737" /><path
         d="m 396.53942,98.644054 q 4.40267,0 6.82934,2.669336 2.46134,2.63467 2.46134,7.38401 0,4.50667 -2.49601,7.14134 -2.496,2.63467 -6.76,2.63467 -4.33334,0 -6.79467,-2.63467 -2.46134,-2.66934 -2.46134,-7.28001 0,-4.61067 2.46134,-7.24534 2.46133,-2.669336 6.76,-2.669336 z m 0.0347,3.917336 q -1.976,0 -3.18934,1.664 -1.21333,1.664 -1.21333,4.33334 0,2.66934 1.21333,4.33334 1.21334,1.664 3.18934,1.664 1.94133,0 3.15467,-1.62934 1.248,-1.664 1.248,-4.29867 0,-2.77333 -1.21334,-4.40267 -1.17866,-1.664 -3.18933,-1.664 z"
         style="-inkscape-font-specification:'FreeSans, Semi-Bold'"
         id="path3739" /><path
         d="m 426.21406,117.67607 h -4.85334 v -2.21867 q -2.01067,3.01601 -5.61601,3.01601 -2.98133,0 -4.64533,-1.69867 -1.62934,-1.69867 -1.62934,-4.78401 V 98.956054 h 4.85334 V 110.9854 q 0,3.36267 3.12,3.36267 1.768,0 2.84267,-1.00534 1.07467,-1.00533 1.07467,-2.66933 V 98.956054 h 4.85334 z"
         style="-inkscape-font-specification:'FreeSans, Semi-Bold'"
         id="path3741" /><path
         d="m 434.2567,112.2334 q 0.24267,1.17867 0.97067,1.80267 0.76267,0.624 2.84267,0.624 1.69867,0 2.63467,-0.48534 0.97066,-0.48533 0.97066,-1.352 0,-0.55466 -0.38133,-0.90133 -0.34667,-0.34667 -1.248,-0.624 l -5.78934,-1.80267 q -0.0347,0 -0.416,-0.104 -0.38133,-0.13867 -0.55467,-0.208 -0.13866,-0.0693 -0.55466,-0.208 -0.41601,-0.17333 -0.65867,-0.34667 -0.208,-0.17333 -0.55467,-0.416 -0.34667,-0.27733 -0.55467,-0.58933 -0.17333,-0.312 -0.38133,-0.69334 -0.208,-0.416 -0.312,-0.936 -0.104,-0.52 -0.104,-1.10933 0,-2.87734 2.04533,-4.54134 2.08001,-1.698666 5.65068,-1.698666 3.77867,0 5.928,1.698666 2.14934,1.664 2.21867,4.64534 h -4.68 q -0.0347,-2.53067 -3.50134,-2.53067 -1.28267,0 -2.04534,0.48533 -0.76266,0.45067 -0.76266,1.24801 0,0.55466 0.34666,0.86666 0.34667,0.27734 1.35201,0.58934 l 6.136,1.768 q 3.67467,1.07467 3.67467,4.71467 0,1.07467 -0.38133,2.11467 -0.38134,1.00533 -1.248,2.01067 -0.832,1.00533 -2.53067,1.59466 -1.69867,0.62401 -4.02134,0.62401 -8.63201,0 -8.84001,-6.24001 z"
         style="-inkscape-font-specification:'FreeSans, Semi-Bold'"
         id="path3743" /><path
         d="m 457.79538,98.644054 q 1.21333,0 2.35733,0.277333 1.144,0.277334 2.32267,1.005334 1.21334,0.727999 2.08,1.871999 0.90134,1.10934 1.456,2.98134 0.55467,1.83733 0.55467,4.22934 0,0.416 -0.0347,0.832 H 453.982 q 0.0347,1.07466 0.17333,1.872 0.17334,0.76267 0.55467,1.52533 0.416,0.728 1.17867,1.144 0.79733,0.38134 1.976,0.38134 2.77334,0 3.70934,-2.35734 h 4.784 q -0.79733,2.77334 -3.15467,4.43734 -2.35733,1.62934 -5.512,1.62934 -3.98667,0 -6.27468,-2.56534 -2.288,-2.6 -2.288,-7.10667 0,-4.71467 2.32267,-7.41868 2.32267,-2.738666 6.34401,-2.738666 z m 3.70933,7.973336 q -0.17333,-2.04533 -1.144,-3.15467 -0.936,-1.10933 -2.63467,-1.10933 -3.18933,0 -3.67467,4.264 z"
         style="-inkscape-font-specification:'FreeSans, Semi-Bold'"
         id="path3745" /></g></g></svg>
