<?xml version="1.0" encoding="UTF-8" standalone="no"?>
<!-- Created with Inkscape (http://www.inkscape.org/) -->

<svg
   version="1.1"
   id="svg9319"
   width="511.4375"
   height="511.43799"
   viewBox="0 0 511.4375 511.43798"
   sodipodi:docname="download.svg"
   inkscape:version="1.2.2 (b0a8486, 2022-12-01)"
   xmlns:inkscape="http://www.inkscape.org/namespaces/inkscape"
   xmlns:sodipodi="http://sodipodi.sourceforge.net/DTD/sodipodi-0.dtd"
   xmlns:xlink="http://www.w3.org/1999/xlink"
   xmlns="http://www.w3.org/2000/svg"
   xmlns:svg="http://www.w3.org/2000/svg">
  <defs
     id="defs9323">
    <linearGradient
       inkscape:collect="always"
       id="linearGradient18425">
      <stop
         style="stop-color:#2693d7;stop-opacity:1;"
         offset="0"
         id="stop18421" />
      <stop
         style="stop-color:#2fe094;stop-opacity:1;"
         offset="1"
         id="stop18423" />
    </linearGradient>
    <linearGradient
       inkscape:collect="always"
       xlink:href="#linearGradient18425"
       id="linearGradient10245"
       x1="0.056640625"
       y1="256.57422"
       x2="511.49414"
       y2="256.57422"
       gradientUnits="userSpaceOnUse"
       gradientTransform="matrix(0.72258799,0,0,1.3839145,71.753994,-610.85218)" />
    <clipPath
       clipPathUnits="userSpaceOnUse"
       id="clipPath16233">
      <path
         id="path16235"
         style="display:inline;fill:#355899;stroke-width:32.3662;stroke-linecap:round;stroke-linejoin:round"
         d="m 71.794922,-255.7168 a 150.93967,157.74809 0 0 0 42.257808,108.9375 l -0.81835,-0.36328 c 2.62521,2.73663 5.26313,5.32083 7.90624,7.77149 a 150.93967,157.74809 0 0 0 7.9961,6.97851 c 2.12355,1.74814 4.24453,3.3934 6.36133,4.97656 a 150.93967,157.74809 0 0 0 9.35547,6.5293 c 34.05449,22.029428 65.09151,24.346713 76.77148,24.333986 A 110.23712,112.98711 0 0 0 330.65234,-0.05664062 110.23712,112.98711 0 0 0 440.88867,-113.04492 v -297.41406 a 94.123108,94.517059 0 0 0 0.46485,-6.51954 94.123108,94.517059 0 0 0 -94.12305,-94.51562 94.123108,94.517059 0 0 0 -94.12305,94.51562 94.123108,94.517059 0 0 0 0.19922,2.79102 c -24.03051,-5.19533 -78.95393,-9.43789 -131.12695,40.85547 a 150.93967,157.74809 0 0 0 -13.63477,14.52539 c -0.40416,0.4737 -0.80946,0.93107 -1.21289,1.41211 l 0.0664,-0.0215 A 150.93967,157.74809 0 0 0 71.794922,-255.7168 Z M 169.19531,-256 a 17.007874,17.007874 0 0 1 17.00781,-17.00781 h 128.58204 l -18.22852,-18.47657 a 17.007874,17.007874 0 0 1 0.16016,-24.05078 17.007874,17.007874 0 0 1 24.05273,0.16016 l 46.79492,47.42969 a 17.009574,17.009574 0 0 1 0.45508,0.62304 17.009551,17.009551 0 0 1 1.44531,1.97461 17.009574,17.009574 0 0 1 1.29102,2.13868 17.009551,17.009551 0 0 1 0.81836,2.32812 17.009574,17.009574 0 0 1 0.61133,2.41016 17.009551,17.009551 0 0 1 0.11133,2.4707 17.009574,17.009574 0 0 1 -0.11133,2.4707 17.009551,17.009551 0 0 1 -0.61133,2.41016 17.009574,17.009574 0 0 1 -0.81836,2.32812 17.009551,17.009551 0 0 1 -1.29102,2.13868 17.009574,17.009574 0 0 1 -1.44531,1.97461 17.009551,17.009551 0 0 1 -0.45508,0.62304 l -46.79492,47.42969 a 17.007851,17.007851 0 0 1 -24.05273,0.16016 17.007851,17.007851 0 0 1 -0.16016,-24.05078 l 18.22852,-18.47657 H 186.20312 A 17.007874,17.007874 0 0 1 169.19531,-256 Z" />
    </clipPath>
    <clipPath
       clipPathUnits="userSpaceOnUse"
       id="clipPath18626">
      <path
         id="path18628"
         style="display:inline;fill:#355899;stroke-width:32.3662;stroke-linecap:round;stroke-linejoin:round"
         d="m -75.386634,-93.448401 a 157.74809,150.93967 54.41679 0 0 97.757718,64.005434 l -0.876942,0.180738 c 3.727427,0.698041 7.37646,1.264757 10.952037,1.719804 a 157.74809,150.93967 54.41679 0 0 10.452429,1.018174 c 2.80628,0.192062 5.545423,0.297986 8.245688,0.353991 a 157.74809,150.93967 54.41679 0 0 11.362199,-0.137088 c 40.503035,-1.904523 67.087675,-18.075482 76.577235,-24.880867 a 112.98711,110.23712 54.41679 0 0 144.81726,15.034576 112.98711,110.23712 54.41679 0 0 23.90704,-156.033371 L 134.74734,-434.06533 a 94.517059,94.123108 54.41679 0 0 -3.41557,-5.57263 94.517059,94.123108 54.41679 0 0 -131.54590974,-22.09968 94.517059,94.123108 54.41679 0 0 -21.54923726,131.63719 94.517059,94.123108 54.41679 0 0 1.783337,2.15348 c -22.570927,9.76013 -69.718297,38.27702 -82.87449,109.56277 a 157.74809,150.93967 54.41679 0 0 -2.63774,19.81257 c -0.0499,0.58701 -0.10947,1.16161 -0.15504,1.75359 l 0.0383,-0.0539 a 157.74809,150.93967 54.41679 0 0 30.222366,103.423499 z m 67.6516804,-48.475919 a 17.007874,17.007874 0 0 1 3.93538,-23.72855 L 100.7725,-240.47278 75.196551,-244.89235 a 17.007874,17.007874 0 0 1 -13.864535,-19.653 17.007874,17.007874 0 0 1 19.654593,-13.86567 l 65.655571,11.34396 a 17.009574,17.009574 0 0 1 0.73265,0.2419 17.009551,17.009551 0 0 1 2.32443,0.76489 17.009574,17.009574 0 0 1 2.2944,0.9881 17.009551,17.009551 0 0 1 2.02024,1.4172 17.009574,17.009574 0 0 1 1.89961,1.60439 17.009551,17.009551 0 0 1 1.52821,1.94457 17.009574,17.009574 0 0 1 1.34713,2.07414 17.009551,17.009551 0 0 1 0.90525,2.31583 17.009574,17.009574 0 0 1 0.68915,2.36959 17.009551,17.009551 0 0 1 0.19452,2.49054 17.009574,17.009574 0 0 1 -0.0264,2.4469 17.009551,17.009551 0 0 1 -0.008,0.7715 l -10.45836,65.80246 a 17.007851,17.007851 0 0 1 -19.4682,14.12617 17.007851,17.007851 0 0 1 -14.12503,-19.46662 l 4.07349,-25.63335 -104.572076,74.81991 a 17.007874,17.007874 0 0 1 -23.7285476,-3.93538 z" />
    </clipPath>
  </defs>
  <sodipodi:namedview
     id="namedview9321"
     pagecolor="#505050"
     bordercolor="#eeeeee"
     borderopacity="1"
     inkscape:showpageshadow="0"
     inkscape:pageopacity="0"
     inkscape:pagecheckerboard="0"
     inkscape:deskcolor="#505050"
     showgrid="false"
     inkscape:zoom="1.2305315"
     inkscape:cx="119.8669"
     inkscape:cy="244.20342"
     inkscape:window-width="1846"
     inkscape:window-height="1136"
     inkscape:window-x="74"
     inkscape:window-y="27"
     inkscape:window-maximized="1"
     inkscape:current-layer="g9325" />
  <g
     inkscape:groupmode="layer"
     inkscape:label="Image"
     id="g9325"
     transform="translate(-0.05664062,-0.85522473)">
    <rect
       style="display:inline;fill:url(#linearGradient10245);fill-opacity:1;stroke:none;stroke-width:34.0157;stroke-linecap:round;stroke-linejoin:round;stroke-dasharray:none;stroke-opacity:1"
       id="rect10214"
       width="369.55859"
       height="511.4375"
       x="71.794922"
       y="-511.49414"
       transform="rotate(90)"
       clip-path="url(#clipPath16233)" />
  </g>
</svg>
