<?xml version="1.0" encoding="UTF-8" standalone="no"?>
<!-- Created with Inkscape (http://www.inkscape.org/) -->

<svg
   width="112mm"
   height="112mm"
   viewBox="0 0 112 112"
   version="1.1"
   id="svg7746"
   xml:space="preserve"
   inkscape:version="1.2.2 (b0a8486, 2022-12-01)"
   sodipodi:docname="bioinformatics.svg"
   xmlns:inkscape="http://www.inkscape.org/namespaces/inkscape"
   xmlns:sodipodi="http://sodipodi.sourceforge.net/DTD/sodipodi-0.dtd"
   xmlns:xlink="http://www.w3.org/1999/xlink"
   xmlns="http://www.w3.org/2000/svg"
   xmlns:svg="http://www.w3.org/2000/svg"><sodipodi:namedview
     id="namedview7748"
     pagecolor="#505050"
     bordercolor="#eeeeee"
     borderopacity="1"
     inkscape:showpageshadow="0"
     inkscape:pageopacity="0"
     inkscape:pagecheckerboard="0"
     inkscape:deskcolor="#505050"
     inkscape:document-units="mm"
     showgrid="false"
     inkscape:zoom="1.6819304"
     inkscape:cx="185.20386"
     inkscape:cy="241.09202"
     inkscape:window-width="1850"
     inkscape:window-height="1136"
     inkscape:window-x="70"
     inkscape:window-y="27"
     inkscape:window-maximized="1"
     inkscape:current-layer="layer1" /><defs
     id="defs7743"><linearGradient
       inkscape:collect="always"
       id="linearGradient16817"><stop
         style="stop-color:#50e0cf;stop-opacity:1;"
         offset="0"
         id="stop16813" /><stop
         style="stop-color:#56b5ed;stop-opacity:1;"
         offset="1"
         id="stop16815" /></linearGradient><linearGradient
       inkscape:collect="always"
       xlink:href="#linearGradient16817"
       id="linearGradient16819"
       x1="56.206982"
       y1="3.5649216"
       x2="56.35043"
       y2="110.4137"
       gradientUnits="userSpaceOnUse"
       gradientTransform="matrix(1.1976938,0,0,1,-11.649862,-0.9893124)" /></defs><g
     inkscape:label="Layer 1"
     inkscape:groupmode="layer"
     id="layer1"><path
       id="path7879-3-5-6"
       style="color:#000000;display:inline;fill:url(#linearGradient16819);fill-opacity:1;stroke-width:1.16317;stroke-linecap:square;-inkscape-stroke:none"
       d="M 20.777543 2.5755534 L 20.76204 4.2193807 C 20.76204 4.2193807 20.74116 4.2848068 20.77961 5.4322266 C 20.81933 6.6172118 20.814637 6.5781126 20.956344 7.2998128 C 21.23977 8.7432109 22.074999 10.671629 24.032125 13.030212 C 27.60592 17.337079 34.888619 23.121683 49.792826 30.470492 C 49.786326 30.473692 49.780166 30.476593 49.773706 30.479793 L 55.978495 33.455322 C 55.985795 33.451822 55.992839 33.448527 56.000199 33.444987 C 60.794908 35.728969 64.787928 37.832225 68.134859 39.75778 L 68.121423 39.75778 C 68.931992 40.222231 69.749308 40.697965 70.572437 41.194385 C 74.049313 43.291249 77.535986 45.638552 80.183219 47.985185 C 81.885981 49.494592 83.256216 51.002645 84.026912 52.470699 C 84.39738 53.111837 84.581019 53.603769 84.662016 53.934692 C 84.721196 54.176329 84.727231 54.309303 84.726611 54.394613 C 84.738651 54.506783 84.744635 54.619381 84.745215 54.73206 C 84.744683 54.908453 84.727106 55.084181 84.698706 55.258643 C 84.5624 57.281724 83.184065 59.382726 81.15577 61.459814 C 78.99724 63.670263 76.079119 65.860962 72.980042 67.868209 C 67.052115 71.70768 60.507352 74.861117 57.295728 76.124036 L 63.511886 78.967273 C 69.455277 76.168294 74.182193 73.516623 77.927026 71.051477 C 77.971066 71.022127 78.015058 70.9924 78.058801 70.96311 C 78.352092 70.769176 78.633337 70.577991 78.914563 70.386401 C 82.856078 67.670622 85.572794 65.236718 87.439107 63.129997 C 89.239575 61.097599 90.248072 59.369991 90.800142 58.007829 C 91.268187 56.790153 91.411592 55.758079 91.35308 54.940316 C 91.28048 53.925658 91.207188 52.82186 90.784123 51.544657 C 90.271085 50.409796 89.430981 49.078144 88.078861 47.545935 C 84.418879 43.398477 77.083204 37.770703 62.207056 30.470492 C 62.210156 30.468892 62.213257 30.467441 62.216357 30.465841 C 61.283152 30.015865 60.320598 29.55824 59.326095 29.092798 C 57.978593 28.462145 56.708537 27.850073 55.473617 27.246399 C 50.720159 24.960297 46.758143 22.842297 43.470215 20.9026 L 43.5684 20.9026 C 41.775069 19.84499 40.1834 18.846887 38.773344 17.907951 L 38.704614 17.907951 C 36.541272 16.456798 34.798796 15.134169 33.384009 13.938167 C 33.243203 13.820663 33.115373 13.708662 32.981449 13.594002 C 32.883895 13.509387 32.778925 13.42196 32.684827 13.338721 C 32.319184 13.019503 31.97052 12.707519 31.656466 12.411129 C 29.678331 10.544248 28.683627 9.1281969 28.183809 8.1591919 C 27.933905 7.6746895 27.808749 7.3022699 27.745593 7.0419474 C 27.724166 6.9536136 27.717295 6.8920339 27.707869 6.8259399 C 27.685244 6.7401981 27.663787 6.6559613 27.649475 6.5830607 C 27.581541 6.237107 27.592735 6.0322209 27.601933 5.9505412 L 27.716654 2.6484172 L 20.777543 2.5755534 z M 91.222339 2.5755534 L 84.283228 2.6484172 L 84.397949 5.9505412 C 84.407149 6.0322161 84.418337 6.2371072 84.350407 6.5830607 C 84.287197 6.9049797 84.141297 7.3604072 83.862581 7.9307821 C 83.552583 8.7076027 83.022804 9.6369122 82.136072 10.727511 C 79.294073 14.222907 72.823542 19.361882 58.41969 26.323975 C 58.028326 26.517109 57.630564 26.711221 57.227515 26.906885 C 58.138992 27.34711 59.078892 27.794389 60.050081 28.248922 C 61.221562 28.797193 62.337545 29.331373 63.425586 29.858643 C 77.496609 22.802094 84.494523 17.215892 87.967757 13.030212 C 89.92488 10.671631 90.760112 8.7432102 91.043538 7.2998128 C 91.18525 6.578114 91.180564 6.6172103 91.220272 5.4322266 C 91.258722 4.284808 91.237842 4.2193807 91.237842 4.2193807 L 91.222339 2.5755534 z M 29.641602 8.1509237 C 30.07077 8.8854584 30.805426 9.8854909 32.062642 11.151774 L 80.129993 11.172445 C 80.440663 10.839741 80.730313 10.516576 80.976453 10.213847 C 81.611537 9.4327501 82.036452 8.7569516 82.327791 8.1736613 L 29.641602 8.1509237 z M 71.617334 17.868677 L 40.811462 17.905367 C 42.271178 18.844544 43.916583 19.843886 45.757931 20.900016 L 66.577848 20.875212 C 68.458963 19.81812 70.139572 18.813896 71.617334 17.868677 z M 83.179419 26.00203 C 81.96811 27.566415 82.505343 27.927518 81.809993 28.628743 C 81.095174 29.349589 80.862667 28.744599 79.121269 30.059664 C 80.893427 31.389893 81.036952 30.724527 81.747982 31.429606 C 82.459021 32.134695 81.867083 32.357532 83.178902 34.117814 C 84.461051 32.329383 83.853495 32.192317 84.548844 31.491101 C 85.263664 30.770247 85.578451 31.302084 87.237569 30.060181 C 85.380951 28.680931 85.311559 29.385597 84.610339 28.690238 C 83.88949 27.975429 84.346728 27.55826 83.179419 26.00203 z M 48.557243 31.087508 C 34.521857 38.086377 27.476403 43.51701 23.921021 47.545935 C 21.919593 49.813933 21.022379 51.653411 20.681942 53.044307 C 20.530445 53.663255 20.492896 54.185531 20.509859 54.611654 C 20.492519 55.002311 20.507379 55.630836 20.69176 56.255481 C 20.74597 56.591728 20.827701 56.964566 20.961511 57.368591 C 21.439341 58.811291 22.466705 60.766175 24.560775 63.129997 C 28.221245 67.261989 35.150931 72.650778 48.220312 78.968306 L 48.499365 79.096464 L 55.961442 82.542249 L 55.962476 82.541732 L 55.990898 82.554651 C 55.993998 82.553251 55.997099 82.551917 56.000199 82.550517 C 61.267892 84.928821 65.557102 87.114558 69.076921 89.119108 L 69.020593 89.119108 C 70.870622 90.170599 72.506631 91.168881 73.946908 92.113757 L 73.981014 92.113757 C 74.777713 92.640147 75.503509 93.147386 76.187081 93.642863 C 76.211301 93.660253 76.235348 93.677716 76.259428 93.695056 C 76.503658 93.872686 76.739638 94.048005 76.969979 94.221639 C 79.524488 96.127202 81.251898 97.780472 82.392904 99.178442 C 83.751539 100.84303 84.294384 102.1521 84.47133 103.10792 C 84.854434 104.51294 84.729751 105.67714 84.725061 106.9113 L 84.714726 109.41141 L 91.479687 109.42433 L 91.490023 106.92474 C 91.497223 105.03089 91.788073 100.86234 87.518172 95.909391 C 83.818495 91.617894 76.928487 86.566286 64.045186 80.388892 L 54.698987 76.11215 L 54.269556 75.914746 C 50.910242 74.537272 44.727969 71.510643 39.097872 67.864075 C 35.998797 65.856828 33.077568 63.668196 30.919043 61.457747 C 29.147926 59.644025 27.874019 57.810972 27.488245 56.028105 C 27.369781 55.652007 27.324151 55.451745 27.318746 55.374398 C 27.276586 55.162344 27.255327 54.947429 27.254667 54.73206 C 27.255253 54.619381 27.261291 54.506783 27.273271 54.394613 C 27.272652 54.309303 27.278736 54.176328 27.337866 53.934692 C 27.440101 53.517006 27.694242 52.851938 28.298014 51.940499 L 28.347624 51.940499 C 29.150367 50.63964 30.394381 49.311056 31.894177 47.981567 C 32.704451 47.263301 33.600431 46.545667 34.543628 45.834412 C 35.781155 44.892973 37.212635 43.880437 38.890133 42.79067 L 38.933541 42.79067 C 39.78283 42.244466 40.643966 41.709506 41.50496 41.190251 C 42.311391 40.7039 43.10964 40.23646 43.896029 39.784652 L 43.817997 39.784652 C 46.874887 38.024285 50.481148 36.113516 54.738261 34.053219 L 48.557243 31.087508 z M 89.49893 33.513717 C 88.90265 34.283855 89.166872 34.461452 88.824552 34.806661 C 88.472663 35.16153 88.358398 34.864145 87.501119 35.511528 C 88.373538 36.166403 88.44454 35.8388 88.79458 36.185905 C 89.14462 36.53302 88.85313 36.64276 89.49893 37.509338 C 90.130099 36.628916 89.830988 36.561077 90.173307 36.215877 C 90.525207 35.861001 90.679962 36.12291 91.496741 35.511528 C 90.582742 34.832661 90.549006 35.179466 90.203796 34.83715 C 89.848927 34.485246 90.073579 34.27984 89.49893 33.513717 z M 65.891069 39.760364 L 46.138269 39.782068 C 44.904786 40.471019 43.639835 41.193249 42.358655 41.965914 C 41.91096 42.235914 41.463294 42.510441 41.017651 42.788086 L 70.997734 42.754496 C 70.57176 42.489493 70.143929 42.227515 69.716158 41.969531 C 68.419283 41.187402 67.138637 40.456676 65.891069 39.760364 z M 79.438562 48.900891 L 32.605245 48.924662 C 31.47768 49.955761 30.538128 50.974283 29.872078 51.939982 L 82.179997 51.91311 C 81.50938 50.947824 80.567954 49.930616 79.438562 48.900891 z M 82.289034 58.084827 L 29.804382 58.111698 C 30.360119 59.011205 31.10305 59.937205 32.016134 60.872253 C 32.097934 60.956013 32.188218 61.040067 32.272449 61.123918 L 79.832336 61.097563 C 79.906336 61.023643 79.986565 60.949719 80.058679 60.875871 C 80.982144 59.930191 81.731553 58.993798 82.289034 58.084827 z M 71.851945 67.265662 L 40.28488 67.301318 C 41.942309 68.364445 43.645754 69.366461 45.311963 70.295451 L 66.81401 70.271163 C 68.485452 69.337848 70.192448 68.332293 71.851945 67.265662 z M 24.545789 71.857113 C 23.33918 73.415416 23.87418 73.775507 23.181531 74.474007 C 22.469491 75.192057 22.23777 74.589298 20.503141 75.899243 C 22.26841 77.224329 22.411767 76.561164 23.120036 77.263501 C 23.828315 77.965848 23.238553 78.188445 24.545272 79.94189 C 25.822391 78.160411 25.21689 78.023496 25.90953 77.324996 C 26.621579 76.606946 26.935251 77.13683 28.587919 75.89976 C 26.738521 74.525825 26.669524 75.227637 25.971025 74.534985 C 25.252985 73.822953 25.708557 73.407289 24.545789 71.857113 z M 30.662728 79.608061 C 30.055818 80.391838 30.324844 80.572938 29.976465 80.924259 C 29.618335 81.285412 29.502236 80.982671 28.629777 81.641528 C 29.517646 82.307987 29.589219 81.974538 29.945459 82.327791 C 30.301689 82.681046 30.005489 82.792561 30.662728 83.674479 C 31.305127 82.778458 31.000621 82.7096 31.348991 82.35828 C 31.707121 81.997129 31.86445 82.263734 32.695679 81.641528 C 31.7655 80.95052 31.7308 81.303643 31.37948 80.955265 C 31.01833 80.597141 31.247557 80.387752 30.662728 79.608061 z M 48.342269 80.20389 C 35.209966 86.465402 28.218155 91.575221 24.48171 95.909391 C 20.211806 100.86235 20.502688 105.03089 20.509859 106.92474 L 20.520194 109.42433 L 27.285673 109.41141 L 27.274821 106.9113 C 27.268921 105.34693 27.058626 103.90096 27.952299 101.92504 L 27.960567 101.92504 C 28.273214 101.15759 28.798311 100.24481 29.66744 99.175859 C 30.139076 98.595795 30.723002 97.965994 31.41307 97.294836 C 31.47855 97.230316 31.543335 97.16581 31.61099 97.100533 C 31.713297 97.003003 31.820425 96.903857 31.927767 96.804427 C 33.02175 95.780564 34.384649 94.666697 36.065499 93.462512 C 36.427799 93.202954 36.805631 92.939257 37.198246 92.671346 C 37.379917 92.546469 37.564289 92.420484 37.752734 92.293591 C 37.823084 92.246631 37.886083 92.201792 37.957373 92.154582 L 37.963057 92.154582 C 41.866388 89.545391 47.191749 86.518441 54.491764 83.04196 L 48.342269 80.20389 z M 66.775252 89.121692 L 45.018441 89.146497 C 43.145948 90.203509 41.472653 91.208219 40.004793 92.152515 L 71.886568 92.116341 C 70.390648 91.173199 68.684128 90.172383 66.775252 89.121692 z M 80.522217 98.88492 L 31.505054 98.909725 C 31.259598 99.178747 31.029852 99.440733 30.827576 99.689522 C 30.121856 100.55747 29.666672 101.30045 29.377018 101.92453 L 82.674023 101.89817 C 82.37718 101.27553 81.923726 100.54344 81.232251 99.69624 C 81.021068 99.4375 80.779633 99.164617 80.522217 98.88492 z " /></g></svg>
