<?xml version="1.0" encoding="UTF-8" standalone="no"?>
<!-- Created with Inkscape (http://www.inkscape.org/) -->

<svg
   width="150.9301mm"
   height="232.36966mm"
   viewBox="0 0 150.9301 232.36966"
   version="1.1"
   id="svg16173"
   inkscape:version="1.2.2 (b0a8486, 2022-12-01)"
   sodipodi:docname="green_hpc_2.svg"
   xmlns:inkscape="http://www.inkscape.org/namespaces/inkscape"
   xmlns:sodipodi="http://sodipodi.sourceforge.net/DTD/sodipodi-0.dtd"
   xmlns:xlink="http://www.w3.org/1999/xlink"
   xmlns="http://www.w3.org/2000/svg"
   xmlns:svg="http://www.w3.org/2000/svg">
  <sodipodi:namedview
     id="namedview16175"
     pagecolor="#505050"
     bordercolor="#eeeeee"
     borderopacity="1"
     inkscape:showpageshadow="0"
     inkscape:pageopacity="0"
     inkscape:pagecheckerboard="0"
     inkscape:deskcolor="#505050"
     inkscape:document-units="mm"
     showgrid="false"
     inkscape:zoom="4.7572176"
     inkscape:cx="209.47119"
     inkscape:cy="374.69382"
     inkscape:window-width="1846"
     inkscape:window-height="1136"
     inkscape:window-x="74"
     inkscape:window-y="27"
     inkscape:window-maximized="1"
     inkscape:current-layer="g3959" />
  <defs
     id="defs16170">
    <linearGradient
       inkscape:collect="always"
       id="linearGradient3296">
      <stop
         style="stop-color:#67bde2;stop-opacity:1;"
         offset="0"
         id="stop3292" />
      <stop
         style="stop-color:#67bde2;stop-opacity:0;"
         offset="1"
         id="stop3294" />
    </linearGradient>
    <linearGradient
       inkscape:collect="always"
       id="linearGradient2362">
      <stop
         style="stop-color:#3194d2;stop-opacity:1;"
         offset="0"
         id="stop2358" />
      <stop
         style="stop-color:#3194d2;stop-opacity:0.00003494;"
         offset="1"
         id="stop2360" />
    </linearGradient>
    <linearGradient
       inkscape:collect="always"
       id="linearGradient2140">
      <stop
         style="stop-color:#9cd7f0;stop-opacity:1;"
         offset="0"
         id="stop2136" />
      <stop
         style="stop-color:#9cd7f0;stop-opacity:0;"
         offset="1"
         id="stop2138" />
    </linearGradient>
    <inkscape:path-effect
       effect="skeletal"
       id="path-effect12039"
       is_visible="true"
       lpeversion="1"
       pattern="M 0,4.9921382 C 0,2.2364779 2.2364779,0 4.9921382,0 c 2.7556604,0 4.9921383,2.2364779 4.9921383,4.9921382 0,2.7556604 -2.2364779,4.9921383 -4.9921383,4.9921383 C 2.2364779,9.9842765 0,7.7477986 0,4.9921382 Z"
       copytype="single_stretched"
       prop_scale="0.04501001"
       scale_y_rel="false"
       spacing="0"
       normal_offset="0"
       tang_offset="0"
       prop_units="false"
       vertical_pattern="false"
       hide_knot="false"
       fuse_tolerance="0" />
    <inkscape:path-effect
       effect="skeletal"
       id="path-effect12327"
       is_visible="true"
       lpeversion="1"
       pattern="M 0,4.9921382 C 0,2.2364779 2.2364779,0 4.9921382,0 c 2.7556604,0 4.9921383,2.2364779 4.9921383,4.9921382 0,2.7556604 -2.2364779,4.9921383 -4.9921383,4.9921383 C 2.2364779,9.9842765 0,7.7477986 0,4.9921382 Z"
       copytype="single_stretched"
       prop_scale="0.034079823"
       scale_y_rel="false"
       spacing="0"
       normal_offset="0"
       tang_offset="0"
       prop_units="false"
       vertical_pattern="false"
       hide_knot="false"
       fuse_tolerance="0" />
    <linearGradient
       inkscape:collect="always"
       xlink:href="#linearGradient3296"
       id="linearGradient2133"
       gradientUnits="userSpaceOnUse"
       x1="47.913471"
       y1="13.853189"
       x2="48.219028"
       y2="67.969902"
       gradientTransform="translate(-18.627667)" />
    <linearGradient
       inkscape:collect="always"
       xlink:href="#linearGradient2362"
       id="linearGradient2286"
       gradientUnits="userSpaceOnUse"
       gradientTransform="matrix(0.91613988,0,0,0.74821112,-41.982572,10.477563)"
       x1="47.913471"
       y1="13.853189"
       x2="48.219028"
       y2="67.969902" />
    <linearGradient
       inkscape:collect="always"
       xlink:href="#linearGradient2140"
       id="linearGradient3258"
       gradientUnits="userSpaceOnUse"
       gradientTransform="translate(-6.366272e-6)"
       x1="47.913471"
       y1="13.853189"
       x2="48.219028"
       y2="67.969902" />
    <linearGradient
       inkscape:collect="always"
       xlink:href="#linearGradient2140"
       id="linearGradient3282"
       gradientUnits="userSpaceOnUse"
       gradientTransform="translate(-62.257063,-0.10915754)"
       x1="47.913471"
       y1="13.853189"
       x2="48.219028"
       y2="67.969902" />
  </defs>
  <g
     inkscape:label="Layer 1"
     inkscape:groupmode="layer"
     id="layer1"
     transform="translate(205.08793,72.138221)">
    <g
       inkscape:label="Layer 1"
       inkscape:groupmode="layer"
       id="layer1-9"
       transform="translate(-235.12938,-99.161835)">
      <g
         id="g3959"
         transform="matrix(1.2861644,0,0,-1.2861644,81.379988,128.14829)">
        <rect
           style="display:inline;fill:url(#linearGradient3258);fill-opacity:1;stroke:#000000;stroke-width:0;stroke-dasharray:none;stroke-opacity:1"
           id="rect7716-5-7-3"
           width="4.6761417"
           height="86.296288"
           x="45.825497"
           y="-13.954036"
           transform="scale(1,-1)" />
        <rect
           style="display:inline;fill:url(#linearGradient2133);fill-opacity:1;stroke:#000000;stroke-width:0;stroke-dasharray:none;stroke-opacity:1"
           id="rect7716-5-7"
           width="4.6761417"
           height="86.296288"
           x="27.197838"
           y="-13.954036"
           transform="scale(1,-1)" />
        <rect
           style="display:inline;fill:url(#linearGradient3282);fill-opacity:1;stroke:#000000;stroke-width:0;stroke-dasharray:none;stroke-opacity:1"
           id="rect7716-5-7-6"
           width="4.6761417"
           height="86.296288"
           x="-16.431559"
           y="-14.063196"
           transform="scale(1,-1)" />
        <path
           id="rect7716-5-7-5"
           style="fill:url(#linearGradient2286);fill-opacity:1;stroke:#000000;stroke-width:0;stroke-dasharray:none;stroke-opacity:1"
           d="m 24.517801,-78.625 c -13.822986,0 -25.36188814,9.816853 -28.0318855,22.85084 l -0.3539744,2.317107 -0.7179937,-0.560895 c -3.6499963,-2.580998 -8.1118544,-4.100238 -12.9158494,-4.100238 -12.368988,0 -22.414098,10.04411 -22.414098,22.414098 0,12.370987 10.04511,22.416106 22.414098,22.416106 h 10.5718232 l 0.7280383,0.03415 0.181206,-0.03415 h 6.26868307 v -4.289077 H -6.5648543 l -2.3789817,-0.239064 c -6.205994,-1.272998 -10.879994,-6.767777 -10.879994,-13.34777 0,-0.014 -0.002,-0.02597 -0.002,-0.03897 h -4.286265 v 0.03897 c 0,4.944995 2.007959,9.422726 5.250956,12.662723 l 1.102102,0.912057 -1.597104,-0.08076 c -9.134991,-0.928999 -16.273986,-8.654226 -16.273986,-18.034216 0,-10.00299 8.123244,-18.127029 18.128234,-18.127029 5.181995,0 9.8559608,2.179033 13.1649575,5.672029 l 0.3487512,0.249108 0.041384,0.82286 c 1.4419985,14.193986 13.2668633,25.330244 27.7538492,25.684243 v -4.288274 C 10.710053,-26.06815 0.18918765,-36.818143 0.18918765,-50.01213 c 0,-13.426987 10.90162735,-24.325801 24.32861335,-24.325801 11.733988,0 21.543177,8.326053 23.825174,19.389042 l 0.319019,2.215856 c -2.544997,1.118999 -4.794829,2.714992 -6.660827,4.67399 l 3.031886,3.033091 c 0.018,-0.017 0.03303,-0.03522 0.05103,-0.05022 2.965997,-3.136997 7.157118,-5.090643 11.806113,-5.090643 8.971991,0 16.257915,7.285924 16.257915,16.257915 0,8.973991 -7.282924,16.256709 -16.257915,16.256709 h -4.659124 l 1.17804,-0.970717 c 3.218997,-3.221997 5.22193,-7.664961 5.24493,-12.579956 H 54.36697 c -0.046,7.482993 -6.131895,13.542048 -13.643888,13.545048 l -5.633056,0.004 1.174022,-0.96911 c 3.217997,-3.221997 5.218117,-7.664961 5.242117,-12.579956 h -4.284256 c -0.046,7.482993 -6.133949,13.542066 -13.655942,13.549066 l -5.610957,0.0016 -0.0892,0.01929 -1.787953,0.09201 C 7.1388693,-16.633899 0.13894577,-9.1091036 -5.4095356e-5,0.03688731 H 4.2838004 C 4.4118003,-7.3721053 10.467187,-13.350893 17.948179,-13.357893 l 38.942014,-0.0092 c 11.342989,0 20.542975,-9.198781 20.542975,-20.541769 0,-11.340989 -9.199986,-20.542975 -20.542975,-20.542975 -0.734999,0 -1.459062,0.04091 -2.172061,0.114911 l -1.898043,0.300938 -0.281251,-1.781122 C 49.854841,-68.828138 38.325787,-78.625 24.517801,-78.625 Z M 4.2838004,0.03688731 H -5.4095356e-5 V 64.604885 H 4.2838004 Z"
           transform="scale(1,-1)"
           sodipodi:nodetypes="scccssscccccccsccscccsscccccsscccccssscccccccccccccccccsscccsccccc" />
      </g>
      <g
         id="g10303"
         transform="translate(0.03049764,-0.08293088)">
        <path
           style="fill:#66a71c;fill-opacity:1;stroke:#66a71c;stroke-width:0.5;stroke-dasharray:none;stroke-opacity:1"
           d="m 96.105624,212.56907 2.486295,2.14175"
           id="path14482"
           sodipodi:nodetypes="cc" />
        <path
           id="path4578-6"
           style="fill:#96d72c;fill-opacity:1;stroke:none;stroke-width:0.280664;stroke-opacity:1"
           d="m 60.774286,186.19385 c 6.585063,9.08382 7.492546,20.1586 17.326074,24.67498 7.179306,3.22041 12.267621,3.1817 19.304249,2.92902 -0.490945,-0.46495 -0.990533,-0.93811 -1.358574,-1.28726 -0.515042,-0.4886 -0.934535,-0.88645 -1.328084,-1.25574 -0.393549,-0.36929 -0.760928,-0.71039 -1.172022,-1.08572 -0.411093,-0.37533 -0.865829,-0.78466 -1.433504,-1.29139 -0.325072,-0.29018 -0.657966,-0.58546 -0.997872,-0.8847 -0.339906,-0.29925 -0.68696,-0.60284 -1.03973,-0.90951 -0.352769,-0.30667 -0.711206,-0.61671 -1.074869,-0.92914 -0.363664,-0.31244 -0.732256,-0.62707 -1.104843,-0.94361 -0.372586,-0.31655 -0.74959,-0.63494 -1.12913,-0.95395 -0.379539,-0.31901 -0.76166,-0.63878 -1.146183,-0.9586 -0.384523,-0.31982 -0.77105,-0.63962 -1.158585,-0.9586 -0.387536,-0.31898 -0.77621,-0.63694 -1.164787,-0.95343 -0.388578,-0.31648 -0.777138,-0.63127 -1.164787,-0.94361 -0.387649,-0.31234 -0.774352,-0.6226 -1.159102,-0.92914 -0.384751,-0.30655 -0.767852,-0.60938 -1.147734,-0.90847 -0.379882,-0.2991 -0.756604,-0.59419 -1.129647,-0.88419 -0.373043,-0.28999 -0.742158,-0.57497 -1.106392,-0.85421 -0.364234,-0.27924 -0.723483,-0.55275 -1.076937,-0.81959 -0.353454,-0.26683 -0.701093,-0.52702 -1.041797,-0.77979 -0.340704,-0.25278 -0.674471,-0.49829 -1.000456,-0.73536 -0.219108,-0.15934 -0.438933,-0.31736 -0.658874,-0.47387 -0.219941,-0.15651 -0.440146,-0.31155 -0.660425,-0.46509 -0.220279,-0.15354 -0.44082,-0.30535 -0.660942,-0.45579 -0.220121,-0.15043 -0.439923,-0.2993 -0.659391,-0.44648 -0.219468,-0.14718 -0.438488,-0.29287 -0.656807,-0.43667 -0.21832,-0.14379 -0.435998,-0.28554 -0.652674,-0.42581 -0.43335,-0.28055 -0.862942,-0.55397 -1.286743,-0.81959 -0.4238,-0.26561 -0.841833,-0.5235 -1.25212,-0.77308 -0.410286,-0.24957 -0.812803,-0.49104 -1.205611,-0.72347 -0.392808,-0.23243 -0.775851,-0.45607 -1.147217,-0.67024 -0.371366,-0.21417 -0.730977,-0.41859 -1.076937,-0.6134 -0.345959,-0.19481 -0.678182,-0.38015 -0.994771,-0.55449 -0.316589,-0.17434 -0.617466,-0.33817 -0.90072,-0.49092 -0.283254,-0.15276 -0.548828,-0.2942 -0.794784,-0.42427 -0.245955,-0.13007 -0.472268,-0.24874 -0.676961,-0.35501 -0.17631,-0.0915 -0.267351,-0.13669 -0.410311,-0.20981 z" />
        <path
           id="path5896"
           style="fill:#72be20;fill-opacity:1;stroke:none;stroke-width:0.280664;stroke-opacity:1"
           d="m 60.768865,186.19613 c 0.14296,0.0731 0.234001,0.11827 0.410311,0.20981 0.204693,0.10627 0.431006,0.22494 0.676961,0.35501 0.245956,0.13007 0.51153,0.27151 0.794784,0.42427 0.283254,0.15275 0.584131,0.31658 0.90072,0.49092 0.316589,0.17434 0.648812,0.35968 0.994771,0.55449 0.34596,0.19481 0.705571,0.39923 1.076937,0.6134 0.371366,0.21417 0.754409,0.43781 1.147217,0.67024 0.392808,0.23243 0.795325,0.4739 1.205611,0.72347 0.410287,0.24958 0.82832,0.50747 1.25212,0.77308 0.423801,0.26562 0.853393,0.53904 1.286743,0.81959 0.216676,0.14027 0.434354,0.28202 0.652674,0.42581 0.218319,0.1438 0.437339,0.28949 0.656807,0.43667 0.219468,0.14718 0.43927,0.29605 0.659391,0.44648 0.220122,0.15044 0.440663,0.30225 0.660942,0.45579 0.220279,0.15354 0.440484,0.30858 0.660425,0.46509 0.219941,0.15651 0.439766,0.31453 0.658874,0.47387 0.325985,0.23707 0.659752,0.48258 1.000456,0.73536 0.340704,0.25277 0.688343,0.51296 1.041797,0.77979 0.353454,0.26684 0.712703,0.54035 1.076937,0.81959 0.364234,0.27924 0.733349,0.56422 1.106392,0.85421 0.373043,0.29 0.749765,0.58509 1.129647,0.88419 0.379882,0.29909 0.762983,0.60192 1.147734,0.90847 0.38475,0.30654 0.771453,0.6168 1.159102,0.92914 0.387649,0.31234 0.776209,0.62713 1.164787,0.94361 0.388577,0.31649 0.777251,0.63445 1.164787,0.95343 0.387535,0.31898 0.774062,0.63878 1.158585,0.9586 0.384523,0.31982 0.766644,0.63959 1.146183,0.9586 0.37954,0.31901 0.756544,0.6374 1.12913,0.95395 0.372587,0.31654 0.741179,0.63117 1.104843,0.94361 0.363663,0.31243 0.7221,0.62247 1.074869,0.92914 0.35277,0.30667 0.699824,0.61026 1.03973,0.90951 0.339906,0.29924 0.6728,0.59452 0.997872,0.8847 0.567675,0.50673 1.022411,0.91606 1.433504,1.29139 0.411094,0.37533 0.778473,0.71643 1.172022,1.08572 0.393552,0.36929 0.813042,0.76714 1.328082,1.25574 0.36804,0.34915 0.86763,0.82231 1.35858,1.28726 0.0318,-0.001 0.0622,-0.002 0.094,-0.003 -0.57355,-9.45954 -4.035313,-19.32962 -13.336657,-23.87038 l -0.07441,-0.0279 c -7.012141,-3.40892 -13.919804,-2.62559 -23.343795,-3.745 0.01026,0.0141 0.02026,0.0283 0.03049,0.0424 z" />
        <path
           style="display:none;fill:#66a71c;fill-opacity:1;stroke:none;stroke-width:0.2;stroke-dasharray:none;stroke-opacity:1"
           d="m 60.91868,186.18605 c 0.0018,-0.004 0.01248,-0.002 0.03214,0.003 0.01848,0.005 0.04474,0.0144 0.07866,0.0275 0.06724,0.026 0.163878,0.067 0.289249,0.1232 l 0,0 0,0 c 0.245859,0.11012 0.596664,0.27559 1.047041,0.49653 l 0,0 c 0.842236,0.41318 2.046496,1.02683 3.493619,1.81084 l 0,0 c 2.224488,1.20493 5.667316,3.11676 8.798608,5.42679 1.823458,1.34539 3.764868,2.80772 5.750823,4.35558 10.047816,7.83131 17.25746,15.27915 17.169075,15.36616 -0.08838,0.087 -7.414912,-7.1934 -17.445553,-15.01143 -1.981786,-1.54463 -3.917094,-3.01243 -5.728947,-4.36757 -3.066771,-2.29415 -6.513498,-4.2726 -8.685852,-5.51469 l 0,0 c -1.414675,-0.80874 -2.619243,-1.47261 -3.427626,-1.9203 l 0,0 c -0.434919,-0.24086 -0.780354,-0.43286 -1.010409,-0.56489 l 0,0 -1e-6,0 c -0.11876,-0.0682 -0.209664,-0.12195 -0.270193,-0.16033 -0.03066,-0.0194 -0.05373,-0.0351 -0.06893,-0.0467 -0.01617,-0.0124 -0.02348,-0.0203 -0.02172,-0.0238 z"
           id="path12037"
           inkscape:path-effect="#path-effect12039"
           inkscape:original-d="m 60.918601,186.18601 c 0,0 8.409841,4.19485 13.612102,8.0594 8.032946,5.96735 17.541792,13.9585 23.047195,19.55037"
           class="UnoptimicedTransforms"
           sodipodi:nodetypes="csc"
           transform="translate(-0.03049764,0.08293088)" />
      </g>
      <g
         id="g16022">
        <path
           style="fill:#66a71c;fill-opacity:1;stroke:#66a71c;stroke-width:0.5;stroke-dasharray:none;stroke-opacity:1"
           d="m 101.21175,217.1466 -2.737114,1.81023"
           id="path14482-0"
           sodipodi:nodetypes="cc"
           transform="translate(0.03049764,-0.08293088)" />
        <path
           id="path4578"
           style="display:inline;fill:#72be20;fill-opacity:1;stroke:none;stroke-width:0.217836;stroke-opacity:1"
           d="m 143.64862,199.15934 c -0.16939,0.0322 -0.28021,0.0518 -0.49403,0.0941 -0.23328,0.0461 -0.49236,0.0982 -0.77515,0.15658 -0.28278,0.0583 -0.58952,0.12295 -0.91829,0.19378 -0.32876,0.0708 -0.67988,0.14791 -1.05109,0.23151 -0.37122,0.0836 -0.7624,0.17363 -1.17254,0.27027 -0.41015,0.0966 -0.83913,0.2001 -1.28468,0.31006 -0.44555,0.10996 -0.90802,0.22682 -1.38544,0.35037 -0.47743,0.12354 -0.96959,0.25378 -1.47537,0.39119 -0.50577,0.1374 -1.02485,0.2815 -1.55546,0.43304 -0.5306,0.15155 -1.0728,0.3105 -1.6247,0.47646 -0.27596,0.083 -0.55448,0.16762 -0.83509,0.25425 -0.28062,0.0866 -0.56318,0.17529 -0.84802,0.26562 -0.28483,0.0903 -0.57179,0.18242 -0.86041,0.27646 -0.28862,0.0941 -0.5793,0.19004 -0.87126,0.28784 -0.29197,0.0978 -0.58519,0.19762 -0.88005,0.29921 -0.29487,0.10159 -0.59099,0.20516 -0.88832,0.31057 -0.29899,0.10601 -0.59886,0.21357 -0.89865,0.3235 -0.2998,0.10993 -0.59983,0.2222 -0.90021,0.3359 -0.30037,0.11369 -0.60103,0.22892 -0.90175,0.34623 -0.30072,0.1173 -0.60142,0.23633 -0.90227,0.35708 -0.30085,0.12075 -0.60153,0.24339 -0.90227,0.36742 -0.30074,0.12403 -0.60135,0.24957 -0.90175,0.37672 -0.30041,0.12715 -0.60089,0.25591 -0.90073,0.38603 -0.29983,0.13011 -0.59909,0.26137 -0.89813,0.39429 -0.29905,0.13291 -0.59753,0.26752 -0.89555,0.40307 -0.29803,0.13556 -0.59569,0.27228 -0.89246,0.41031 -0.29677,0.13803 -0.59302,0.2772 -0.88831,0.41755 -0.29529,0.14035 -0.58957,0.28176 -0.88315,0.42426 -0.29359,0.14251 -0.58634,0.28597 -0.87799,0.43047 -0.29164,0.1445 -0.5823,0.29033 -0.87178,0.43666 -0.28947,0.14634 -0.57798,0.29331 -0.86506,0.44132 -0.28708,0.14801 -0.57286,0.29696 -0.85731,0.44648 -0.28446,0.14953 -0.56744,0.29975 -0.84905,0.45062 -0.2816,0.15088 -0.56174,0.30217 -0.84026,0.45424 -0.27852,0.15206 -0.55523,0.30476 -0.83044,0.45785 -0.27521,0.1531 -0.54895,0.30648 -0.82062,0.46044 -0.27167,0.15396 -0.54135,0.30835 -0.80925,0.46302 -0.2679,0.15467 -0.53398,0.30987 -0.79789,0.46509 -0.2639,0.15522 -0.5258,0.31051 -0.78548,0.46612 -0.25967,0.1556 -0.51682,0.31132 -0.77204,0.46715 -0.25523,0.15584 -0.50859,0.31178 -0.75913,0.46768 -0.25054,0.15589 -0.49851,0.31187 -0.74414,0.46767 -0.24563,0.1558 -0.48867,0.31161 -0.72915,0.46715 -0.24049,0.15554 -0.47854,0.311 -0.71366,0.46612 -0.23511,0.15513 -0.46708,0.31003 -0.69659,0.46457 -0.22952,0.15455 -0.45638,0.3087 -0.68007,0.46251 -0.22368,0.1538 -0.44434,0.30701 -0.66197,0.45992 -0.12477,0.0877 -0.24626,0.17468 -0.36897,0.262 0.006,0.0294 0.0109,0.0589 0.017,0.0884 7.73891,8.65795 21.76445,2.23208 27.19782,-3.89434 6.63576,-6.41513 7.88968,-9.75961 15.80111,-14.29474 z" />
        <path
           id="path10999"
           style="display:inline;fill:#96d72c;fill-opacity:1;stroke:none;stroke-width:0.217836;stroke-opacity:1"
           d="m 128.60878,195.35795 c -8.33288,0.0447 -15.68612,2.74445 -19.51931,5.98738 l 0.0692,-0.0434 c -4.59055,3.8966 -9.700472,10.08667 -8.53591,15.98456 0.12271,-0.0873 0.2442,-0.17434 0.36897,-0.262 0.21763,-0.15291 0.43829,-0.30612 0.66197,-0.45992 0.22369,-0.15381 0.45055,-0.30796 0.68007,-0.46251 0.22951,-0.15454 0.46148,-0.30944 0.69659,-0.46457 0.23512,-0.15512 0.47317,-0.31058 0.71366,-0.46612 0.24048,-0.15554 0.48352,-0.31135 0.72915,-0.46715 0.24563,-0.1558 0.4936,-0.31178 0.74414,-0.46767 0.25054,-0.1559 0.5039,-0.31184 0.75913,-0.46768 0.25522,-0.15583 0.51237,-0.31155 0.77204,-0.46715 0.25968,-0.15561 0.52158,-0.3109 0.78548,-0.46612 0.26391,-0.15522 0.52999,-0.31042 0.79789,-0.46509 0.2679,-0.15467 0.53758,-0.30906 0.80925,-0.46302 0.27167,-0.15396 0.54541,-0.30734 0.82062,-0.46044 0.27521,-0.15309 0.55192,-0.30579 0.83044,-0.45785 0.27852,-0.15207 0.55866,-0.30336 0.84026,-0.45424 0.28161,-0.15087 0.56459,-0.30109 0.84905,-0.45062 0.28445,-0.14952 0.57023,-0.29847 0.85731,-0.44648 0.28708,-0.14801 0.57559,-0.29498 0.86506,-0.44132 0.28948,-0.14633 0.58014,-0.29216 0.87178,-0.43666 0.29165,-0.1445 0.5844,-0.28796 0.87799,-0.43047 0.29358,-0.1425 0.58786,-0.28391 0.88315,-0.42426 0.29529,-0.14035 0.59154,-0.27952 0.88831,-0.41755 0.29677,-0.13803 0.59443,-0.27475 0.89246,-0.41031 0.29802,-0.13555 0.5965,-0.27016 0.89555,-0.40307 0.29904,-0.13292 0.5983,-0.26418 0.89813,-0.39429 0.29984,-0.13012 0.60032,-0.25888 0.90073,-0.38603 0.3004,-0.12715 0.60101,-0.25269 0.90175,-0.37672 0.30074,-0.12403 0.60142,-0.24667 0.90227,-0.36742 0.30085,-0.12075 0.60155,-0.23978 0.90227,-0.35708 0.30072,-0.11731 0.60138,-0.23254 0.90175,-0.34623 0.30038,-0.1137 0.60041,-0.22597 0.90021,-0.3359 0.29979,-0.10993 0.59966,-0.21749 0.89865,-0.3235 0.29733,-0.10541 0.59345,-0.20898 0.88832,-0.31057 0.29486,-0.10159 0.58808,-0.20141 0.88005,-0.29921 0.29196,-0.0978 0.58264,-0.19379 0.87126,-0.28784 0.28862,-0.094 0.57558,-0.18614 0.86041,-0.27646 0.28484,-0.0903 0.5674,-0.17899 0.84802,-0.26562 0.28061,-0.0866 0.55913,-0.17127 0.83509,-0.25425 0.5519,-0.16596 1.0941,-0.32491 1.6247,-0.47646 0.53061,-0.15154 1.04969,-0.29564 1.55546,-0.43304 0.50578,-0.13741 0.99794,-0.26765 1.47537,-0.39119 0.47742,-0.12355 0.93989,-0.24041 1.38544,-0.35037 0.44555,-0.10996 0.87453,-0.21342 1.28468,-0.31006 0.41014,-0.0966 0.80132,-0.18667 1.17254,-0.27027 0.37121,-0.0836 0.72233,-0.16067 1.05109,-0.23151 0.32877,-0.0708 0.63551,-0.13544 0.91829,-0.19378 0.28279,-0.0583 0.54187,-0.11046 0.77515,-0.15658 0.21382,-0.0423 0.32464,-0.0618 0.49403,-0.0941 0.0931,-0.0533 -0.0309,0.0209 0.0641,-0.0328 l -0.036,0.0202 c -4.98068,-3.21564 -10.05833,-3.842 -15.05806,-3.81521 z"
           sodipodi:nodetypes="scccssssssssssssssssssssssssssssssssssssssssssssssscccss" />
        <path
           style="display:none;fill:#66a71c;fill-opacity:1;stroke:none;stroke-width:0.2;stroke-dasharray:none;stroke-opacity:1"
           d="m 143.48667,199.28701 c 0.0228,0.0803 -7.9438,2.41304 -18.44495,5.40749 0,0 0,0 0,0 -1.23989,0.52211 -2.5137,1.06782 -3.80869,1.63586 -3.90191,1.71155 -7.30303,3.3222 -10.40117,4.90033 -6.33253,3.22763 -10.14479,6.14788 -10.18631,6.09982 -0.0415,-0.0481 3.74443,-3.08879 10.05076,-6.36331 3.08595,-1.60327 6.51048,-3.24136 10.41435,-4.9532 1.29869,-0.56947 2.57647,-1.11472 3.82066,-1.63468 0,0 0,0 0,0 10.52489,-2.97222 18.53255,-5.17266 18.55535,-5.09231 z"
           id="path12325"
           inkscape:path-effect="#path-effect12327"
           inkscape:original-d="m 143.48676,199.287 c 0,0 -9.10644,1.30925 -18.50024,5.24991 -9.64611,4.04652 -20.16672,9.1877 -24.34097,12.7936"
           class="UnoptimicedTransforms"
           transform="translate(0.03049764,-0.08293088)"
           sodipodi:nodetypes="csc" />
      </g>
      <path
         id="path12652"
         style="fill:#66a71c;fill-opacity:1;stroke:none;stroke-width:0.207587;stroke-dasharray:none;stroke-opacity:1"
         d="m 98.653405,210.61454 a 2.7685804,25.494611 1.2062087 0 0 -0.868162,18.7691 l 4e-6,0.008 a 2.7685804,25.494611 1.2062087 0 0 1.241265,19.40766 27.08602,2.768891 88.234274 0 0 0.680068,-18.59151 l -2e-6,-0.009 A 27.08602,2.768891 88.234274 0 0 98.653405,210.6141 Z" />
      <path
         style="display:inline;fill:#a5571e;fill-opacity:1;stroke:none;stroke-width:0.499999;stroke-dasharray:none;stroke-opacity:1"
         d="m 32.925338,227.37969 c 1.805157,-3.01783 5.813859,-2.4344 8.967072,-2.71741 2.083688,-0.67648 4.255688,0.0131 4.604798,-2.53324 0.450623,-2.72978 3.249527,-3.70822 5.567658,-4.55398 1.819954,-0.86268 4.386576,-0.54308 5.69446,-1.77875 0.807665,-3.14997 2.116758,-4.18066 4.555956,-6.34492 2.240306,-1.60485 4.374522,-4.49243 6.581714,-4.805 1.111184,1.5792 0.996876,3.64043 2.890344,4.72105 2.48552,1.7649 4.78192,3.89166 7.78668,4.68698 2.334,1.01539 4.48846,-0.42801 6.44028,2.37112 1.19637,1.88926 4.22339,2.86551 6.19802,4.5535 2.65563,1.96404 5.40625,1.5172 8.20426,1.84347 2.01397,0.51856 4.35561,0.2281 6.23143,1.79533 1.87029,0.92006 4.68088,3.68475 3.97364,4.84173 -2.97082,-0.53322 -5.96385,-0.68592 -8.96045,-0.67027 -3.14336,-0.17503 -4.84108,3.15645 -6.80884,3.42924 -2.37278,-0.0361 -4.91778,-0.5368 -6.9004,-1.86768 -1.87632,-1.47397 -4.90368,-0.95171 -7.04259,0.008 -2.77979,0.89086 -6.37496,0.0144 -9.47672,-0.69174 -2.171091,-0.8151 -4.932021,-0.47756 -6.119303,1.85826 -1.91215,2.46711 -4.443468,-1.19946 -6.327654,-1.79 -1.752936,-0.33429 -3.092169,-0.15787 -4.614788,-0.0429 -2.148471,0.0843 -4.3834,-0.67639 -6.451586,0.20752 -1.449172,0.92998 -3.771832,3.71294 -4.211558,0.34567 -0.983052,-3.45747 -4.622807,-1.53998 -6.704954,-0.89733 -1.599926,0.12962 -6.24301,0.51231 -4.089101,-1.99435"
         id="path14740"
         sodipodi:nodetypes="cccccccccccccccccccccccccc"
         transform="translate(30.04145,27.023614)" />
    </g>
  </g>
</svg>
