<?xml version="1.0" encoding="UTF-8" standalone="no"?>
<!-- Created with Inkscape (http://www.inkscape.org/) -->

<svg
   width="207.04991mm"
   height="42.64172mm"
   viewBox="0 0 207.04991 42.64172"
   version="1.1"
   id="svg556"
   inkscape:version="1.2.2 (b0a8486, 2022-12-01)"
   sodipodi:docname="openflighthpc_white.svg"
   inkscape:export-filename="openflighthpc_white.png"
   inkscape:export-xdpi="96"
   inkscape:export-ydpi="96"
   xml:space="preserve"
   xmlns:inkscape="http://www.inkscape.org/namespaces/inkscape"
   xmlns:sodipodi="http://sodipodi.sourceforge.net/DTD/sodipodi-0.dtd"
   xmlns="http://www.w3.org/2000/svg"
   xmlns:svg="http://www.w3.org/2000/svg"><sodipodi:namedview
     id="namedview558"
     pagecolor="#505050"
     bordercolor="#eeeeee"
     borderopacity="1"
     inkscape:showpageshadow="0"
     inkscape:pageopacity="0"
     inkscape:pagecheckerboard="0"
     inkscape:deskcolor="#505050"
     inkscape:document-units="mm"
     showgrid="false"
     inkscape:zoom="1.1893044"
     inkscape:cx="375.42954"
     inkscape:cy="213.14981"
     inkscape:window-width="1846"
     inkscape:window-height="1136"
     inkscape:window-x="74"
     inkscape:window-y="27"
     inkscape:window-maximized="1"
     inkscape:current-layer="layer1"><inkscape:grid
       type="xygrid"
       id="grid4063"
       originx="24.488958"
       originy="-119.87941" /></sodipodi:namedview><defs
     id="defs553" /><g
     inkscape:label="Layer 1"
     inkscape:groupmode="layer"
     id="layer1"
     transform="translate(24.488957,-119.87943)"><g
       id="g4110"
       transform="matrix(0.35277777,0,0,-0.35277777,-50.362273,248.56869)"
       style="fill:#ffffff"><g
         id="g798"
         transform="translate(418.4229,315.0801)"
         style="fill:#ffffff"><path
           d="M 0,0 V -1.509 H -4.126 V -4.916 H 0 v -28.182 h 3.468 v 28.182 h 8.136 v 3.407 H 3.468 v 1.333 c 0,5.6 2.512,8.279 7.484,7.992 l 0.652,-0.041 v 3.223 l -0.559,0.048 C 4.233,11.669 0,7.3 0,0"
           style="fill:#ffffff;fill-opacity:1;fill-rule:nonzero;stroke:none"
           id="path800" /></g><path
         d="m 433.575,281.982 h 3.408 v 45.093 h -3.408 z"
         style="fill:#ffffff;fill-opacity:1;fill-rule:nonzero;stroke:none"
         id="path802" /><path
         d="m 442.299,281.982 h 3.411 v 31.589 h -3.411 z"
         style="fill:#ffffff;fill-opacity:1;fill-rule:nonzero;stroke:none"
         id="path806" /><g
         id="g808"
         transform="translate(465.2002,284.6836)"
         style="fill:#ffffff"><path
           d="m 0,0 c -6.813,0 -12.355,5.832 -12.355,13.007 0,7.265 5.542,13.177 12.355,13.177 7.124,0 12.297,-5.542 12.297,-13.177 C 12.297,5.47 7.124,0 0,0 M 12.297,23.357 C 9.5,27.337 5.048,29.654 0,29.654 c -8.692,0 -15.765,-7.467 -15.765,-16.647 0,-9.087 7.073,-16.476 15.765,-16.476 5.038,0 9.493,2.305 12.297,6.258 v -4.052 c 0,-7.828 -4.78,-12.887 -12.179,-12.887 -5.526,0 -9.636,2.687 -11.269,7.372 l -0.145,0.413 h -3.554 l 0.232,-0.789 c 1.903,-6.514 7.413,-10.406 14.736,-10.406 9.323,0 15.588,6.549 15.588,16.297 v 30.151 h -3.409 z"
           style="fill:#ffffff;fill-opacity:1;fill-rule:nonzero;stroke:none"
           id="path810" /></g><g
         id="g812"
         transform="translate(500.1631,314.3379)"
         style="fill:#ffffff"><path
           d="m 0,0 c -4.206,0 -7.883,-1.655 -10.349,-4.599 v 17.336 h -3.411 v -45.092 h 3.411 v 18.952 c 0,5.73 4.426,10.052 10.292,10.052 6.22,0 9.644,-3.57 9.644,-10.052 v -18.952 h 3.411 v 18.952 C 12.998,-5.136 8.017,0 0,0"
           style="fill:#ffffff;fill-opacity:1;fill-rule:nonzero;stroke:none"
           id="path814" /></g><g
         id="g816"
         transform="translate(530.7314,310.1641)"
         style="fill:#ffffff"><path
           d="m 0,0 v 3.407 h -8.194 v 6.484 h -3.41 V 3.407 H -15.73 V 0 h 4.126 v -17.074 c 0,-3.31 0.887,-6.097 2.564,-8.06 1.733,-2.028 4.243,-3.103 7.256,-3.103 0.396,0 0.807,0.02 1.224,0.058 L 0,-28.131 v 3.206 l -0.64,-0.026 c -0.172,-0.008 -0.34,-0.012 -0.508,-0.012 -5.824,0 -7.046,4.293 -7.046,7.889 V 0 Z"
           style="fill:#ffffff;fill-opacity:1;fill-rule:nonzero;stroke:none"
           id="path818" /></g></g><g
       id="g7127"
       transform="matrix(0.03527778,0,0,-0.03527778,-529.40836,488.62987)"
       style="fill:#ffffff"><path
         d="m 16429.8,9862.41 c 12.4,-0.16 23.6,-2.65 33.6,-7.57 10,-4.84 18.6,-11.49 25.6,-19.86 7.1,-8.34 12.5,-17.85 16.3,-28.34 3.8,-10.49 5.7,-21.37 5.7,-32.66 0,-15.49 -3,-29.71 -9,-43.01 -6.1,-13.23 -15.2,-24.01 -27.2,-32.23 -12.1,-8.21 -27,-12.38 -45,-12.65 -18,0.27 -33.1,4.44 -45.1,12.65 -12.1,8.22 -21.1,19 -27.1,32.23 -6.1,13.3 -9.1,27.52 -9.1,43.01 0,11.29 1.7,22.17 5.2,32.66 3.5,10.49 8.6,20 15.4,28.34 6.8,8.37 15.3,15.02 25.4,19.86 10.2,4.92 21.9,7.41 35.3,7.57 m -0.6,67.29 c -23.9,-0.17 -45.3,-4.27 -64.4,-12.37 -19,-8.06 -35.2,-19.25 -48.7,-33.46 -13.4,-14.31 -23.7,-30.82 -30.8,-49.58 -7.1,-18.73 -10.7,-38.87 -10.8,-60.31 0.1,-21.65 3.6,-41.9 10.6,-60.73 7,-18.71 17.2,-35.22 30.6,-49.43 13.4,-14.28 29.7,-25.38 48.9,-33.4 19.1,-8.01 40.8,-12.1 65.2,-12.27 24.2,0.17 46,4.26 65.3,12.27 19.2,8.02 35.5,19.12 49,33.4 13.5,14.21 23.7,30.72 30.7,49.43 7.2,18.83 10.7,39.08 10.8,60.73 -0.1,21.44 -3.8,41.58 -11.1,60.31 -7.3,18.76 -17.8,35.27 -31.4,49.58 -13.7,14.21 -30.1,25.4 -49.3,33.46 -19.3,8.1 -40.7,12.2 -64.6,12.37"
         style="fill:#ffffff;fill-opacity:1;fill-rule:nonzero;stroke:none"
         id="path130" /><path
         d="m 16710.7,9499.91 v 160.06 c 5.4,-8.16 12,-14.93 20,-20.41 8,-5.46 16.5,-9.83 25.8,-13.07 9.3,-3.19 18.5,-5.51 27.7,-6.85 9.2,-1.41 17.8,-2.08 25.8,-2.05 24,0.15 45.3,4.21 64,12.14 18.7,7.93 34.5,19.1 47.4,33.27 12.9,14.25 22.8,30.83 29.4,49.65 6.7,18.96 10.1,39.35 10.1,61.33 -0.1,22.1 -3.7,42.58 -10.9,61.48 -7.3,18.85 -17.7,35.46 -31.2,49.6 -13.5,14.22 -29.6,25.22 -48.4,33.17 -18.8,7.95 -39.7,11.91 -62.8,12.04 -11.4,0.04 -23.2,-1.62 -35.1,-5.01 -11.9,-3.38 -23.3,-8.53 -34,-15.63 -10.8,-7.02 -20,-16.13 -27.8,-27.22 l -4.9,41.2 h -69.1 v -423.7 z m 91.4,189.12 c -16.8,0.18 -31.6,4.05 -44.3,11.67 -12.7,7.54 -22.6,17.74 -29.7,30.5 -7.1,12.75 -10.7,26.95 -10.7,42.78 0,15.72 3.4,29.92 10.1,42.78 6.6,12.66 16.3,22.83 29,30.39 12.6,7.64 27.9,11.51 45.6,11.66 17.9,-0.15 33.1,-4.02 45.7,-11.66 12.7,-7.56 22.4,-17.73 29.1,-30.39 6.7,-12.86 10,-27.06 10.1,-42.78 -0.2,-15.83 -3.8,-30.03 -10.8,-42.78 -7.2,-12.76 -17,-22.96 -29.7,-30.5 -12.7,-7.62 -27.5,-11.49 -44.4,-11.67"
         style="fill:#ffffff;fill-opacity:1;fill-rule:nonzero;stroke:none"
         id="path132" /><path
         d="m 17079.9,9809.03 c 3.7,12.99 9.6,23.76 17.6,32.43 8.1,8.68 17.7,15.19 29,19.49 11.2,4.28 23.6,6.45 37,6.45 14.3,0 26.8,-2.17 38,-6.45 10.9,-4.3 19.9,-10.81 26.8,-19.49 6.8,-8.67 11.1,-19.44 12.8,-32.43 z m 232.2,-61.18 c 3.5,41.02 -0.4,75.31 -11.8,102.71 -11.5,27.37 -29.2,47.92 -53,61.63 -23.9,13.79 -52.6,20.63 -86.2,20.63 -32.5,-0.28 -60.6,-7.1 -84.3,-20.32 -23.7,-13.34 -41.9,-31.68 -54.9,-55.11 -13,-23.42 -19.5,-50.43 -19.7,-81.03 0.2,-32.1 6.7,-60.07 19.7,-83.85 13.1,-23.79 31.8,-42.33 56.2,-55.45 24.5,-13.12 54,-19.87 88.4,-20.06 15.3,0 30.9,1.79 46.5,5.32 15.8,3.55 30.7,8.91 44.8,16.06 14.2,7.24 26.6,16.25 37.2,27.14 l -47.2,46.66 c -5.8,-5.84 -13.3,-10.92 -22.3,-15 -8.9,-4.15 -18.5,-7.34 -28.6,-9.59 -10.2,-2.15 -19.9,-3.21 -29.1,-3.26 -17.5,0.09 -32.5,2.79 -45.2,8.22 -12.8,5.47 -22.9,12.9 -30.3,22.44 -7.4,9.49 -12,20.48 -13.6,32.86 h 233.4"
         style="fill:#ffffff;fill-opacity:1;fill-rule:nonzero;stroke:none"
         id="path134" /><path
         d="m 17663.1,9624.82 v 157 c 0,23.56 -3.4,44.39 -9.9,62.52 -6.5,18.19 -15.5,33.57 -27,46.13 -11.6,12.46 -25,21.9 -40.3,28.3 -15.3,6.46 -31.8,9.71 -49.6,9.71 -18.5,0 -35.8,-3.75 -51.8,-11.33 -15.9,-7.52 -31.3,-18.73 -46.4,-33.47 l -4.9,40.58 h -66 v -299.44 h 73.3 v 152.74 c 0.1,15.36 3.4,29.27 9.7,41.95 6.4,12.56 15.3,22.57 26.8,30.08 11.4,7.54 24.7,11.39 40,11.57 15.7,-0.08 29.1,-3.7 39.7,-10.59 10.7,-6.93 18.8,-16.42 24.2,-28.39 5.5,-12 8.2,-25.68 8.3,-40.98 v -156.38 h 73.9"
         style="fill:#ffffff;fill-opacity:1;fill-rule:nonzero;stroke:none"
         id="path136" /></g><g
       id="g7145"
       transform="translate(3.2851922,-3.7191317)"><path
         d="m 19322.906,9624.5861 v 423.6799 h -79.4 v -178.7699 h -208.5 v 178.7699 h -80 v -423.6799 h 80 v 171.02 h 208.5 v -171.02 h 79.4"
         style="fill:#2794d8;fill-opacity:1;fill-rule:nonzero;stroke:none"
         id="path150"
         transform="matrix(0.03527778,0,0,-0.03527778,-532.69355,492.349)" /><path
         d="m 19598.306,10049.466 c -33.4,0.3 -66.8,0.4 -100.2,0.3 -33.3,-0.1 -66.7,-0.2 -99.9,-0.3 v -424.8799 h 80 v 124.92 h 120.1 c 25.9,0.22 48.6,4.53 68.2,12.91 19.4,8.4 35.6,19.76 48.7,33.96 12.9,14.27 22.6,30.31 29.1,48.03 6.4,17.82 9.7,36.18 9.6,55.11 0,18.93 -3.2,37.29 -9.8,55.07 -6.5,17.79 -16.2,33.82 -29.2,47.9799 -12.9,14.3 -29.2,25.6 -48.6,34 -19.5,8.5 -42.1,12.7 -68,12.9 m -120.1,-76.2999 h 120.1 c 16.9,-0.32 31.1,-4.01 42.4,-11.15 11.3,-7.15 19.8,-16.49 25.5,-27.82 5.7,-11.38 8.6,-23.44 8.6,-36.2 0.1,-12.71 -2.8,-24.81 -8.4,-36.1 -5.7,-11.4 -14.2,-20.67 -25.5,-27.83 -11.4,-7.21 -25.6,-10.93 -42.6,-11.19 h -120.1 v 150.29"
         style="fill:#2794d8;fill-opacity:1;fill-rule:nonzero;stroke:none"
         id="path152"
         transform="matrix(0.03527778,0,0,-0.03527778,-532.69355,492.349)" /><path
         d="m 20127.206,9733.0761 c -9.4,-9.34 -20,-17.17 -31.8,-23.56 -11.8,-6.42 -24.1,-11.26 -36.9,-14.51 -12.9,-3.31 -25.5,-5.02 -37.9,-5.02 -26.2,0.24 -48.5,4.45 -67,12.51 -18.6,8.25 -33.6,19.22 -45.2,32.95 -11.6,13.81 -20.2,29.14 -25.6,46.14 -5.5,16.97 -8.3,34.31 -8.4,52.1 -0.2,17.96 2.6,35.64 8.2,52.92 5.6,17.37 14.4,33.12 26.2,47.29 11.8,14.27 27,25.61 45.6,34.05 18.5,8.45 40.6,12.89 66.2,13.05 18.7,0 36.9,-3.25 54.6,-9.76 17.6,-6.58 33.6,-16.64 47.8,-30.24 l 53.4,51.51 c -22,21.5599 -46.3,37.6599 -72.7,48.5599 -26.5,10.9 -54.2,16.2 -83.1,16.3 -30.7,-0.2 -58.1,-4.4 -82.4,-12.7 -24.2,-8.2 -45.3,-19.6 -63.2,-34.1 -17.9,-14.5699 -32.8,-31.3199 -44.5,-50.2499 -11.8,-18.93 -20.6,-39.22 -26.4,-60.81 -5.6,-21.54 -8.5,-43.5 -8.4,-65.82 0.1,-22.25 2.9,-43.92 8.5,-65.1 5.6,-21.28 14.1,-41.15 25.5,-59.56 11.4,-18.55 26.1,-34.83 43.8,-48.93 17.7,-14.09 38.7,-25.15 63.2,-33.08 24.4,-7.99 52.4,-12.01 83.9,-12.11 30.7,-0.11 59.8,5 87.2,15.33 27.3,10.34 52,26.17 74,47.63 l -54.6,55.21"
         style="fill:#2794d8;fill-opacity:1;fill-rule:nonzero;stroke:none"
         id="path154"
         transform="matrix(0.03527778,0,0,-0.03527778,-532.69355,492.349)" /></g><path
       d="m 105.67098,136.56986 h 1.20333 v -2.34456 h -1.20333 z"
       style="fill:#2794d8;fill-opacity:1;fill-rule:nonzero;stroke:none;stroke-width:0.352778"
       id="path804-3" /><path
       d="m -3.0489744,162.11136 c 0.073615,-4.91237 3.83674847,-8.93477 8.6369383,-9.42181 l 0.9601074,-0.0491 0.049018,-0.0106 H 9.610394 c 4.039925,-0.004 7.309019,-3.25857 7.333484,-7.27747 h 2.302059 c -0.01052,2.63839 -1.086206,5.0245 -2.817101,6.75889 l -0.627153,0.51858 3.023783,-0.004 c 4.036375,0 7.305468,-3.25507 7.330021,-7.27396 h 2.302014 c -0.01398,2.63838 -1.089669,5.02449 -2.8171,6.75889 l -0.634167,0.51857 h 2.501725 c 4.821279,0 8.735106,-3.91027 8.735106,-8.73155 0,-4.81778 -3.913827,-8.73153 -8.735106,-8.73153 -2.494667,0 -4.747664,1.04759 -6.33843,2.73296 -0.01052,0.0105 -0.01749,0.0175 -0.02802,0.028 l -1.629309,-1.6293 c 1.002155,-1.05109 2.210907,-1.90957 3.577452,-2.51221 l -0.171694,-1.1878 c -1.22629,-5.94251 -6.49259,-10.41689 -12.796033,-10.41689 -7.210894,0 -13.0692287,5.85491 -13.0692287,13.06931 0,7.08471 5.6516509,12.85904 12.6873425,13.06225 v 2.30203 c -7.7820102,-0.1888 -14.134472,-6.16984 -14.90881,-13.79417 l -0.020998,-0.44147 -0.1891899,-0.13316 c -1.776493,-1.878 -4.2852774,-3.0483 -7.0708099,-3.0483 -5.371353,0 -9.73713,4.36224 -9.73713,9.7371 0,5.03853 3.836705,9.18705 8.742078,9.6846 l 0.858389,0.0456 -0.592121,-0.49053 c -1.741418,-1.7379 -2.820608,-4.14504 -2.820608,-6.80094 v -0.021 h 2.302014 c 0,0.007 0,0.014 0,0.021 0,3.53186 2.512293,6.4856 5.8444354,7.16884 l 1.2789013,0.12964 h 3.6579515 v 2.30202 h -3.3671736 l -0.098124,0.0211 -0.3888585,-0.0211 h -5.6797541 c -6.643239,0 -12.039188,-5.3959 -12.039188,-12.03918 0,-6.6468 5.395949,-12.03921 12.039188,-12.03921 2.5823125,0 4.9789872,0.81639 6.937611,2.20039 l 0.3853937,0.3049 0.1927407,-1.24738 c 1.4331023,-7.00071 7.631363,-12.27394 15.0559556,-12.27394 7.417664,0 13.608911,5.26275 15.048985,12.25294 l 0.154158,0.95651 1.016141,-0.16118 c 0.385437,-0.042 0.774338,-0.063 1.166748,-0.063 6.093208,0 11.037119,4.94387 11.037119,11.03357 0,6.09316 -4.943911,11.03358 -11.037119,11.03358 l -20.9143783,0.007 c -4.0188795,0.004 -7.27043535,3.21302 -7.34054241,7.19337 0,0.028 0,0.24528 0,0.38893 H -3.048967 c 0,-0.14716 0,-0.3749 0,-0.40995"
       style="fill:#2794d8;fill-opacity:1;fill-rule:nonzero;stroke:none;stroke-width:0.0350384"
       id="path156" /></g></svg>
