<?xml version="1.0" encoding="UTF-8" standalone="no"?>
<!-- Created with Inkscape (http://www.inkscape.org/) -->

<svg
   width="194.27484mm"
   height="36.812973mm"
   viewBox="0 0 194.27484 36.812973"
   version="1.1"
   id="svg556"
   inkscape:version="1.2.2 (b0a8486, 2022-12-01)"
   sodipodi:docname="openflighthpc_grey.svg"
   inkscape:export-filename="openflighthpc_grey.png"
   inkscape:export-xdpi="96"
   inkscape:export-ydpi="96"
   xmlns:inkscape="http://www.inkscape.org/namespaces/inkscape"
   xmlns:sodipodi="http://sodipodi.sourceforge.net/DTD/sodipodi-0.dtd"
   xmlns="http://www.w3.org/2000/svg"
   xmlns:svg="http://www.w3.org/2000/svg">
  <sodipodi:namedview
     id="namedview558"
     pagecolor="#505050"
     bordercolor="#eeeeee"
     borderopacity="1"
     inkscape:showpageshadow="0"
     inkscape:pageopacity="0"
     inkscape:pagecheckerboard="0"
     inkscape:deskcolor="#505050"
     inkscape:document-units="mm"
     showgrid="false"
     inkscape:zoom="1.1893044"
     inkscape:cx="453.62651"
     inkscape:cy="168.58594"
     inkscape:window-width="1846"
     inkscape:window-height="1136"
     inkscape:window-x="74"
     inkscape:window-y="27"
     inkscape:window-maximized="1"
     inkscape:current-layer="g509">
    <inkscape:grid
       type="xygrid"
       id="grid4063"
       originx="14.999088"
       originy="-125.235" />
  </sodipodi:namedview>
  <defs
     id="defs553" />
  <g
     inkscape:label="Layer 1"
     inkscape:groupmode="layer"
     id="layer1"
     transform="translate(14.999088,-125.23502)">
    <g
       id="g509"
       transform="matrix(0.03527778,0,0,-0.03527778,-532.69356,492.349)">
      <path
         d="m 16429.8,9862.41 c 12.4,-0.16 23.6,-2.65 33.6,-7.57 10,-4.84 18.6,-11.49 25.6,-19.86 7.1,-8.34 12.5,-17.85 16.3,-28.34 3.8,-10.49 5.7,-21.37 5.7,-32.66 0,-15.49 -3,-29.71 -9,-43.01 -6.1,-13.23 -15.2,-24.01 -27.2,-32.23 -12.1,-8.21 -27,-12.38 -45,-12.65 -18,0.27 -33.1,4.44 -45.1,12.65 -12.1,8.22 -21.1,19 -27.1,32.23 -6.1,13.3 -9.1,27.52 -9.1,43.01 0,11.29 1.7,22.17 5.2,32.66 3.5,10.49 8.6,20 15.4,28.34 6.8,8.37 15.3,15.02 25.4,19.86 10.2,4.92 21.9,7.41 35.3,7.57 m -0.6,67.29 c -23.9,-0.17 -45.3,-4.27 -64.4,-12.37 -19,-8.06 -35.2,-19.25 -48.7,-33.46 -13.4,-14.31 -23.7,-30.82 -30.8,-49.58 -7.1,-18.73 -10.7,-38.87 -10.8,-60.31 0.1,-21.65 3.6,-41.9 10.6,-60.73 7,-18.71 17.2,-35.22 30.6,-49.43 13.4,-14.28 29.7,-25.38 48.9,-33.4 19.1,-8.01 40.8,-12.1 65.2,-12.27 24.2,0.17 46,4.26 65.3,12.27 19.2,8.02 35.5,19.12 49,33.4 13.5,14.21 23.7,30.72 30.7,49.43 7.2,18.83 10.7,39.08 10.8,60.73 -0.1,21.44 -3.8,41.58 -11.1,60.31 -7.3,18.76 -17.8,35.27 -31.4,49.58 -13.7,14.21 -30.1,25.4 -49.3,33.46 -19.3,8.1 -40.7,12.2 -64.6,12.37"
         style="fill:#586674;fill-opacity:1;fill-rule:nonzero;stroke:none"
         id="path130" />
      <path
         d="m 16710.7,9499.91 v 160.06 c 5.4,-8.16 12,-14.93 20,-20.41 8,-5.46 16.5,-9.83 25.8,-13.07 9.3,-3.19 18.5,-5.51 27.7,-6.85 9.2,-1.41 17.8,-2.08 25.8,-2.05 24,0.15 45.3,4.21 64,12.14 18.7,7.93 34.5,19.1 47.4,33.27 12.9,14.25 22.8,30.83 29.4,49.65 6.7,18.96 10.1,39.35 10.1,61.33 -0.1,22.1 -3.7,42.58 -10.9,61.48 -7.3,18.85 -17.7,35.46 -31.2,49.6 -13.5,14.22 -29.6,25.22 -48.4,33.17 -18.8,7.95 -39.7,11.91 -62.8,12.04 -11.4,0.04 -23.2,-1.62 -35.1,-5.01 -11.9,-3.38 -23.3,-8.53 -34,-15.63 -10.8,-7.02 -20,-16.13 -27.8,-27.22 l -4.9,41.2 h -69.1 v -423.7 z m 91.4,189.12 c -16.8,0.18 -31.6,4.05 -44.3,11.67 -12.7,7.54 -22.6,17.74 -29.7,30.5 -7.1,12.75 -10.7,26.95 -10.7,42.78 0,15.72 3.4,29.92 10.1,42.78 6.6,12.66 16.3,22.83 29,30.39 12.6,7.64 27.9,11.51 45.6,11.66 17.9,-0.15 33.1,-4.02 45.7,-11.66 12.7,-7.56 22.4,-17.73 29.1,-30.39 6.7,-12.86 10,-27.06 10.1,-42.78 -0.2,-15.83 -3.8,-30.03 -10.8,-42.78 -7.2,-12.76 -17,-22.96 -29.7,-30.5 -12.7,-7.62 -27.5,-11.49 -44.4,-11.67"
         style="fill:#586674;fill-opacity:1;fill-rule:nonzero;stroke:none"
         id="path132" />
      <path
         d="m 17079.9,9809.03 c 3.7,12.99 9.6,23.76 17.6,32.43 8.1,8.68 17.7,15.19 29,19.49 11.2,4.28 23.6,6.45 37,6.45 14.3,0 26.8,-2.17 38,-6.45 10.9,-4.3 19.9,-10.81 26.8,-19.49 6.8,-8.67 11.1,-19.44 12.8,-32.43 z m 232.2,-61.18 c 3.5,41.02 -0.4,75.31 -11.8,102.71 -11.5,27.37 -29.2,47.92 -53,61.63 -23.9,13.79 -52.6,20.63 -86.2,20.63 -32.5,-0.28 -60.6,-7.1 -84.3,-20.32 -23.7,-13.34 -41.9,-31.68 -54.9,-55.11 -13,-23.42 -19.5,-50.43 -19.7,-81.03 0.2,-32.1 6.7,-60.07 19.7,-83.85 13.1,-23.79 31.8,-42.33 56.2,-55.45 24.5,-13.12 54,-19.87 88.4,-20.06 15.3,0 30.9,1.79 46.5,5.32 15.8,3.55 30.7,8.91 44.8,16.06 14.2,7.24 26.6,16.25 37.2,27.14 l -47.2,46.66 c -5.8,-5.84 -13.3,-10.92 -22.3,-15 -8.9,-4.15 -18.5,-7.34 -28.6,-9.59 -10.2,-2.15 -19.9,-3.21 -29.1,-3.26 -17.5,0.09 -32.5,2.79 -45.2,8.22 -12.8,5.47 -22.9,12.9 -30.3,22.44 -7.4,9.49 -12,20.48 -13.6,32.86 h 233.4"
         style="fill:#586674;fill-opacity:1;fill-rule:nonzero;stroke:none"
         id="path134" />
      <path
         d="m 17663.1,9624.82 v 157 c 0,23.56 -3.4,44.39 -9.9,62.52 -6.5,18.19 -15.5,33.57 -27,46.13 -11.6,12.46 -25,21.9 -40.3,28.3 -15.3,6.46 -31.8,9.71 -49.6,9.71 -18.5,0 -35.8,-3.75 -51.8,-11.33 -15.9,-7.52 -31.3,-18.73 -46.4,-33.47 l -4.9,40.58 h -66 v -299.44 h 73.3 v 152.74 c 0.1,15.36 3.4,29.27 9.7,41.95 6.4,12.56 15.3,22.57 26.8,30.08 11.4,7.54 24.7,11.39 40,11.57 15.7,-0.08 29.1,-3.7 39.7,-10.59 10.7,-6.93 18.8,-16.42 24.2,-28.39 5.5,-12 8.2,-25.68 8.3,-40.98 v -156.38 h 73.9"
         style="fill:#586674;fill-opacity:1;fill-rule:nonzero;stroke:none"
         id="path136" />
      <path
         d="m 19322.906,9624.5861 v 423.6799 h -79.4 v -178.7699 h -208.5 v 178.7699 h -80 v -423.6799 h 80 v 171.02 h 208.5 v -171.02 h 79.4"
         style="fill:#2794d8;fill-opacity:1;fill-rule:nonzero;stroke:none"
         id="path150" />
      <path
         d="m 19598.306,10049.466 c -33.4,0.3 -66.8,0.4 -100.2,0.3 -33.3,-0.1 -66.7,-0.2 -99.9,-0.3 v -424.8799 h 80 v 124.92 h 120.1 c 25.9,0.22 48.6,4.53 68.2,12.91 19.4,8.4 35.6,19.76 48.7,33.96 12.9,14.27 22.6,30.31 29.1,48.03 6.4,17.82 9.7,36.18 9.6,55.11 0,18.93 -3.2,37.29 -9.8,55.07 -6.5,17.79 -16.2,33.82 -29.2,47.9799 -12.9,14.3 -29.2,25.6 -48.6,34 -19.5,8.5 -42.1,12.7 -68,12.9 m -120.1,-76.2999 h 120.1 c 16.9,-0.32 31.1,-4.01 42.4,-11.15 11.3,-7.15 19.8,-16.49 25.5,-27.82 5.7,-11.38 8.6,-23.44 8.6,-36.2 0.1,-12.71 -2.8,-24.81 -8.4,-36.1 -5.7,-11.4 -14.2,-20.67 -25.5,-27.83 -11.4,-7.21 -25.6,-10.93 -42.6,-11.19 h -120.1 v 150.29"
         style="fill:#2794d8;fill-opacity:1;fill-rule:nonzero;stroke:none"
         id="path152" />
      <path
         d="m 20127.206,9733.0761 c -9.4,-9.34 -20,-17.17 -31.8,-23.56 -11.8,-6.42 -24.1,-11.26 -36.9,-14.51 -12.9,-3.31 -25.5,-5.02 -37.9,-5.02 -26.2,0.24 -48.5,4.45 -67,12.51 -18.6,8.25 -33.6,19.22 -45.2,32.95 -11.6,13.81 -20.2,29.14 -25.6,46.14 -5.5,16.97 -8.3,34.31 -8.4,52.1 -0.2,17.96 2.6,35.64 8.2,52.92 5.6,17.37 14.4,33.12 26.2,47.29 11.8,14.27 27,25.61 45.6,34.05 18.5,8.45 40.6,12.89 66.2,13.05 18.7,0 36.9,-3.25 54.6,-9.76 17.6,-6.58 33.6,-16.64 47.8,-30.24 l 53.4,51.51 c -22,21.5599 -46.3,37.6599 -72.7,48.5599 -26.5,10.9 -54.2,16.2 -83.1,16.3 -30.7,-0.2 -58.1,-4.4 -82.4,-12.7 -24.2,-8.2 -45.3,-19.6 -63.2,-34.1 -17.9,-14.5699 -32.8,-31.3199 -44.5,-50.2499 -11.8,-18.93 -20.6,-39.22 -26.4,-60.81 -5.6,-21.54 -8.5,-43.5 -8.4,-65.82 0.1,-22.25 2.9,-43.92 8.5,-65.1 5.6,-21.28 14.1,-41.15 25.5,-59.56 11.4,-18.55 26.1,-34.83 43.8,-48.93 17.7,-14.09 38.7,-25.15 63.2,-33.08 24.4,-7.99 52.4,-12.01 83.9,-12.11 30.7,-0.11 59.8,5 87.2,15.33 27.3,10.34 52,26.17 74,47.63 l -54.6,55.21"
         style="fill:#2794d8;fill-opacity:1;fill-rule:nonzero;stroke:none"
         id="path154" />
      <path
         d="m 15161.379,9399.9539 c 1.7,113.4427 88.603,206.333 199.455,217.5803 l 22.172,1.1327 1.132,0.2428 h 69.587 c 93.295,0.082 168.789,75.2509 169.354,168.0603 h 53.162 c -0.243,-60.9289 -25.084,-116.032 -65.056,-156.0849 l -14.483,-11.9754 69.829,0.082 c 93.213,0 168.707,75.17 169.274,167.9794 h 53.161 c -0.323,-60.9288 -25.164,-116.032 -65.056,-156.0848 l -14.645,-11.9754 h 57.773 c 111.339,0 201.722,90.3011 201.722,201.64 0,111.2581 -90.383,201.6391 -201.722,201.6391 -57.61,0 -109.639,-24.1922 -146.375,-63.1128 -0.243,-0.2425 -0.404,-0.4048 -0.647,-0.6473 l -37.626,37.6259 c 23.143,24.2732 51.057,44.0982 82.615,58.0152 l -3.965,27.43 c -28.319,137.232 -149.935,240.56 -295.502,240.56 -166.523,0 -301.811,-135.209 -301.811,-301.813 0,-163.609 130.515,-296.9569 292.992,-301.6499 v -53.1612 c -179.712,4.3695 -326.411,142.4913 -344.293,318.5619 l -0.485,10.195 -4.369,3.075 c -41.025,43.3692 -98.961,70.3952 -163.288,70.3952 -124.042,0 -224.862,-100.7382 -224.862,-224.8614 0,-116.3558 88.602,-212.159 201.883,-223.649 l 19.823,-1.0519 -13.674,11.3281 c -40.215,40.1338 -65.137,95.7225 -65.137,157.0559 v 0.4854 h 53.161 c 0,-0.1616 0,-0.3235 0,-0.4854 0,-81.5622 58.017,-149.7735 134.967,-165.5519 l 29.534,-2.9939 h 84.474 v -53.1611 h -77.759 l -2.266,-0.4855 -8.98,0.4855 h -131.164 c -153.414,0 -278.024,124.609 -278.024,278.0238 0,153.4962 124.61,278.0244 278.024,278.0244 59.634,0 114.981,-18.853 160.212,-50.814 l 8.9,-7.041 4.451,28.806 c 33.095,161.669 176.233,283.445 347.691,283.445 171.298,0 314.274,-121.534 347.53,-282.96 l 3.56,-22.089 23.466,3.722 c 8.901,0.971 17.882,1.456 26.944,1.456 140.712,0 254.883,-114.1703 254.883,-254.8011 0,-140.711 -114.171,-254.8012 -254.883,-254.8012 l -482.981,-0.1618 c -92.809,-0.082 -167.898,-74.199 -169.517,-166.1183 0,-0.6474 0,-5.6641 0,-8.9816 h -53.161 c 0,3.3984 0,8.6578 0,9.4671"
         style="fill:#2794d8;fill-opacity:1;fill-rule:nonzero;stroke:none;stroke-width:0.80915"
         id="path156" />
    </g>
    <g
       id="g4110"
       transform="matrix(0.35277777,0,0,-0.35277777,-53.647465,252.28782)">
      <g
         id="g798"
         transform="translate(418.4229,315.0801)">
        <path
           d="M 0,0 V -1.509 H -4.126 V -4.916 H 0 v -28.182 h 3.468 v 28.182 h 8.136 v 3.407 H 3.468 v 1.333 c 0,5.6 2.512,8.279 7.484,7.992 l 0.652,-0.041 v 3.223 l -0.559,0.048 C 4.233,11.669 0,7.3 0,0"
           style="fill:#586674;fill-opacity:1;fill-rule:nonzero;stroke:none"
           id="path800" />
      </g>
      <path
         d="m 433.575,281.982 h 3.408 v 45.093 h -3.408 z"
         style="fill:#586674;fill-opacity:1;fill-rule:nonzero;stroke:none"
         id="path802" />
      <path
         d="m 442.299,317.477 h 3.411 v 6.646 h -3.411 z"
         style="fill:#2794d8;fill-opacity:1;fill-rule:nonzero;stroke:none"
         id="path804-3" />
      <path
         d="m 442.299,281.982 h 3.411 v 31.589 h -3.411 z"
         style="fill:#586674;fill-opacity:1;fill-rule:nonzero;stroke:none"
         id="path806" />
      <g
         id="g808"
         transform="translate(465.2002,284.6836)">
        <path
           d="m 0,0 c -6.813,0 -12.355,5.832 -12.355,13.007 0,7.265 5.542,13.177 12.355,13.177 7.124,0 12.297,-5.542 12.297,-13.177 C 12.297,5.47 7.124,0 0,0 M 12.297,23.357 C 9.5,27.337 5.048,29.654 0,29.654 c -8.692,0 -15.765,-7.467 -15.765,-16.647 0,-9.087 7.073,-16.476 15.765,-16.476 5.038,0 9.493,2.305 12.297,6.258 v -4.052 c 0,-7.828 -4.78,-12.887 -12.179,-12.887 -5.526,0 -9.636,2.687 -11.269,7.372 l -0.145,0.413 h -3.554 l 0.232,-0.789 c 1.903,-6.514 7.413,-10.406 14.736,-10.406 9.323,0 15.588,6.549 15.588,16.297 v 30.151 h -3.409 z"
           style="fill:#586674;fill-opacity:1;fill-rule:nonzero;stroke:none"
           id="path810" />
      </g>
      <g
         id="g812"
         transform="translate(500.1631,314.3379)">
        <path
           d="m 0,0 c -4.206,0 -7.883,-1.655 -10.349,-4.599 v 17.336 h -3.411 v -45.092 h 3.411 v 18.952 c 0,5.73 4.426,10.052 10.292,10.052 6.22,0 9.644,-3.57 9.644,-10.052 v -18.952 h 3.411 v 18.952 C 12.998,-5.136 8.017,0 0,0"
           style="fill:#586674;fill-opacity:1;fill-rule:nonzero;stroke:none"
           id="path814" />
      </g>
      <g
         id="g816"
         transform="translate(530.7314,310.1641)">
        <path
           d="m 0,0 v 3.407 h -8.194 v 6.484 h -3.41 V 3.407 H -15.73 V 0 h 4.126 v -17.074 c 0,-3.31 0.887,-6.097 2.564,-8.06 1.733,-2.028 4.243,-3.103 7.256,-3.103 0.396,0 0.807,0.02 1.224,0.058 L 0,-28.131 v 3.206 l -0.64,-0.026 c -0.172,-0.008 -0.34,-0.012 -0.508,-0.012 -5.824,0 -7.046,4.293 -7.046,7.889 V 0 Z"
           style="fill:#586674;fill-opacity:1;fill-rule:nonzero;stroke:none"
           id="path818" />
      </g>
    </g>
  </g>
</svg>
