<?xml version="1.0" encoding="UTF-8" standalone="no"?>
<!-- Created with Inkscape (http://www.inkscape.org/) -->

<svg
   width="129.11667mm"
   height="67.267029mm"
   viewBox="0 0 129.11667 67.267029"
   version="1.1"
   id="svg5"
   class="cloud parting-cloud"
   xml:space="preserve"
   inkscape:version="1.2.2 (b0a8486, 2022-12-01)"
   sodipodi:docname="parting_cloud_r.svg"
   xmlns:inkscape="http://www.inkscape.org/namespaces/inkscape"
   xmlns:sodipodi="http://sodipodi.sourceforge.net/DTD/sodipodi-0.dtd"
   xmlns="http://www.w3.org/2000/svg"
   xmlns:svg="http://www.w3.org/2000/svg"><sodipodi:namedview
     id="namedview7"
     pagecolor="#505050"
     bordercolor="#eeeeee"
     borderopacity="1"
     inkscape:showpageshadow="0"
     inkscape:pageopacity="0"
     inkscape:pagecheckerboard="0"
     inkscape:deskcolor="#505050"
     inkscape:document-units="mm"
     showgrid="false"
     inkscape:zoom="0.5946522"
     inkscape:cx="813.08032"
     inkscape:cy="239.63587"
     inkscape:window-width="1846"
     inkscape:window-height="1136"
     inkscape:window-x="74"
     inkscape:window-y="27"
     inkscape:window-maximized="1"
     inkscape:current-layer="layer1"><inkscape:grid
       type="xygrid"
       id="grid1543"
       originx="0"
       originy="-0.20172232" /></sodipodi:namedview><defs
     id="defs2"><inkscape:path-effect
       effect="powermask"
       id="path-effect5711"
       is_visible="true"
       lpeversion="1"
       uri="#mask-powermask-path-effect5711"
       invert="false"
       hide_mask="false"
       background="false"
       background_color="#ffffffff" /><inkscape:path-effect
       effect="powermask"
       id="path-effect5706"
       is_visible="true"
       lpeversion="1"
       uri="#mask-powermask-path-effect5706"
       invert="false"
       hide_mask="false"
       background="false"
       background_color="#ffffffff" /><inkscape:path-effect
       effect="powermask"
       id="path-effect5701"
       is_visible="true"
       lpeversion="1"
       uri="#mask-powermask-path-effect5701"
       invert="false"
       hide_mask="false"
       background="false"
       background_color="#ffffffff" /><inkscape:path-effect
       effect="powermask"
       id="path-effect5696"
       is_visible="true"
       lpeversion="1"
       uri="#mask-powermask-path-effect5696"
       invert="false"
       hide_mask="false"
       background="false"
       background_color="#ffffffff" /><inkscape:path-effect
       effect="powermask"
       id="path-effect5685"
       is_visible="true"
       lpeversion="1"
       uri="#mask-powermask-path-effect5685"
       invert="false"
       hide_mask="false"
       background="false"
       background_color="#ffffffff" /><inkscape:path-effect
       effect="powermask"
       id="path-effect5654"
       is_visible="true"
       lpeversion="1"
       uri="#mask-powermask-path-effect5654"
       invert="false"
       hide_mask="false"
       background="false"
       background_color="#ffffffff" /><inkscape:path-effect
       effect="powermask"
       id="path-effect5649"
       is_visible="true"
       lpeversion="1"
       uri="#mask-powermask-path-effect5649"
       invert="false"
       hide_mask="false"
       background="false"
       background_color="#ffffffff" /><inkscape:path-effect
       effect="powermask"
       id="path-effect5644"
       is_visible="true"
       lpeversion="1"
       uri="#mask-powermask-path-effect5644"
       invert="false"
       hide_mask="false"
       background="false"
       background_color="#ffffffff" /><inkscape:path-effect
       effect="powerclip"
       id="path-effect1986"
       is_visible="true"
       lpeversion="1"
       inverse="true"
       flatten="false"
       hide_clip="false"
       message="Use fill-rule evenodd on &lt;b&gt;fill and stroke&lt;/b&gt; dialog if no flatten result after convert clip to paths." /><inkscape:path-effect
       effect="powerclip"
       id="path-effect1982"
       is_visible="true"
       lpeversion="1"
       inverse="true"
       flatten="false"
       hide_clip="false"
       message="Use fill-rule evenodd on &lt;b&gt;fill and stroke&lt;/b&gt; dialog if no flatten result after convert clip to paths." /><inkscape:path-effect
       effect="powerclip"
       id="path-effect569"
       is_visible="true"
       lpeversion="1"
       inverse="true"
       flatten="false"
       hide_clip="false"
       message="Use fill-rule evenodd on &lt;b&gt;fill and stroke&lt;/b&gt; dialog if no flatten result after convert clip to paths." /><clipPath
       clipPathUnits="userSpaceOnUse"
       id="clipPath559"><g
         inkscape:label="Clip"
         id="use561"><ellipse
           style="fill:#bde7f9;fill-opacity:1;stroke-width:0.308793"
           id="ellipse1579"
           clip-path="url(#clipPath565)"
           inkscape:label="path300-6"
           cx="-42.661259"
           cy="125.21539"
           rx="18.995796"
           ry="11.882337" /></g></clipPath><clipPath
       clipPathUnits="userSpaceOnUse"
       id="clipPath565"><rect
         style="display:block;fill:#000000;stroke-width:0.264583"
         id="rect567"
         width="15.524405"
         height="28.723793"
         x="-63.550354"
         y="111.13319" /></clipPath><clipPath
       clipPathUnits="userSpaceOnUse"
       id="clipPath1974"><rect
         style="display:block;fill:#000000;fill-opacity:1;stroke-width:0.264583"
         id="rect1976"
         width="58.197968"
         height="18.658361"
         x="26.516808"
         y="176.25484" /></clipPath><clipPath
       clipPathUnits="userSpaceOnUse"
       id="clipPath1978"><rect
         style="display:block;fill:#000000;fill-opacity:1;stroke-width:0.264583"
         id="rect1980"
         width="58.197968"
         height="18.658361"
         x="26.516808"
         y="176.25484" /></clipPath><mask
       maskUnits="userSpaceOnUse"
       id="mask-powermask-path-effect5644"><rect
         style="fill:#000000;fill-opacity:1;stroke-width:0.266558"
         id="rect5634"
         width="12.733641"
         height="42.391792"
         x="-35.957672"
         y="209.65794"
         ry="0"
         transform="matrix(0.99315317,-0.11681947,-0.00432156,0.99999066,0,0)" /></mask><mask
       maskUnits="userSpaceOnUse"
       id="mask-powermask-path-effect5649"><rect
         style="fill:#000000;fill-opacity:1;stroke-width:0.266558"
         id="rect5638"
         width="12.733641"
         height="42.391792"
         x="-35.957672"
         y="209.65794"
         ry="0"
         transform="matrix(0.99315317,-0.11681947,-0.00432156,0.99999066,0,0)" /></mask><mask
       maskUnits="userSpaceOnUse"
       id="mask-powermask-path-effect5654"><rect
         style="fill:#000000;fill-opacity:1;stroke-width:0.26562"
         id="rect5642"
         width="13.378579"
         height="40.064793"
         x="-37.77887"
         y="198.14925"
         ry="0"
         transform="matrix(0.77072186,-0.63717173,0.61689792,0.78704317,0,0)" /></mask><mask
       maskUnits="userSpaceOnUse"
       id="mask-powermask-path-effect5685"><rect
         style="fill:#000000;fill-opacity:1;stroke-width:0.853977"
         id="rect5667"
         width="79.647484"
         height="16.420591"
         x="-50.440907"
         y="176.33417" /></mask><mask
       maskUnits="userSpaceOnUse"
       id="mask-powermask-path-effect5696"><rect
         style="fill:#000000;fill-opacity:1;stroke-width:0.853977"
         id="rect5671"
         width="79.647484"
         height="16.420591"
         x="-50.440907"
         y="176.33417" /></mask><mask
       maskUnits="userSpaceOnUse"
       id="mask-powermask-path-effect5701"><rect
         style="fill:#000000;fill-opacity:1;stroke-width:0.858368"
         id="rect5675"
         width="76.435257"
         height="17.287088"
         x="-48.406597"
         y="185.63913"
         transform="matrix(0.92190181,0.3874236,-0.45743477,0.88924318,0,0)" /></mask><mask
       maskUnits="userSpaceOnUse"
       id="mask-powermask-path-effect5706"><rect
         style="fill:#000000;fill-opacity:1;stroke-width:0.854121"
         id="rect5679"
         width="79.13665"
         height="16.532152"
         x="-50.117397"
         y="177.53218"
         transform="matrix(0.9426907,-0.33366787,0.348518,0.93730209,0,0)" /></mask><mask
       maskUnits="userSpaceOnUse"
       id="mask-powermask-path-effect5711"><rect
         style="fill:#000000;fill-opacity:1;stroke-width:0.860482"
         id="rect5683"
         width="73.615921"
         height="18.037678"
         x="-23.369637"
         y="269.9267"
         transform="matrix(-0.75034015,0.66105193,-0.67482624,-0.73797666,0,0)" /></mask></defs><g
     inkscape:label="Layer 1"
     inkscape:groupmode="layer"
     id="layer1"
     transform="translate(48.081552,-109.3611)"><g
       id="g1404"
       style="display:inline"
       transform="matrix(-1,0,0,1,32.953563,0)"><g
         id="g949"
         style="display:inline;fill:#bde7f9;fill-opacity:1"
         transform="translate(-0.048541,0.20172)"><path
           id="path672"
           style="display:inline;fill:#bde7f9;fill-opacity:1;stroke-width:1.12039"
           d="M -21.996357 109.1599 L -21.996357 109.16041 C -15.502021 109.09279 -9.6858145 112.8479 -7.9253813 118.38517 A 23.146471 19.172058 49.960503 0 1 -5.3136544 118.11387 A 23.146471 19.172058 49.960503 0 1 10.424403 124.03031 A 23.146471 19.172058 49.960503 0 1 19.691538 146.9147 C 19.747813 146.90614 19.803939 146.89678 19.86052 146.88886 C 20.444938 146.80713 21.03538 146.76143 21.627337 146.75243 L 21.627337 146.75295 C 27.80796 146.656 33.132212 150.48857 34.123732 155.74827 C 34.237433 156.35202 34.290406 156.96197 34.283412 157.57141 C 34.486837 157.5561 34.690434 157.54693 34.894744 157.54351 L 34.894744 157.54402 C 37.70633 157.50016 40.267146 158.59971 41.922222 160.37382 A 19.441946 15.507764 0 0 1 45.269821 159.67981 A 19.441946 15.507764 0 0 1 48.032443 159.48189 A 19.441946 15.507764 0 0 1 67.233855 171.20572 A 11.210077 8.9621859 0 0 1 68.867864 170.88636 A 11.210077 8.9621859 0 0 1 70.461049 170.77164 A 11.210077 8.9621859 0 0 1 81.083656 176.42659 L 67.743385 176.42659 L 60.252886 176.42659 L 40.44841 176.42659 L 31.606573 176.42659 L 17.319073 176.42659 L 17.319073 176.42608 L -7.3858793 176.42608 L -7.3858793 176.42659 L -35.212605 176.42659 L -48.033011 176.42659 L -48.033011 113.98493 C -46.415812 113.698 -44.87615 113.4326 -43.168191 113.4108 L -43.114448 113.41183 C -40.15335 113.369 -37.385005 113.6765 -33.86385 114.74302 C -31.582837 111.97903 -28.116253 109.91559 -24.183304 109.33198 C -23.460045 109.22483 -22.729021 109.1669 -21.996357 109.1599 z " /></g><g
         id="g1389"
         style="display:inline;fill:#d4f0fd;fill-opacity:1"
         transform="translate(0.07036767,0.17487)"><path
           id="path1365"
           style="fill:#d4f0fd;fill-opacity:1;stroke-width:0.549431"
           d="M -43.166694 142.50099 C -32.501896 142.60796 -23.425768 149.41806 -21.707539 158.68192 C -21.609542 159.21035 -21.540305 159.74008 -21.493598 160.26942 C -20.199568 159.2951 -18.627008 158.62315 -16.902147 158.36514 C -16.423977 158.2936 -15.940658 158.2549 -15.456241 158.2499 C -11.35369 158.20683 -7.7489999 160.52646 -6.3033109 163.92191 C -5.670398 163.67471 -4.9643326 163.49912 -4.204731 163.41393 C -3.9076573 163.38053 -3.6075144 163.36212 -3.3065946 163.35812 L -3.3065946 163.35863 C -1.6456875 163.33771 -0.10655627 163.76428 1.0502454 164.48725 C 3.3106622 162.58996 6.1433151 161.26285 9.3231254 160.77895 C 10.13729 160.65529 10.960212 160.58899 11.784991 160.57999 C 19.963006 160.49282 26.980194 166.01115 28.291993 173.56111 C 28.452112 174.48343 28.597437 175.51924 28.577247 176.45344 L -4.4956693 176.45344 C -4.4958625 176.44447 -4.4960093 176.43554 -4.4961861 176.42657 L -6.0831693 176.44259 L -6.0831693 176.45344 L -32.541503 176.45344 L -48.151919 176.45344 L -48.151919 143.11594 C -47.76292 142.93836 -47.310631 142.80414 -46.951993 142.74904 C -45.868492 142.59489 -44.773336 142.51199 -43.675707 142.50099 C -43.505647 142.4993 -43.335976 142.49929 -43.166694 142.50099 z " /></g></g></g></svg>
