<?xml version="1.0" encoding="UTF-8" standalone="no"?>
<!-- Created with Inkscape (http://www.inkscape.org/) -->

<svg
   width="131.26366mm"
   height="28.683008mm"
   viewBox="0 0 131.26366 28.683008"
   version="1.1"
   id="svg8006"
   xml:space="preserve"
   inkscape:version="1.2.2 (b0a8486, 2022-12-01)"
   sodipodi:docname="solo_title.svg"
   xmlns:inkscape="http://www.inkscape.org/namespaces/inkscape"
   xmlns:sodipodi="http://sodipodi.sourceforge.net/DTD/sodipodi-0.dtd"
   xmlns="http://www.w3.org/2000/svg"
   xmlns:svg="http://www.w3.org/2000/svg"><sodipodi:namedview
     id="namedview8008"
     pagecolor="#505050"
     bordercolor="#eeeeee"
     borderopacity="1"
     inkscape:showpageshadow="0"
     inkscape:pageopacity="0"
     inkscape:pagecheckerboard="0"
     inkscape:deskcolor="#505050"
     inkscape:document-units="mm"
     showgrid="false"
     inkscape:zoom="1.6819304"
     inkscape:cx="372.48866"
     inkscape:cy="93.047845"
     inkscape:window-width="1846"
     inkscape:window-height="1136"
     inkscape:window-x="74"
     inkscape:window-y="27"
     inkscape:window-maximized="1"
     inkscape:current-layer="layer1" /><defs
     id="defs8003"><rect
       x="414.6759"
       y="752.56226"
       width="128.39468"
       height="62.017208"
       id="rect11960" /><clipPath
       clipPathUnits="userSpaceOnUse"
       id="clipPath8554"><path
         d="M 0,800 H 800 V 0 H 0 Z"
         id="path8552" /></clipPath><clipPath
       clipPathUnits="userSpaceOnUse"
       id="clipPath9867"><rect
         style="fill:#8e8e8e;fill-opacity:1;stroke:none;stroke-width:4.73001;stroke-linecap:round;stroke-linejoin:round"
         id="rect9869"
         width="44.561008"
         height="17.063122"
         x="111.78008"
         y="199.18256" /></clipPath></defs><g
     inkscape:label="Layer 1"
     inkscape:groupmode="layer"
     id="layer1"
     transform="translate(-24.378146,-191.25212)"><g
       id="g8596"
       transform="matrix(0.1616047,0,0,-0.1616047,65.655953,210.69764)"><path
         d="m 0,0 c 0,-8.127 -2.729,-15.471 -7.498,-20.479 -0.186,-0.222 -0.376,-0.442 -0.562,-0.666 -10.409,-11.09 -25.982,-16.729 -46.497,-16.833 -16.372,-0.084 -40.803,3.204 -54.23,9.014 15.829,-15.708 3.357,-28.197 3.357,-28.197 -1.125,1.482 -4.309,3.834 -8.705,6.695 -16.084,8.469 -41.436,15.028 -41.436,15.028 l -15.249,17.618 -12.386,7.172 c -20.24,11.535 -29.866,17.396 -46.887,33.206 -18.826,17.463 -28.402,35.881 -28.606,54.912 0.017,0.375 0.034,0.733 0.051,1.09 -0.289,17.6 15.248,36.732 41.162,41.418 20.804,3.748 -16.679,-23.121 -1.788,-57.093 9.746,18.282 31.11,28.981 25.811,14.279 -4.685,-13.104 -3.492,-27.925 2.999,-39.699 8.791,16.136 26.102,24.006 20.325,10.309 -13.97,-33.173 44.536,-63.737 46.087,-64.522 0,0 -3.185,3.101 -8.552,9.387 24.329,-7.035 49.935,1.195 56.427,16.611 4.603,10.938 9.933,-2.792 6.372,-17.054 10.19,3.424 18.911,11.484 23.204,21.74 4.859,11.5 11.621,-6.336 7.481,-22.352 27.124,11.927 19.593,47.978 29.799,34.534 C -2.882,17.616 0,8.365 0,0"
         style="fill:#2794d8;fill-opacity:1;fill-rule:nonzero;stroke:none"
         id="path8598" /></g><g
       id="g8927"
       transform="translate(-32.652578,-70.354775)"><g
         id="g8574"
         transform="matrix(0.35277777,0,0,-0.35277777,101.54495,272.96155)"><path
           d="M 0,0 V -1.509 H -4.126 V -4.916 H 0 v -28.182 h 3.468 v 28.182 h 8.136 v 3.407 H 3.468 v 1.333 c 0,5.6 2.512,8.279 7.484,7.992 l 0.652,-0.041 v 3.223 l -0.559,0.048 C 4.233,11.669 0,7.3 0,0"
           style="fill:#586674;fill-opacity:1;fill-rule:nonzero;stroke:none"
           id="path8576" /></g><path
         d="m 433.575,281.982 h 3.408 v 45.093 h -3.408 z"
         style="fill:#586674;fill-opacity:1;fill-rule:nonzero;stroke:none"
         id="path8578"
         transform="matrix(0.35277777,0,0,-0.35277777,-46.065347,384.11481)" /><path
         d="m 442.299,317.477 h 3.411 v 6.646 h -3.411 z"
         style="fill:#2794d8;fill-opacity:1;fill-rule:nonzero;stroke:none"
         id="path8580"
         transform="matrix(0.35277777,0,0,-0.35277777,-46.065347,384.11481)" /><path
         d="m 442.299,281.982 h 3.411 v 31.589 h -3.411 z"
         style="fill:#586674;fill-opacity:1;fill-rule:nonzero;stroke:none"
         id="path8582"
         transform="matrix(0.35277777,0,0,-0.35277777,-46.065347,384.11481)" /><g
         id="g8584"
         transform="matrix(0.35277777,0,0,-0.35277777,118.04694,283.68474)"><path
           d="m 0,0 c -6.813,0 -12.355,5.832 -12.355,13.007 0,7.265 5.542,13.177 12.355,13.177 7.124,0 12.297,-5.542 12.297,-13.177 C 12.297,5.47 7.124,0 0,0 M 12.297,23.357 C 9.5,27.337 5.048,29.654 0,29.654 c -8.692,0 -15.765,-7.467 -15.765,-16.647 0,-9.087 7.073,-16.476 15.765,-16.476 5.038,0 9.493,2.305 12.297,6.258 v -4.052 c 0,-7.828 -4.78,-12.887 -12.179,-12.887 -5.526,0 -9.636,2.687 -11.269,7.372 l -0.145,0.413 h -3.554 l 0.232,-0.789 c 1.903,-6.514 7.413,-10.406 14.736,-10.406 9.323,0 15.588,6.549 15.588,16.297 v 30.151 h -3.409 z"
           style="fill:#586674;fill-opacity:1;fill-rule:nonzero;stroke:none"
           id="path8586" /></g><g
         id="g8588"
         transform="matrix(0.35277777,0,0,-0.35277777,130.38108,273.22338)"><path
           d="m 0,0 c -4.206,0 -7.883,-1.655 -10.349,-4.599 v 17.336 h -3.411 v -45.092 h 3.411 v 18.952 c 0,5.73 4.426,10.052 10.292,10.052 6.22,0 9.644,-3.57 9.644,-10.052 v -18.952 h 3.411 v 18.952 C 12.998,-5.136 8.017,0 0,0"
           style="fill:#586674;fill-opacity:1;fill-rule:nonzero;stroke:none"
           id="path8590" /></g><g
         id="g8592"
         transform="matrix(0.35277777,0,0,-0.35277777,141.16489,274.69579)"><path
           d="m 0,0 v 3.407 h -8.194 v 6.484 h -3.41 V 3.407 H -15.73 V 0 h 4.126 v -17.074 c 0,-3.31 0.887,-6.097 2.564,-8.06 1.733,-2.028 4.243,-3.103 7.256,-3.103 0.396,0 0.807,0.02 1.224,0.058 L 0,-28.131 v 3.206 l -0.64,-0.026 c -0.172,-0.008 -0.34,-0.012 -0.508,-0.012 -5.824,0 -7.046,4.293 -7.046,7.889 V 0 Z"
           style="fill:#586674;fill-opacity:1;fill-rule:nonzero;stroke:none"
           id="path8594" /></g></g><text
       xml:space="preserve"
       transform="matrix(0.4431633,0,0,0.45136224,-74.15684,-145.28618)"
       id="text11958"
       style="font-style:normal;font-variant:normal;font-weight:600;font-stretch:normal;font-size:48px;font-family:FreeSans;-inkscape-font-specification:'FreeSans, Semi-Bold';font-variant-ligatures:normal;font-variant-caps:normal;font-variant-numeric:normal;font-variant-east-asian:normal;white-space:pre;shape-inside:url(#rect11960);display:inline;fill:#5c1dff;fill-opacity:1;stroke:none;stroke-width:3.77953;stroke-linecap:square;stroke-linejoin:round;stroke-dasharray:none;stroke-opacity:1"><tspan
         x="414.67578"
         y="796.9625"
         id="tspan12590"><tspan
           style="fill:#586674"
           id="tspan12588">Solo</tspan></tspan></text></g></svg>
