<?xml version="1.0" encoding="UTF-8" standalone="no"?>
<!-- Created with Inkscape (http://www.inkscape.org/) -->

<svg
   version="1.1"
   id="svg148"
   width="344.93201"
   height="344.93399"
   viewBox="0 0 344.93199 344.93398"
   sodipodi:docname="solo_logo.svg"
   inkscape:version="1.2.2 (b0a8486, 2022-12-01)"
   xmlns:inkscape="http://www.inkscape.org/namespaces/inkscape"
   xmlns:sodipodi="http://sodipodi.sourceforge.net/DTD/sodipodi-0.dtd"
   xmlns:xlink="http://www.w3.org/1999/xlink"
   xmlns="http://www.w3.org/2000/svg"
   xmlns:svg="http://www.w3.org/2000/svg">
  <defs
     id="defs152">
    <linearGradient
       inkscape:collect="always"
       id="linearGradient9167">
      <stop
         style="stop-color:#1f5a88;stop-opacity:1;"
         offset="0"
         id="stop9163" />
      <stop
         style="stop-color:#61aee0;stop-opacity:1;"
         offset="1"
         id="stop9165" />
    </linearGradient>
    <linearGradient
       inkscape:collect="always"
       id="linearGradient506">
      <stop
         style="stop-color:#205885;stop-opacity:1;"
         offset="0"
         id="stop502" />
      <stop
         style="stop-color:#2693d7;stop-opacity:1;"
         offset="1"
         id="stop504" />
    </linearGradient>
    <clipPath
       clipPathUnits="userSpaceOnUse"
       id="clipPath164">
      <path
         d="M 0,800 H 800 V 0 H 0 Z"
         id="path162" />
    </clipPath>
    <linearGradient
       inkscape:collect="always"
       xlink:href="#linearGradient506"
       id="linearGradient508"
       x1="213.97331"
       y1="459.7533"
       x2="369.21674"
       y2="338.04837"
       gradientUnits="userSpaceOnUse" />
    <linearGradient
       inkscape:collect="always"
       xlink:href="#linearGradient506"
       id="linearGradient9130"
       gradientUnits="userSpaceOnUse"
       x1="213.97331"
       y1="459.7533"
       x2="369.21674"
       y2="338.04837"
       gradientTransform="translate(-7.6551938,244.81546)" />
    <linearGradient
       inkscape:collect="always"
       xlink:href="#linearGradient9167"
       id="linearGradient9169"
       x1="-294.56088"
       y1="1.5329264"
       x2="-14.859177"
       y2="1.5329264"
       gradientUnits="userSpaceOnUse" />
    <clipPath
       clipPathUnits="userSpaceOnUse"
       id="clipPath10195">
      <path
         d="m -22.583301,-20.854593 c 4.363505,7.501474 5.971502,15.4002649 4.579725,21.980123 -0.03996,0.2812519 -0.08442,0.5622992 -0.123301,0.8453995 -2.952203,14.5085195 -13.249766,26.1050385 -30.747836,34.6208915 -13.963804,6.79701 -36.633853,13.789174 -51.242317,13.937137 21.978146,8.002356 18.01184,24.648908 18.01184,24.648908 -1.758327,-0.906205 -5.745572,-1.770376 -11.043181,-2.606941 -18.309599,-1.215881 -43.523969,3.135048 -43.523969,3.135048 l -22.50735,-10.003402 -14.44898,-1.536454 c -23.51191,-2.340167 -34.89537,-3.799309 -57.94822,-11.406592 -25.48483,-8.392239 -43.56754,-21.462398 -53.96013,-38.944887 -0.18677,-0.353124 -0.36448,-0.690523 -0.54159,-1.027033 -9.69699,-16.1267362 -6.67482,-40.162935 12.98283,-55.124005 15.78884,-11.997995 -1.85759,28.186876 29.12414,53.432465 -1.47659,-20.8748629 11.05933,-39.518684 14.41889,-23.773444 3.02696,14.0182479 12.00537,27.208853 23.88111,35.412556 -1.14153,-18.5020755 9.44532,-32.87119 11.85628,-17.8574078 5.85747,36.3533428 72.32909,40.5525598 74.07771,40.6405728 0,0 -4.39026,-1.555118 -12.35765,-5.154541 24.5946,-3.491699 42.085887,-21.597581 39.363768,-38.4915086 -1.934161,-11.9852984 9.998359,-1.49964327 14.608823,13.1261496 6.8808,-7.342692 10.015501,-18.3616326 8.182254,-29.590193 -2.016852,-12.609111 13.345543,1.078779 18.402328,17.5612071 16.805195,-22.1413541 -8.995103,-52.3266431 6.956063,-44.1062091 10.074455,5.204887 17.507474,12.561006 21.998763,20.28216"
         style="fill:#1a1a1a;fill-opacity:1;fill-rule:nonzero;stroke:none;stroke-width:1.00507"
         id="path10197" />
    </clipPath>
    <linearGradient
       inkscape:collect="always"
       xlink:href="#linearGradient506"
       id="linearGradient10199"
       gradientUnits="userSpaceOnUse"
       x1="213.97331"
       y1="459.7533"
       x2="369.21674"
       y2="338.04837" />
    <linearGradient
       inkscape:collect="always"
       xlink:href="#linearGradient506"
       id="linearGradient10201"
       gradientUnits="userSpaceOnUse"
       x1="213.97331"
       y1="459.7533"
       x2="369.21674"
       y2="338.04837" />
    <linearGradient
       inkscape:collect="always"
       xlink:href="#linearGradient506"
       id="linearGradient10203"
       gradientUnits="userSpaceOnUse"
       x1="213.97331"
       y1="459.7533"
       x2="369.21674"
       y2="338.04837" />
  </defs>
  <sodipodi:namedview
     id="namedview150"
     pagecolor="#505050"
     bordercolor="#eeeeee"
     borderopacity="1"
     inkscape:showpageshadow="0"
     inkscape:pageopacity="0"
     inkscape:pagecheckerboard="0"
     inkscape:deskcolor="#505050"
     showgrid="false"
     inkscape:zoom="0.8353124"
     inkscape:cx="187.35505"
     inkscape:cy="213.69251"
     inkscape:window-width="1846"
     inkscape:window-height="1136"
     inkscape:window-x="74"
     inkscape:window-y="27"
     inkscape:window-maximized="1"
     inkscape:current-layer="g206">
    <inkscape:page
       x="0"
       y="0"
       id="page154"
       width="344.93198"
       height="344.93399" />
  </sodipodi:namedview>
  <g
     id="g156"
     inkscape:groupmode="layer"
     inkscape:label="Page 1"
     transform="matrix(1.3333333,0,0,-1.3333333,-348.1343,746.28916)">
    <g
       id="g158"
       style="fill:url(#linearGradient508);fill-opacity:1"
       inkscape:export-filename="solo_logo.png"
       inkscape:export-xdpi="96"
       inkscape:export-ydpi="96">
      <g
         id="g160"
         clip-path="url(#clipPath164)"
         style="fill:url(#linearGradient10203);fill-opacity:1">
        <g
           id="g206"
           transform="translate(529.3506,412.5488)"
           style="fill:url(#linearGradient10201);fill-opacity:1">
          <g
             id="g10187"
             style="fill:url(#linearGradient10199)"
             transform="translate(3.8707662e-6,-40.6059)">
            <rect
               style="display:none;fill:#ffffff;fill-opacity:1;stroke:none;stroke-width:0.25425;stroke-dasharray:none"
               id="rect10300"
               width="318.40414"
               height="286.85083"
               x="-299.94809"
               y="-202.47964"
               transform="scale(1,-1)" />
            <path
               style="fill:url(#linearGradient9169);fill-opacity:1;stroke:none;stroke-width:0.255539;stroke-dasharray:none"
               id="path9126"
               transform="matrix(0.91374223,-0.40629439,-0.53151137,-0.84705116,0,0)"
               sodipodi:type="arc"
               sodipodi:cx="-154.71002"
               sodipodi:cy="1.5329264"
               sodipodi:rx="139.85085"
               sodipodi:ry="87.764786"
               sodipodi:start="2.980681"
               sodipodi:end="2.9803479"
               sodipodi:open="true"
               sodipodi:arc-type="chord"
               d="M -292.75422,15.594438 A 139.85085,87.764786 0 0 1 -177.12816,-85.09691 139.85085,87.764786 0 0 1 -16.669555,-12.543013 139.85085,87.764786 0 0 1 -132.26889,88.160419 139.85085,87.764786 0 0 1 -292.74675,15.623294 Z"
               clip-path="url(#clipPath10195)" />
          </g>
          <path
             d="m -7.6551938,244.81546 c 0,-8.127 -2.7290002,-15.471 -7.4980002,-20.479 -0.186,-0.222 -0.376,-0.442 -0.562,-0.666 -10.409,-11.09 -25.982,-16.729 -46.497,-16.833 -16.372,-0.084 -40.802996,3.204 -54.229996,9.014 15.829,-15.708 3.357,-28.197 3.357,-28.197 -1.125,1.482 -4.309,3.834 -8.705,6.695 -16.084,8.469 -41.436,15.028 -41.436,15.028 l -15.249,17.618 -12.386,7.172 c -20.24,11.535 -29.866,17.396 -46.887,33.206 -18.826,17.463 -28.402,35.881 -28.606,54.912 0.017,0.375 0.034,0.733 0.051,1.09 -0.289,17.6 15.248,36.732 41.162,41.418 20.804,3.748 -16.679,-23.121 -1.788,-57.093 9.746,18.282 31.11,28.981 25.811,14.279 -4.685,-13.104 -3.492,-27.925 2.999,-39.699 8.791,16.136 26.102,24.006 20.325,10.309 -13.97,-33.173 44.536,-63.737 46.087,-64.522 0,0 -3.185,3.101 -8.552,9.387 24.329,-7.035 49.934996,1.195 56.426996,16.611 4.603,10.938 9.933,-2.792 6.372,-17.054 10.19,3.424 18.911,11.484 23.204,21.74 4.859,11.5 11.621,-6.336 7.481,-22.352 27.124,11.927 19.593,47.978 29.799,34.534 6.439,-8.502 9.3210002,-17.753 9.3210002,-26.118"
             style="display:none;fill:url(#linearGradient9130);fill-opacity:1;fill-rule:nonzero;stroke:none"
             id="path208" />
        </g>
      </g>
    </g>
  </g>
</svg>
