<?xml version="1.0" encoding="UTF-8" standalone="no"?>
<!-- Created with Inkscape (http://www.inkscape.org/) -->

<svg
   version="1.1"
   id="svg12069"
   width="463.69812"
   height="463.69812"
   viewBox="0 0 463.69812 463.69812"
   sodipodi:docname="web_suite.svg"
   inkscape:version="1.2.2 (b0a8486, 2022-12-01)"
   xmlns:inkscape="http://www.inkscape.org/namespaces/inkscape"
   xmlns:sodipodi="http://sodipodi.sourceforge.net/DTD/sodipodi-0.dtd"
   xmlns:xlink="http://www.w3.org/1999/xlink"
   xmlns="http://www.w3.org/2000/svg"
   xmlns:svg="http://www.w3.org/2000/svg">
  <defs
     id="defs12073">
    <linearGradient
       inkscape:collect="always"
       id="linearGradient12714">
      <stop
         style="stop-color:#2383c2;stop-opacity:1;"
         offset="0"
         id="stop12710" />
      <stop
         style="stop-color:#3ddcd7;stop-opacity:1;"
         offset="1"
         id="stop12712" />
    </linearGradient>
    <linearGradient
       inkscape:collect="always"
       xlink:href="#linearGradient12714"
       id="linearGradient12716"
       x1="338.65979"
       y1="385.60379"
       x2="126.69138"
       y2="79.529045"
       gradientUnits="userSpaceOnUse"
       gradientTransform="translate(89.644788,-170.65783)" />
    <clipPath
       clipPathUnits="userSpaceOnUse"
       id="clipPath13289">
      <path
         id="path13291"
         style="color:#000000;fill:#000000;-inkscape-stroke:none"
         d="m 216.33617,-91.128787 c -7.64734,5.316014 -14.98892,11.277354 -21.94899,17.883404 -74.24073,70.4645192 -77.31429,188.041133 -6.85596,262.287733 l 0.001,0.002 0.0411,0.0429 0.001,0.002 c 70.48289,74.223 188.06122,77.2672 262.29021,6.79033 74.229,-70.47688 77.28222,-188.055672 6.81152,-262.29052 -61.66186,-64.95551 -159.38989,-75.4222 -232.59401,-29.817755 -2.61443,1.628728 -5.19702,3.328603 -7.74613,5.100608 z m 36.24582,-0.06549 c 42.0298,-19.197204 90.17394,-19.998834 132.60773,-2.760649 l -46.98133,32.526566 c -25.89371,-15.435351 -54.9845,-25.632456 -85.6264,-29.765917 z m -50.14877,35.314452 c -6.89271,29.936042 -7.63083,60.5740763 -2.39982,90.108186 l -45.4591,31.472377 c -1.13654,-43.87581 14.92593,-87.999991 47.85892,-121.580563 z m 20.73241,-9.778524 39.20262,56.7334822 -46.32728,32.0712708 c -3.99812,-29.2671468 -1.71004,-59.520736 7.12466,-88.804753 z m 16.53558,-9.312161 c 29.428,2.484998 57.46286,10.957484 82.53241,24.599391 l -44.32846,30.689848 z m 163.86307,-10.188768 c 14.49271,8.075997 28.03463,18.447176 40.0708,31.12624 3.56037,3.750562 6.88078,7.638608 10.02689,11.616362 l -53.0575,36.6613914 C 387.3352,-23.197051 371.65653,-38.368022 354.15867,-50.95653 Z m -64.75157,44.826629 c 17.96679,12.111526 34.01234,27.057668 47.40412,44.5196125 L 324.07104,47.128602 287.96233,-5.1285147 Z M 272.42382,5.6289874 308.52371,57.873195 244.31131,102.24247 C 232.75465,83.552337 224.45168,63.301668 219.50633,42.26347 Z M 204.16521,52.884052 c 5.55842,20.760702 14.17206,40.747562 25.75041,59.306168 l -51.38572,35.50761 c -11.60842,-19.23368 -18.98441,-40.23324 -22.169,-61.719122 z m 260.39357,-79.859521 c 13.3514,21.4626668 21.35834,45.220838 24.09094,69.431384 L 439.44313,76.520638 C 433.90091,53.069463 424.5158,30.504222 411.39747,9.7590301 Z m -67.55701,46.682258 c 13.1195,20.907893 22.06095,43.826129 26.84099,67.61587 l -48.70204,33.716071 -40.3267,-58.361701 z m -77.73618,53.713222 40.3366,58.376229 -50.84714,35.20193 c -20.59116,-12.9301 -38.85983,-29.46638 -53.76208,-49.16547 z m -78.66135,54.353329 c 14.76524,19.65504 32.57683,36.46424 52.59938,49.99113 l -47.36271,32.78891 c -16.43833,-8.41555 -31.77571,-19.68127 -45.22738,-33.84673 l -0.04,-0.0412 c -4.07766,-4.2969 -7.87421,-8.75588 -11.40829,-13.3481 z M 489.67737,63.260683 c -0.4983,42.994777 -17.473,85.730537 -50.66569,118.052517 6.86339,-28.43589 8.16732,-57.54564 4.04852,-85.778902 z m -62.84151,43.505707 c 2.67459,26.07244 0.33261,52.80259 -7.08723,78.82789 l -34.55073,-50.0028 z m -57.17649,39.5826 35.94757,52.02421 c -28.25645,-1.94596 -55.269,-9.48153 -79.70319,-21.73195 z m -59.98692,41.53147 c 24.64944,13.69553 51.98255,22.77115 80.66703,26.52335 -39.78388,17.76137 -84.8912,19.15523 -125.41238,4.45302 z" />
    </clipPath>
  </defs>
  <sodipodi:namedview
     id="namedview12071"
     pagecolor="#505050"
     bordercolor="#eeeeee"
     borderopacity="1"
     inkscape:showpageshadow="0"
     inkscape:pageopacity="0"
     inkscape:pagecheckerboard="0"
     inkscape:deskcolor="#505050"
     showgrid="false"
     inkscape:zoom="0.96075438"
     inkscape:cx="142.07586"
     inkscape:cy="110.85039"
     inkscape:window-width="1846"
     inkscape:window-height="1136"
     inkscape:window-x="74"
     inkscape:window-y="27"
     inkscape:window-maximized="1"
     inkscape:current-layer="g12075" />
  <g
     inkscape:groupmode="layer"
     inkscape:label="Image"
     id="g12075">
    <rect
       style="display:inline;fill:none;fill-opacity:1;stroke:none;stroke-width:18.8976;stroke-dasharray:none;stroke-opacity:1"
       id="rect13078"
       width="463.69812"
       height="463.69812"
       x="0"
       y="0" />
    <g
       id="g12682">
      <path
         style="display:inline;fill:url(#linearGradient12716);fill-opacity:1;stroke:none;stroke-width:17.7106;stroke-dasharray:none;stroke-opacity:1"
         id="path12684"
         sodipodi:type="arc"
         sodipodi:cx="321.49387"
         sodipodi:cy="60.003738"
         sodipodi:rx="187.63164"
         sodipodi:ry="188.45766"
         sodipodi:start="2.980681"
         sodipodi:end="2.9803479"
         sodipodi:open="true"
         sodipodi:arc-type="chord"
         d="M 136.28612,90.198075 A 187.63164,188.45766 0 0 1 291.41645,-126.01684 187.63164,188.45766 0 0 1 506.6966,29.77842 187.63164,188.45766 0 0 1 351.60213,246.01928 187.63164,188.45766 0 0 1 136.29615,90.260038 Z"
         transform="rotate(34.280825)"
         clip-path="url(#clipPath13289)" />
    </g>
  </g>
</svg>
