<?xml version="1.0" encoding="UTF-8" standalone="no"?>
<!-- Created with Inkscape (http://www.inkscape.org/) -->

<svg
   width="190.6225mm"
   height="13.424885mm"
   viewBox="0 0 190.6225 13.424885"
   version="1.1"
   id="svg19189"
   inkscape:version="1.2.2 (b0a8486, 2022-12-01)"
   sodipodi:docname="cloud_bar.svg"
   inkscape:export-filename="../../../code/mkdocs-test/docs/assets/images/cloud_bar.png"
   inkscape:export-xdpi="287.04483"
   inkscape:export-ydpi="287.04483"
   xmlns:inkscape="http://www.inkscape.org/namespaces/inkscape"
   xmlns:sodipodi="http://sodipodi.sourceforge.net/DTD/sodipodi-0.dtd"
   xmlns="http://www.w3.org/2000/svg"
   xmlns:svg="http://www.w3.org/2000/svg">
  <sodipodi:namedview
     id="namedview19191"
     pagecolor="#505050"
     bordercolor="#eeeeee"
     borderopacity="1"
     inkscape:showpageshadow="0"
     inkscape:pageopacity="0"
     inkscape:pagecheckerboard="0"
     inkscape:deskcolor="#505050"
     inkscape:document-units="mm"
     showgrid="false"
     inkscape:zoom="0.84096521"
     inkscape:cx="126.6402"
     inkscape:cy="45.780729"
     inkscape:window-width="1846"
     inkscape:window-height="1136"
     inkscape:window-x="74"
     inkscape:window-y="27"
     inkscape:window-maximized="1"
     inkscape:current-layer="layer1" />
  <defs
     id="defs19186" />
  <g
     inkscape:label="Layer 1"
     inkscape:groupmode="layer"
     id="layer1"
     transform="translate(349.52311,121.15778)">
    <path
       id="rect17180"
       style="fill:#f5fcff;fill-opacity:1;stroke-width:0.500996"
       d="M -175.55698 -121.15416 A 9.2326639 9.797957 50.264577 0 0 -176.18692 -121.15055 A 9.2326639 9.797957 50.264577 0 0 -182.4992 -118.60031 A 9.2326639 9.797957 50.264577 0 0 -184.21434 -116.64488 A 7.3773534 6.4795656 0 0 0 -189.31273 -118.35588 A 7.3773534 6.4795656 0 0 0 -190.36125 -118.2732 A 7.3773534 6.4795656 0 0 0 -194.20443 -116.59992 C -195.77821 -118.19271 -197.89577 -119.15989 -200.17977 -119.32275 L -200.18029 -119.32275 C -202.02118 -119.45086 -203.88004 -119.05017 -205.53552 -118.1683 C -206.92147 -117.4207 -208.34219 -116.18608 -209.25622 -114.89356 C -211.60816 -117.86356 -215.17608 -119.57306 -218.93418 -119.5155 C -219.51489 -119.5047 -220.09411 -119.45171 -220.66741 -119.35686 C -223.87824 -118.81492 -226.81836 -116.90314 -228.70103 -114.20162 C -228.93179 -114.21678 -229.18801 -114.22617 -229.38884 -114.22487 C -229.71116 -114.21987 -230.03234 -114.19691 -230.35054 -114.15511 C -231.52339 -113.99722 -232.62366 -113.59235 -233.54104 -112.98205 A 6.8465035 6.0023861 0 0 0 -239.12778 -115.38707 A 6.8465035 6.0023861 0 0 0 -240.10085 -115.31059 A 6.8465035 6.0023861 0 0 0 -244.44477 -112.9991 C -246.68642 -117.39076 -252.12128 -121.13347 -258.02224 -121.10817 C -261.79289 -121.15623 -265.60164 -119.39471 -268.08622 -117.29497 A 9.175458 8.429573 0 0 0 -272.92779 -118.47577 A 9.175458 8.429573 0 0 0 -274.23158 -118.36829 A 9.175458 8.429573 0 0 0 -276.35497 -117.78589 A 7.3164133 7.1597696 0 0 0 -277.5058 -117.86754 A 7.3164133 7.1597696 0 0 0 -278.54553 -117.77607 A 7.3164133 7.1597696 0 0 0 -281.36706 -116.70482 C -283.66943 -119.29444 -287.55067 -120.75735 -291.82121 -120.63533 C -293.57878 -120.58213 -295.33983 -120.26166 -297.00435 -119.69224 C -300.67387 -118.42893 -303.43068 -115.69757 -305.32064 -113.03269 C -306.56256 -114.44229 -308.69247 -115.36295 -310.96164 -115.33126 C -311.28383 -115.32626 -311.60474 -115.30143 -311.92282 -115.25633 C -313.57885 -115.01737 -315.07235 -114.24976 -316.11481 -113.10556 A 5.1650727 4.9463933 0 0 0 -319.78281 -114.49824 A 5.1650727 4.9463933 0 0 0 -320.51713 -114.43468 A 5.1650727 4.9463933 0 0 0 -320.85251 -114.36026 A 10.525827 8.420175 2.7773286 0 0 -330.485 -119.74805 L -330.48551 -119.74805 A 10.525827 8.420175 2.7773286 0 0 -331.9831 -119.69689 A 10.525827 8.420175 2.7773286 0 0 -339.05553 -116.41285 A 7.8812751 6.6853405 0 0 0 -344.95336 -118.53778 A 7.8812751 6.6853405 0 0 0 -346.07319 -118.45304 A 7.8812751 6.6853405 0 0 0 -349.52311 -117.19213 L -349.52311 -107.90846 L -349.52053 -107.90846 L -349.52053 -107.73276 L -158.90167 -107.73276 L -158.90167 -107.90536 L -158.90064 -107.90536 L -158.90064 -119.4261 C -159.76966 -119.57301 -160.66177 -119.63764 -161.55422 -119.61834 C -162.00008 -119.60834 -162.4446 -119.57817 -162.88489 -119.52687 C -164.84589 -119.29429 -166.98811 -118.45501 -168.48817 -117.46912 A 9.2326639 9.797957 50.264577 0 0 -169.02095 -118.16158 A 9.2326639 9.797957 50.264577 0 0 -175.55698 -121.15416 z " />
  </g>
</svg>
