<?xml version="1.0" encoding="UTF-8" standalone="no"?>
<!-- Created with Inkscape (http://www.inkscape.org/) -->

<svg
   version="1.1"
   id="svg186"
   width="1088.8191"
   height="1146.0205"
   viewBox="0 0 1088.8191 1146.0205"
   sodipodi:docname="OF_home_narrow.svg"
   inkscape:version="1.2.2 (b0a8486, 2022-12-01)"
   xmlns:inkscape="http://www.inkscape.org/namespaces/inkscape"
   xmlns:sodipodi="http://sodipodi.sourceforge.net/DTD/sodipodi-0.dtd"
   xmlns:xlink="http://www.w3.org/1999/xlink"
   xmlns="http://www.w3.org/2000/svg"
   xmlns:svg="http://www.w3.org/2000/svg">
  <defs
     id="defs190">
    <linearGradient
       inkscape:collect="always"
       id="linearGradient3144">
      <stop
         style="stop-color:#8ed2ed;stop-opacity:1;"
         offset="0"
         id="stop3140" />
      <stop
         style="stop-color:#8ed2ed;stop-opacity:0.36000001;"
         offset="1"
         id="stop3142" />
    </linearGradient>
    <linearGradient
       inkscape:collect="always"
       id="linearGradient2955">
      <stop
         style="stop-color:#0096d5;stop-opacity:1;"
         offset="0"
         id="stop2951" />
      <stop
         style="stop-color:#0096d5;stop-opacity:0.2;"
         offset="1"
         id="stop2953" />
    </linearGradient>
    <linearGradient
       inkscape:collect="always"
       id="linearGradient2433">
      <stop
         style="stop-color:#c2e5f6;stop-opacity:1;"
         offset="0"
         id="stop2429" />
      <stop
         style="stop-color:#c9e7f6;stop-opacity:0.35790312;"
         offset="1"
         id="stop2431" />
    </linearGradient>
    <clipPath
       clipPathUnits="userSpaceOnUse"
       id="clipPath214">
      <path
         d="M 0,1463.715 H 1063.904 V 0 H 0 Z"
         id="path212" />
    </clipPath>
    <clipPath
       clipPathUnits="userSpaceOnUse"
       id="clipPath222">
      <path
         d="M 544.187,458.956 H 882.842 V 262.474 H 544.187 Z"
         id="path220" />
    </clipPath>
    <clipPath
       clipPathUnits="userSpaceOnUse"
       id="clipPath334">
      <path
         d="M 292.696,264.571 H 631.35 V 68.1196 H 292.696 Z"
         id="path332" />
    </clipPath>
    <clipPath
       clipPathUnits="userSpaceOnUse"
       id="clipPath354">
      <path
         d="M 67.0859,456.343 H 405.741 V 259.86 H 67.0859 Z"
         id="path352" />
    </clipPath>
    <linearGradient
       x1="0"
       y1="0"
       x2="1"
       y2="0"
       gradientUnits="userSpaceOnUse"
       gradientTransform="matrix(73.856605,0,0,-73.856605,241.243,647.61298)"
       spreadMethod="pad"
       id="linearGradient420">
      <stop
         style="stop-opacity:1;stop-color:#873b8d"
         offset="0"
         id="stop412" />
      <stop
         style="stop-opacity:1;stop-color:#873b8d"
         offset="0.0353535"
         id="stop414" />
      <stop
         style="stop-opacity:1;stop-color:#873b8d"
         offset="0.19184469"
         id="stop416" />
      <stop
         style="stop-opacity:1;stop-color:#d46ea7"
         offset="1"
         id="stop418" />
    </linearGradient>
    <clipPath
       clipPathUnits="userSpaceOnUse"
       id="clipPath430">
      <path
         d="M 0,1463.715 H 1063.904 V 0 H 0 Z"
         id="path428" />
    </clipPath>
    <linearGradient
       x1="0"
       y1="0"
       x2="1"
       y2="0"
       gradientUnits="userSpaceOnUse"
       gradientTransform="matrix(75.511276,0,0,-75.511276,193.36829,641.5166)"
       spreadMethod="pad"
       id="linearGradient502">
      <stop
         style="stop-opacity:1;stop-color:#873b8d"
         offset="0"
         id="stop494" />
      <stop
         style="stop-opacity:1;stop-color:#873b8d"
         offset="0.0353535"
         id="stop496" />
      <stop
         style="stop-opacity:1;stop-color:#873b8d"
         offset="0.19184469"
         id="stop498" />
      <stop
         style="stop-opacity:1;stop-color:#d46ea7"
         offset="1"
         id="stop500" />
    </linearGradient>
    <clipPath
       clipPathUnits="userSpaceOnUse"
       id="clipPath512">
      <path
         d="M 0,1463.715 H 1063.904 V 0 H 0 Z"
         id="path510" />
    </clipPath>
    <clipPath
       clipPathUnits="userSpaceOnUse"
       id="clipPath616">
      <path
         d="m 466.376,464.257 h 31.778 v -97.672 h -31.778 z"
         id="path614" />
    </clipPath>
    <clipPath
       clipPathUnits="userSpaceOnUse"
       id="clipPath632">
      <path
         d="m 425.547,464.798 h 38.163 v -95.92 h -38.163 z"
         id="path630" />
    </clipPath>
    <clipPath
       clipPathUnits="userSpaceOnUse"
       id="clipPath684">
      <path
         d="m 471.828,418.021 h 23.794 v -4.467 h -23.794 z"
         id="path682" />
    </clipPath>
    <linearGradient
       inkscape:collect="always"
       xlink:href="#linearGradient2433"
       id="linearGradient2435"
       x1="318.71735"
       y1="-950.96448"
       x2="318.71735"
       y2="-1074.6527"
       gradientUnits="userSpaceOnUse"
       gradientTransform="matrix(1,0,0,2.9881172,-301.68729,2366.9431)" />
    <linearGradient
       inkscape:collect="always"
       xlink:href="#linearGradient2955"
       id="linearGradient2603"
       gradientUnits="userSpaceOnUse"
       x1="318.71735"
       y1="-950.96448"
       x2="318.71735"
       y2="-1074.6527"
       gradientTransform="matrix(1.0045246,0,1.511353e-8,4.4180359,-303.51124,3544.6058)" />
    <linearGradient
       inkscape:collect="always"
       xlink:href="#linearGradient3144"
       id="linearGradient3068"
       gradientUnits="userSpaceOnUse"
       x1="318.71735"
       y1="-950.96448"
       x2="318.71735"
       y2="-1074.6527"
       gradientTransform="matrix(1,0,-1.1585265e-8,6.2583319,-301.94689,4995.2317)" />
  </defs>
  <sodipodi:namedview
     id="namedview188"
     pagecolor="#505050"
     bordercolor="#eeeeee"
     borderopacity="1"
     inkscape:showpageshadow="0"
     inkscape:pageopacity="0"
     inkscape:pagecheckerboard="0"
     inkscape:deskcolor="#505050"
     showgrid="false"
     inkscape:zoom="0.45654537"
     inkscape:cx="550.87625"
     inkscape:cy="421.64484"
     inkscape:window-width="1846"
     inkscape:window-height="1136"
     inkscape:window-x="74"
     inkscape:window-y="27"
     inkscape:window-maximized="1"
     inkscape:current-layer="g194">
    <inkscape:page
       x="0"
       y="0"
       id="page192"
       width="1088.8191"
       height="1146.0205" />
  </sodipodi:namedview>
  <g
     id="g194"
     inkscape:groupmode="layer"
     inkscape:label="Page 1"
     transform="matrix(1.3333333,0,0,-1.3333333,-88.680958,1235.7377)">
    <g
       id="g196"
       transform="matrix(1.1548182,-0.01363646,0.02480526,0.63485087,299.09604,387.61658)">
      <path
         d="M 1.241956e-4,-0.00578197 32.768,0.666 23.161895,477.80901 -9.6059844,477.13637 Z"
         style="fill:#c2e5f6;fill-opacity:1;fill-rule:nonzero;stroke:none;stroke-width:0.920417"
         id="path198" />
      <rect
         style="fill:url(#linearGradient2435);fill-opacity:1;stroke-width:44.1002;stroke-linecap:round;stroke-linejoin:round"
         id="rect2404"
         width="32.774765"
         height="369.59494"
         x="0.64268112"
         y="-844.24518"
         transform="matrix(0.99976939,0.02147483,0.02147484,-0.99976939,0,0)" />
    </g>
    <g
       id="g200"
       transform="matrix(1.1419405,-0.00654013,0.02400425,0.31112971,601.04706,388.33613)">
      <path
         d="M -3.4262794e-4,0.01629964 32.768,0.666 12.845582,966.65301 -19.921746,966.00158 Z"
         style="fill:#8ed2ed;fill-opacity:1;fill-rule:nonzero;stroke:none;stroke-width:1.30963"
         id="path202" />
      <rect
         style="fill:url(#linearGradient3068);fill-opacity:1;stroke-width:63.822;stroke-linecap:round;stroke-linejoin:round"
         id="rect2404-5"
         width="32.774765"
         height="774.08197"
         x="0.3830747"
         y="-1730.3016"
         transform="matrix(0.99977914,0.02101595,0.02101594,-0.99977914,0,0)" />
    </g>
    <g
       id="g204"
       transform="matrix(1.1542137,-0.01167155,0.02416352,0.55751328,441.86965,253.57939)">
      <path
         d="M -7.1561283e-5,0.00341825 32.768,0.666 19.295787,660.19297 -13.47128,659.52922 Z"
         style="fill:#0096d5;fill-opacity:1;fill-rule:nonzero;stroke:none;stroke-width:1.08212"
         id="path206" />
      <rect
         style="fill:url(#linearGradient2603);fill-opacity:1;stroke-width:53.7448;stroke-linecap:round;stroke-linejoin:round"
         id="rect2404-7"
         width="32.923058"
         height="546.45898"
         x="0.18667462"
         y="-1203.2483"
         transform="matrix(0.99978093,0.02093044,0.02093046,-0.99978093,0,0)" />
    </g>
    <g
       id="g208"
       style="display:inline">
      <g
         id="g210"
         clip-path="url(#clipPath214)">
        <g
           id="g216">
          <g
             id="g218" />
          <g
             id="g234">
            <g
               clip-path="url(#clipPath222)"
               id="g232"
               style="display:inline">
              <g
                 transform="translate(880.4977,360.7304)"
                 id="g226">
                <path
                   d="m 0,0 c 0,4.935 -3.373,9.624 -9.583,13.161 l -133.422,77.034 c -13.202,7.65 -34.713,7.65 -47.956,0 L -324.383,13.161 c -6.169,-3.537 -9.583,-8.226 -9.583,-13.161 0,-4.935 3.414,-9.624 9.583,-13.161 l 133.422,-77.035 c 13.243,-7.649 34.754,-7.649 47.956,0 L -9.583,-13.161 C -3.373,-9.624 0,-4.935 0,0 M -8.39,15.177 C -1.481,11.187 2.344,5.799 2.344,0 c 0,-5.799 -3.825,-11.187 -10.734,-15.177 l -133.422,-77.075 c -6.951,-3.989 -16.04,-6.005 -25.171,-6.005 -9.09,0 -18.22,2.016 -25.13,6.005 l -133.422,77.075 c -6.95,3.99 -10.775,9.378 -10.775,15.177 0,5.799 3.825,11.187 10.775,15.177 l 133.422,77.034 c 13.861,8.02 36.399,8.02 50.301,0 z"
                   style="fill:#af579d;fill-opacity:1;fill-rule:nonzero;stroke:none"
                   id="path224" />
              </g>
              <g
                 transform="matrix(1.0067832,0,0,1.0094662,871.66667,374.27072)"
                 id="g230"
                 style="display:inline">
                <path
                   d="M 0,0 C 6.21,-3.537 9.583,-8.226 9.583,-13.161 9.583,-18.097 6.21,-22.785 0,-26.322 l -133.422,-77.035 c -13.202,-7.65 -34.713,-7.65 -47.956,0 L -314.8,-26.322 c -6.169,3.537 -9.583,8.225 -9.583,13.161 0,4.935 3.414,9.624 9.583,13.161 l 133.422,77.034 c 13.243,7.65 34.754,7.65 47.956,0 z"
                   style="fill:#af579d;fill-opacity:1;fill-rule:nonzero;stroke:none"
                   id="path228" />
              </g>
            </g>
          </g>
        </g>
        <g
           id="g236"
           transform="translate(838.5583,398.5168)">
          <path
             d="m 0,0 c -0.619,-4.325 -26.601,-22.521 -31.718,-26.157 -4.107,-2.917 -7.677,-4.256 -13.885,-6.59 h -0.004 c -14.106,-3.709 -102.618,-30.121 -102.618,-30.121 -0.233,0.9 -0.359,1.68 -0.879,2.692 -3.304,-1.318 -6.704,-2.171 -8.865,-2.847 -3.296,-1.03 -29.452,-1.853 -34.807,-2.884 -5.354,-1.029 -16.065,-2.677 -20.389,1.442 -4.325,4.119 2.676,12.976 8.649,15.241 5.973,2.266 27.804,2.883 31.718,3.296 3.913,0.412 9.062,1.853 11.533,1.029 0.781,-0.259 4.233,0.754 8.591,2.26 -0.108,1.604 -0.134,2.615 -0.134,2.615 l 23.24,6.7 -4.304,41.15 c 0,0 10.11,38.102 50.509,9.035 0,0 9.011,-2.65 12.102,-3.474 0.217,-0.058 0.566,-0.066 1.034,-0.029 6.161,0.464 32.643,8.473 42.217,8.473 10.298,0 13.593,0.618 17.299,-1.236 C -7.003,18.742 0.617,4.325 0,0"
             style="fill:#5c83c2;fill-opacity:1;fill-rule:nonzero;stroke:none"
             id="path238" />
        </g>
        <g
           id="g240"
           transform="translate(797.1722,334.0521)">
          <path
             d="m 0,0 c -4.324,-4.119 -15.034,-2.471 -20.39,-1.442 -5.354,1.03 -31.51,1.854 -34.805,2.884 -3.295,1.03 -9.474,2.471 -13.8,5.355 -0.347,0.232 -1.143,0.578 -2.31,1.015 0,0 -0.003,-0.002 -0.005,-0.004 l -6.542,-4.718 -90.943,28.948 c -5.448,1.494 -9.772,3.768 -12.652,6.27 -4.736,4.119 -31.099,21.831 -31.718,26.157 -0.617,4.325 7.003,18.742 10.711,20.595 3.706,1.853 7.001,1.236 17.299,1.236 10.299,0 40.163,-9.268 43.251,-8.444 1.406,0.374 4.313,1.855 7.07,3.361 3.303,1.804 6.385,3.641 6.385,3.641 44.234,19.745 49.156,-12.563 49.156,-12.563 l -2.618,-39.888 c 0,0 3.687,-1.829 8.482,-4.107 l 21.924,-6.195 -2.871,-2.071 c 1.24,-0.4 2.119,-0.584 2.476,-0.464 2.471,0.824 7.62,-0.618 11.533,-1.029 3.914,-0.413 25.745,-1.03 31.718,-3.296 C -2.676,12.975 4.325,4.119 0,0"
             style="fill:#5c83c2;fill-opacity:1;fill-rule:nonzero;stroke:none"
             id="path242" />
        </g>
        <g
           id="g244"
           transform="translate(662.338,415.2653)">
          <path
             d="M 0,0 C 3.05,-0.215 23.66,-12.152 28.552,-15.006 21.118,-11.124 -7.069,-3.362 -7.069,-3.362 -5.664,-2.987 -2.757,-1.506 0,0"
             style="fill:#5679b4;fill-opacity:1;fill-rule:nonzero;stroke:none"
             id="path246" />
        </g>
        <g
           id="g248"
           transform="translate(768.3327,411.8729)">
          <path
             d="m 0,0 c 0,0 -35.507,-8.616 -42.005,-12.221 0.295,0.213 18.712,14.207 28.381,16.074 0,0 9.498,-2.998 12.588,-3.822 0.218,-0.058 0.567,-0.066 1.035,-0.029 z"
             style="fill:#5679b4;fill-opacity:1;fill-rule:nonzero;stroke:none"
             id="path250" />
        </g>
        <g
           id="g252"
           transform="translate(797.1722,334.0521)">
          <path
             d="m 0,0 c -4.324,-4.119 -15.034,-2.471 -20.39,-1.442 -5.354,1.03 -31.51,1.854 -34.805,2.884 -0.949,0.296 -2.132,0.626 -3.445,1.013 0,0.002 -10e-4,0.002 -10e-4,0.002 -3.25,0.962 -7.273,2.286 -10.354,4.34 -0.347,0.232 -1.143,0.578 -2.31,1.015 l 16.457,11.877 0.472,0.341 c 1.24,-0.4 2.119,-0.584 2.476,-0.464 2.471,0.824 7.62,-0.618 11.533,-1.029 3.914,-0.413 25.745,-1.03 31.718,-3.296 C -2.676,12.975 4.325,4.119 0,0"
             style="fill:#eea886;fill-opacity:1;fill-rule:nonzero;stroke:none"
             id="path254" />
        </g>
        <g
           id="g256"
           transform="translate(797.1722,334.0521)">
          <path
             d="m 0,0 c -4.324,-4.119 -15.034,-2.471 -20.39,-1.442 -5.354,1.03 -31.51,1.854 -34.805,2.884 -0.949,0.296 -2.132,0.626 -3.445,1.013 0,0.002 -10e-4,0.002 -10e-4,0.002 -0.002,0.002 -0.004,0.002 -0.004,0.002 0,0 7.2,7.124 3.797,17.23 l 0.472,0.341 c 1.24,-0.4 2.119,-0.584 2.476,-0.464 2.471,0.824 7.62,-0.618 11.533,-1.029 3.914,-0.413 25.745,-1.03 31.718,-3.296 C -2.676,12.975 4.325,4.119 0,0"
             style="fill:#c5cddb;fill-opacity:1;fill-rule:nonzero;stroke:none"
             id="path258" />
        </g>
        <g
           id="g260"
           transform="translate(671.3665,406.1739)">
          <path
             d="M 0,0 C 0.047,-0.109 0.036,-0.19 -0.033,-0.243 -0.443,-0.55 -0.378,-0.418 0,0"
             style="fill:#e55554;fill-opacity:1;fill-rule:nonzero;stroke:none"
             id="path262" />
        </g>
        <g
           id="g264"
           transform="translate(760.0131,437.7527)">
          <path
             d="m 0,0 c -2.02,-2.295 -10.009,-7.371 -17.193,-11.55 -0.545,4.98 -1.372,12.817 -1.462,15.634 -0.136,4.255 1.648,16.477 3.845,21.144 2.197,4.669 3.708,17.438 3.708,17.438 0,0 18.192,-24.715 21.075,-27.324 C 12.857,12.734 6.822,7.749 0,0 m -106.238,-2.949 c -5.149,6.179 -12.235,9.917 -10.452,12.662 1.786,2.746 16.888,28.834 16.888,28.834 0,0 7.827,-17.162 10.024,-26.088 2.197,-8.925 2.024,-13.011 1.098,-15.789 -0.831,-2.49 -1.498,-4.183 -2.246,-11.598 -6.156,4.206 -12.952,9.147 -15.312,11.979 M 30.385,16.578 C 30.041,17.274 11.278,46.785 6.197,60.24 c -5.08,13.458 -17.299,19.636 -23.066,21.558 -2.057,0.686 -5.724,1.88 -9.589,3.13 -6.966,2.253 -14.576,4.696 -14.576,4.696 h -24.029 c 0,0 -8.325,-2.788 -17.165,-5.886 -0.005,-0.004 -0.01,-0.006 -0.01,-0.006 -8.145,-2.857 -16.726,-5.977 -19.624,-7.427 -6.041,-3.019 -16.2,-24.577 -18.259,-27.048 -2.06,-2.472 -17.899,-31.829 -20.185,-43.113 -1.775,-8.764 50.24,-34.434 51.659,-37.723 1.648,1.826 9.223,9.091 9.223,9.091 0,0 -2.426,1.526 -5.843,3.773 13.932,-0.639 47.979,0.562 52.864,0.317 0.983,-0.049 2.05,-0.019 3.148,0.068 -0.005,-0.002 -0.007,-0.004 -0.007,-0.004 1.512,-1.098 11.262,-9.711 11.262,-9.711 0,0 24.03,9.976 35.078,21.144 15.695,15.858 15.035,19.977 13.307,23.479"
             style="fill:#afb17e;fill-opacity:1;fill-rule:nonzero;stroke:none"
             id="path266" />
        </g>
        <g
           id="g268"
           transform="translate(709.8284,593.4191)">
          <path
             d="m 0,0 c 0,0 18.791,-2.961 15.929,-32.361 -2.861,-29.4 -19.446,-26.991 -20.555,-26.961 -1.107,0.03 -16.649,-0.536 -17.86,35.36 0,0 -0.529,26.544 22.486,23.962"
             style="fill:#eea886;fill-opacity:1;fill-rule:nonzero;stroke:none"
             id="path270" />
        </g>
        <g
           id="g272"
           transform="translate(726.0481,569.3626)">
          <path
             d="m 0,0 c 0,0 2.057,2.198 2.813,-0.027 0.755,-2.225 -2.808,-12.149 -2.935,-12.613 0,0 -0.375,-0.863 -0.869,-0.388 C -1.486,-12.553 0,0 0,0"
             style="fill:#eea886;fill-opacity:1;fill-rule:nonzero;stroke:none"
             id="path274" />
        </g>
        <g
           id="g276"
           transform="translate(687.8491,569.7347)">
          <path
             d="m 0,0 c 0,0 -2.016,2.237 -2.813,0.027 -0.798,-2.21 2.54,-12.199 2.69,-12.668 0,0 0.36,-0.869 0.862,-0.404 C 1.242,-12.579 0,0 0,0"
             style="fill:#eea886;fill-opacity:1;fill-rule:nonzero;stroke:none"
             id="path278" />
        </g>
        <g
           id="g280"
           transform="translate(726.0397,564.8533)">
          <path
             d="m 0,0 -2.69,-3.596 c 0,0 0.076,7.885 -0.356,9.121 -0.432,1.236 -1.092,5.013 -1.452,5.904 -0.362,0.89 -16.138,5.311 -30.072,-1.291 0,0 0.613,-5.67 -0.723,-6.174 -1.336,-0.505 -0.681,-9.235 -0.681,-9.235 l -2.211,2.496 c 0,0 -3.387,22.619 -2.55,24.977 0.836,2.358 3.5,16.532 32.089,8.117 0,0 8.912,1.888 10.701,-4.265 C 3.843,19.901 0,0 0,0"
             style="fill:#444444;fill-opacity:1;fill-rule:nonzero;stroke:none"
             id="path282" />
        </g>
        <g
           id="g284"
           transform="translate(682.1809,376.8497)">
          <path
             d="m 0,0 c 0,0 -28.766,17.239 -41.329,19.951 -11.872,2.562 -16.202,7.002 -16.202,7.002 0,0 18.879,0 31.442,-8.925 C -17.557,11.968 0,0 0,0"
             style="fill:#4a6a9d;fill-opacity:1;fill-rule:nonzero;stroke:none"
             id="path286" />
        </g>
        <g
           id="g288"
           transform="translate(707.735,364.8307)">
          <path
             d="m 0,0 c 0,0 50.031,26.272 70.458,31.97 11.699,3.263 16.202,7.002 16.202,7.002 0,0 -30.93,-3.021 -49.742,-14.348 C 27.953,19.225 0,0 0,0"
             style="fill:#4a6a9d;fill-opacity:1;fill-rule:nonzero;stroke:none"
             id="path290" />
        </g>
        <g
           id="g292"
           transform="translate(689.4538,338.3404)">
          <path
             d="m 0,0 c -3.303,-1.318 -6.704,-2.171 -8.865,-2.846 -3.295,-1.03 -29.452,-1.854 -34.807,-2.884 -5.354,-1.03 -16.064,-2.677 -20.388,1.442 -4.326,4.119 2.676,12.975 8.649,15.241 5.973,2.265 27.804,2.883 31.718,3.295 3.912,0.412 9.061,1.854 11.533,1.03 0.781,-0.26 4.232,0.754 8.591,2.259 C -3.438,14.924 0,0 0,0"
             style="fill:#eea886;fill-opacity:1;fill-rule:nonzero;stroke:none"
             id="path294" />
        </g>
        <g
           id="g296"
           transform="translate(707.735,340.8301)">
          <path
             d="m 0,0 49.185,14.554 -9.726,2.971 C 39.459,17.525 0.152,3.276 0,0"
             style="fill:#5c83c2;fill-opacity:1;fill-rule:nonzero;stroke:none"
             id="path298" />
        </g>
        <g
           id="g300"
           transform="translate(707.735,340.8301)">
          <path
             d="M 0,0 23.016,7.021 7.057,-2.247 Z"
             style="fill:#4a6a9d;fill-opacity:1;fill-rule:nonzero;stroke:none"
             id="path302" />
        </g>
        <g
           id="g304"
           transform="translate(691.9252,399.6514)">
          <path
             d="M 0,0 C -0.046,0.027 -0.414,0.243 -1.036,0.607 -0.624,0.394 -0.275,0.19 0,0"
             style="fill:#545353;fill-opacity:1;fill-rule:nonzero;stroke:none"
             id="path306" />
        </g>
        <g
           id="g308"
           transform="translate(680.5888,335.4941)">
          <path
             d="m 0,0 c -3.295,-1.03 -29.452,-1.854 -34.807,-2.884 -5.354,-1.029 -16.064,-2.677 -20.388,1.442 -4.326,4.119 2.676,12.975 8.649,15.241 5.973,2.266 27.804,2.883 31.718,3.296 3.912,0.411 9.061,1.853 11.533,1.029 0,0 -6.603,-10.092 3.295,-18.124"
             style="fill:#c5cddb;fill-opacity:1;fill-rule:nonzero;stroke:none"
             id="path310" />
        </g>
        <g
           id="g312"
           transform="translate(733.5549,522.6812)">
          <path
             d="m 0,0 c 0,0 -7.881,-34.623 -26.646,-34.623 -18.766,0 -29.134,33.426 -29.134,33.426 0,0 0.005,0.002 0.01,0.006 8.84,3.098 17.165,5.887 17.165,5.887 h 24.029 c 0,0 7.61,-2.443 14.576,-4.696"
             style="fill:#bebebf;fill-opacity:1;fill-rule:nonzero;stroke:none"
             id="path314" />
        </g>
        <g
           id="g316"
           transform="translate(664.3317,403.8028)">
          <path
             d="M 0,0 -7.579,43.113 90.415,45.379 84.103,2.952 c 0,0 -31.279,-11.45 -41.896,-18.127 0,0 -26.829,11.024 -42.207,15.175"
             style="fill:#545353;fill-opacity:1;fill-rule:nonzero;stroke:none"
             id="path318" />
        </g>
        <g
           id="g320"
           transform="translate(719.2238,527.2971)">
          <path
             d="m 0,0 c -0.007,0.027 -0.014,0.054 -0.025,0.08 -1.171,2.617 -0.599,15.38 -0.599,15.38 0,0 -23.933,6.091 -23.251,1.433 0.684,-4.658 -2.061,-17.373 -2.061,-17.373 l -12.278,-4.202 c 0,0 13.082,-35.126 28.117,-30.594 15.034,4.531 20.711,31.86 20.711,31.86 z"
             style="fill:#eea886;fill-opacity:1;fill-rule:nonzero;stroke:none"
             id="path322" />
        </g>
        <g
           id="g324"
           transform="translate(695.9625,538.7305)">
          <path
             d="m 0,0 c 0,0 3.587,-4.692 10.281,-4.692 4.402,0 7.496,1.172 11.881,5.447 0,0 -1.835,-8.058 -11.853,-8.814 0,0 -6.994,-1.209 -10.309,8.059"
             style="fill:#a77961;fill-opacity:1;fill-rule:nonzero;stroke:none"
             id="path326" />
        </g>
        <g
           id="g328">
          <g
             id="g330" />
          <g
             id="g346">
            <g
               clip-path="url(#clipPath334)"
               id="g344">
              <g
                 transform="translate(629.0061,166.3352)"
                 id="g338">
                <path
                   d="m 0,0 c 0,4.935 -3.414,9.624 -9.583,13.161 l -133.422,77.035 c -13.243,7.649 -34.754,7.649 -47.956,0 L -324.383,13.161 c -6.211,-3.537 -9.583,-8.226 -9.583,-13.161 0,-4.935 3.372,-9.583 9.583,-13.161 l 133.422,-77.035 c 13.202,-7.608 34.713,-7.649 47.956,0 L -9.583,-13.161 C -3.414,-9.583 0,-4.935 0,0 M -8.431,15.218 C -1.481,11.187 2.344,5.799 2.344,0 c 0,-5.799 -3.825,-11.187 -10.775,-15.177 l -133.422,-77.034 c -6.91,-4.03 -16.041,-6.005 -25.13,-6.005 -9.131,0 -18.22,1.975 -25.171,6.005 l -133.422,77.034 c -6.909,3.99 -10.734,9.378 -10.734,15.177 0,5.799 3.825,11.187 10.734,15.218 l 133.422,77.034 c 13.861,7.979 36.44,7.979 50.301,0 z"
                   style="fill:#af579d;fill-opacity:1;fill-rule:nonzero;stroke:none"
                   id="path336" />
              </g>
              <g
                 transform="matrix(1.0123272,0,0,1.0077862,621.42252,179.36198)"
                 id="g342">
                <path
                   d="m 0,0 c 6.169,-3.537 9.583,-8.226 9.583,-13.161 0,-4.936 -3.414,-9.583 -9.583,-13.161 l -133.422,-77.035 c -13.243,-7.65 -34.754,-7.609 -47.956,0 L -314.8,-26.322 c -6.21,3.578 -9.583,8.225 -9.583,13.161 0,4.935 3.373,9.624 9.583,13.161 l 133.422,77.034 c 13.202,7.65 34.713,7.65 47.956,0 z"
                   style="fill:#af579d;fill-opacity:1;fill-rule:nonzero;stroke:none"
                   id="path340" />
              </g>
            </g>
          </g>
        </g>
        <g
           id="g348">
          <g
             id="g350" />
          <g
             id="g366">
            <g
               clip-path="url(#clipPath354)"
               id="g364">
              <g
                 transform="translate(403.3963,358.1167)"
                 id="g358">
                <path
                   d="m 0,0 c 0,4.894 -3.414,9.583 -9.583,13.161 l -133.422,77.034 c -13.243,7.609 -34.754,7.609 -47.956,0 L -324.383,13.161 c -6.211,-3.578 -9.583,-8.267 -9.583,-13.161 0,-4.935 3.372,-9.624 9.583,-13.202 l 133.422,-77.035 c 13.202,-7.608 34.713,-7.608 47.956,0 L -9.583,-13.202 C -3.414,-9.624 0,-4.935 0,0 M -8.431,15.177 C -1.481,11.187 2.344,5.799 2.344,0 c 0,-5.799 -3.825,-11.228 -10.775,-15.218 l -133.422,-77.034 c -6.91,-3.989 -16.041,-6.005 -25.13,-6.005 -9.131,0 -18.22,2.016 -25.171,6.005 l -133.422,77.034 c -6.909,3.99 -10.734,9.419 -10.734,15.218 0,5.799 3.825,11.187 10.734,15.177 l 133.422,77.034 c 13.861,8.02 36.44,8.02 50.301,0 z"
                   style="fill:#af579d;fill-opacity:1;fill-rule:nonzero;stroke:none"
                   id="path356" />
              </g>
              <g
                 transform="matrix(1.012925,0,0,1.0061361,396.25373,371.57661)"
                 id="g362"
                 style="display:inline">
                <path
                   d="m 0,0 c 6.169,-3.578 9.583,-8.267 9.583,-13.161 0,-4.936 -3.414,-9.624 -9.583,-13.203 l -133.422,-77.034 c -13.243,-7.609 -34.754,-7.609 -47.956,0 L -314.8,-26.364 c -6.21,3.579 -9.583,8.267 -9.583,13.203 0,4.894 3.373,9.583 9.583,13.161 l 133.422,77.034 c 13.202,7.609 34.713,7.609 47.956,0 z"
                   style="fill:#af579d;fill-opacity:1;fill-rule:nonzero;stroke:none"
                   id="path360" />
              </g>
            </g>
          </g>
        </g>
        <g
           id="g368"
           transform="translate(228.1698,745.2379)">
          <path
             d="m 0,0 c 0,0 -13.287,0.447 -17.528,-10.444 -4.241,-10.892 -1.039,-19.245 0.17,-23.211 3.158,-10.36 3.418,-14.122 1.889,-20.374 -1.356,-5.542 -2.602,-8.405 -4.166,-13.586 -1.564,-5.182 1.044,-4.605 1.271,-4.984 0.227,-0.378 52.035,-5.162 52.035,-5.162 0,0 -1.385,11.222 -5.033,13.827 -3.648,2.606 -7.254,3.134 -4.478,14.239 2.774,11.106 4.535,16.261 2.98,24.314 -1.803,9.333 -2.937,15.165 -11.712,21.283 C 10.138,-0.41 4.195,0.405 0,0"
             style="fill:#3b3b40;fill-opacity:1;fill-rule:nonzero;stroke:none"
             id="path370" />
        </g>
        <g
           id="g372"
           transform="translate(212.8397,378.9166)">
          <path
             d="m 0,0 c 0,0 7.309,-10.852 10.253,-13.47 0,0 6.544,-2.4 7.199,-6.981 0.654,-4.581 0.546,-7.638 -7.199,-7.856 -7.744,-0.218 -12.821,1.173 -14.239,5.863 -1.418,4.69 -4.521,7.883 -4.521,7.883 v -9.817 h -1.745 c 0,0 -0.437,9.49 -0.546,11.235 -0.109,1.746 -1.253,8.454 2.428,11.426 C -4.69,1.255 0,0 0,0"
             style="fill:#4a5081;fill-opacity:1;fill-rule:nonzero;stroke:none"
             id="path374" />
        </g>
        <g
           id="g376"
           transform="translate(249.4235,387.5879)">
          <path
             d="m 0,0 c 0,0 1.264,-2.99 3.653,-6.108 1.752,-2.286 7.199,-11.671 9.598,-12.325 2.401,-0.654 9.817,-1.963 10.472,-6.109 0.654,-4.144 0.981,-7.089 -6.327,-7.416 -7.307,-0.327 -12.106,-0.763 -15.597,4.363 -3.49,5.126 -9.053,8.834 -9.053,8.834 v -13.375 h -2.836 c 0,0 -1.309,13.921 -2.072,14.903 -0.764,0.982 -2.726,11.67 4.036,17.233 C -1.364,5.563 0,0 0,0"
             style="fill:#4a5081;fill-opacity:1;fill-rule:nonzero;stroke:none"
             id="path378" />
        </g>
        <g
           id="g380"
           transform="translate(207.9314,588.3908)">
          <path
             d="m 0,0 c 0,0 -8.212,-12.211 -10.716,-26.445 -2.502,-14.234 0.464,-61.795 0.354,-68.83 -0.108,-7.035 -6.652,-24.541 -5.344,-37.793 1.309,-13.253 12.244,-78.123 12.244,-78.123 l 8.37,1.717 c 0,0 -0.817,67.243 0,72.806 0.819,5.563 2.461,25.839 2.788,28.13 0.327,2.29 20.772,62.436 20.772,72.698 C 28.468,-25.577 22.251,16.742 0,0"
             style="fill:#b38066;fill-opacity:1;fill-rule:nonzero;stroke:none"
             id="path382" />
        </g>
        <g
           id="g384"
           transform="translate(254.2884,583.7009)">
          <path
             d="m 0,0 c 0,0 15.16,-57.863 16.961,-65.88 1.799,-8.017 4.406,-14.628 4.406,-18.033 0,-7.898 -2.934,-20.579 -2.934,-20.579 l -23.298,-91.621 -9.663,-1.518 c 0,0 5.589,56.302 5.864,67.104 0.275,10.826 8.609,26.198 6.972,30.78 -1.636,4.581 -26.341,57.427 -26.341,57.427 0,0 -18.705,59.117 28.033,42.32"
             style="fill:#b38066;fill-opacity:1;fill-rule:nonzero;stroke:none"
             id="path386" />
        </g>
        <g
           id="g388"
           transform="translate(223.093,365.4468)">
          <path
             d="m 0,0 c 0,0 -7.483,-4.184 -12.302,1.188 -4.069,4.536 -6.321,10.565 -6.321,10.565 l 8.37,1.717 z"
             style="fill:#b38066;fill-opacity:1;fill-rule:nonzero;stroke:none"
             id="path390" />
        </g>
        <g
           id="g392"
           transform="translate(262.6749,369.1548)">
          <path
             d="m 0,0 c 0,0 -6.544,-1.636 -9.053,0 -2.508,1.636 -11.037,16.052 -13.862,16.915 0,0 2.736,5.554 9.664,1.518 0,0 11.397,-16.034 13.251,-18.433"
             style="fill:#b38066;fill-opacity:1;fill-rule:nonzero;stroke:none"
             id="path394" />
        </g>
        <g
           id="g396"
           transform="translate(275.6556,499.7883)">
          <path
             d="m 0,0 c 0,0 -35.068,-15.056 -87.279,-15.056 0,0 5.499,79.113 13.09,96.15 7.59,17.037 54.03,-1.719 54.03,-1.719 C -20.159,79.375 0,14.274 0,0"
             style="fill:#914795;fill-opacity:1;fill-rule:nonzero;stroke:none"
             id="path398" />
        </g>
      </g>
    </g>
    <g
       id="g400"
       style="display:inline">
      <g
         id="g402">
        <g
           id="g408">
          <g
             id="g410">
            <path
               d="m 247.475,656.865 c 0,0 4.899,-10.147 10.959,-20.477 v 0 c 0.81,-1.379 1.641,-2.763 2.482,-4.125 v 0 c 4.958,-8.018 10.325,-15.327 14.286,-17.09 v 0 c 7.915,-3.524 39.898,-0.771 39.898,-0.771 v 0 l -0.335,11.368 c 0,0 -10.438,0.545 -20.335,1.479 v 0 c -6.067,0.572 -13.936,0.097 -14.722,0.81 v 0 c -0.785,0.712 -13.306,26.005 -14.048,28.878 v 0 c -0.741,2.877 -3.681,11.602 -7.439,17.414 v 0 c -3.757,5.815 -9.804,7.496 -9.804,7.496 v 0 c -15.573,-6.575 -0.942,-24.982 -0.942,-24.982"
               style="fill:url(#linearGradient420);stroke:none"
               id="path422" />
          </g>
        </g>
      </g>
    </g>
    <g
       id="g424"
       style="display:inline">
      <g
         id="g426"
         clip-path="url(#clipPath430)">
        <g
           id="g432"
           transform="translate(259.7215,640.0858)">
          <path
             d="m 0,0 c -3.935,-9.107 -0.225,-12.146 -2.024,-21.253 -1.8,-9.111 -2.442,-35.056 -2.105,-40.116 0.337,-5.06 -44.853,-10.261 -55.313,-1.04 0,0 3.486,19.684 9.889,31.922 1.217,2.323 0.635,11.481 -0.601,14.631 -0.381,0.963 -1.895,4.687 -3.816,9.393 0,0 -0.002,0.003 -0.005,0.008 -2,4.892 -4.437,10.848 -6.493,15.864 -2.433,5.942 -4.334,10.573 -4.334,10.573 0,0 -1.56,14.653 4.526,19.378 5.286,4.104 19.69,5.567 22.276,6.468 2.587,0.899 10.11,1.29 15.397,0.505 0,0 8.095,-3.824 10.908,-4.388 C -8.884,41.384 2.024,27.214 3.937,22.041 5.847,16.868 3.937,9.11 0,0"
             style="fill:#914795;fill-opacity:1;fill-rule:nonzero;stroke:none"
             id="path434" />
        </g>
        <g
           id="g436"
           transform="translate(240.982,695.7602)">
          <path
             d="m 0,0 c 0,0 -1.615,-14.853 -1.278,-19.689 0,0 -6.766,-8.223 -16.335,10.049 0,0 2.38,7.324 -0.65,17.586 C -21.294,18.208 0,0 0,0"
             style="fill:#b38066;fill-opacity:1;fill-rule:nonzero;stroke:none"
             id="path438" />
        </g>
        <g
           id="g440"
           transform="translate(215.2581,684.615)">
          <path
             d="m 0,0 c 0,0 5.788,-17.094 21.678,-15.836 15.89,1.257 7.533,14.433 7.533,14.433 0,0 -3.961,2.271 -5.075,2.486 C 23.021,1.297 8.367,1.918 8.367,1.918 Z"
             style="fill:#b38066;fill-opacity:1;fill-rule:nonzero;stroke:none"
             id="path442" />
        </g>
        <g
           id="g444"
           transform="translate(318.0198,607.9532)">
          <path
             d="m 0,0 h -38.696 c -1.436,0 -2.6,1.164 -2.6,2.6 v 57.507 c 0,1.436 1.165,2.6 2.601,2.6 H 0 c 1.436,0 2.6,-1.163 2.6,-2.599 V 2.6 C 2.6,1.164 1.436,0 0,0"
             style="fill:#444444;fill-opacity:1;fill-rule:nonzero;stroke:none"
             id="path446" />
        </g>
        <path
           d="m 317.635,612.216 h -37.927 v 54.181 h 37.927 z"
           style="fill:#dbdff0;fill-opacity:1;fill-rule:nonzero;stroke:none"
           id="path448" />
        <g
           id="g450"
           transform="translate(265.7713,620.7622)">
          <path
             d="M 0,0 C 0,0 1.434,-0.027 2.378,0.684 4.006,1.911 4.593,4.936 7.466,4.716 10.34,4.495 11.673,-4.518 10.953,-6.224 10.233,-7.929 6.243,-8.784 0.343,-7.608 -5.554,-6.433 0,0 0,0"
             style="fill:#b38066;fill-opacity:1;fill-rule:nonzero;stroke:none"
             id="path452" />
        </g>
        <g
           id="g454"
           transform="translate(272.2514,625.4158)">
          <path
             d="m 0,0 c 0,0 4.131,1.408 8.9,2.44 4.183,0.904 9.182,1.199 9.668,0.474 C 19.111,2.107 14.494,1.409 10.394,0.245 6.619,-0.827 7.52,-1.221 7.52,-1.221 c 0,0 -0.25,0.127 4.059,0.53 4.633,0.432 9.405,0.424 9.876,-0.503 0.229,-0.45 0.068,-0.755 -1.601,-1.177 1.004,0.045 1.145,-0.215 1.184,-0.618 0.198,-2.087 -6.559,-3.748 -9.243,-4.407 2.064,0.494 3.623,0.645 2.88,-0.754 C 13.825,-9.749 4.182,-11.684 0.78,-12.695 -2.93,-13.799 0,0 0,0"
             style="fill:#b38066;fill-opacity:1;fill-rule:nonzero;stroke:none"
             id="path456" />
        </g>
        <g
           id="g458"
           transform="translate(315.6155,658.6209)">
          <path
             d="m 0,0 c 0,0 6.239,1.451 8.246,-1.553 2.009,-3.005 2.081,-6.876 1.581,-8.665 C 9.326,-12.007 7.708,-16.611 5.598,-15.665 -1.175,-12.629 0,0 0,0"
             style="fill:#b38066;fill-opacity:1;fill-rule:nonzero;stroke:none"
             id="path460" />
        </g>
        <g
           id="g462"
           transform="translate(321.7904,658.5558)">
          <path
             d="M 0,0 C 0,0 -0.873,4.216 -2.561,3.496 -4.251,2.775 -2.725,-0.006 -2.725,-0.006 Z"
             style="fill:#b38066;fill-opacity:1;fill-rule:nonzero;stroke:none"
             id="path464" />
        </g>
        <g
           id="g466"
           transform="translate(315.6155,658.6209)">
          <path
             d="M 0,0 C 0,0 0.101,2.41 4.464,-0.07 8.827,-2.548 0,0 0,0"
             style="fill:#b38066;fill-opacity:1;fill-rule:nonzero;stroke:none"
             id="path468" />
        </g>
        <g
           id="g470"
           transform="translate(258.4344,636.3943)">
          <path
             d="M 0,0 C 0,0 4.756,11.306 4.962,13.853 4.918,12.351 4.579,3.195 2.482,-4.131 1.641,-2.769 0.809,-1.385 0,-0.006 Z"
             style="fill:#2c304e;fill-opacity:1;fill-rule:nonzero;stroke:none"
             id="path472" />
        </g>
        <g
           id="g474"
           transform="translate(263.3963,650.2478)">
          <path
             d="M 0,0 C 0.003,0.141 0.005,0.213 0.005,0.213 0.008,0.152 0.005,0.081 0,0"
             style="fill:#d2c1bb;fill-opacity:1;fill-rule:nonzero;stroke:none"
             id="path476" />
        </g>
        <g
           id="g478"
           transform="translate(239.0042,620.7558)">
          <path
             d="m 0,0 -19.812,34.879 c 0,0 6.921,-34.795 12.161,-35.964 C -2.413,-2.254 0,0 0,0"
             style="fill:#2c304e;fill-opacity:1;fill-rule:nonzero;stroke:none"
             id="path480" />
        </g>
      </g>
    </g>
    <g
       id="g482"
       style="display:inline">
      <g
         id="g484">
        <g
           id="g490">
          <g
             id="g492">
            <path
               d="m 200.282,680.082 c 0,0 -9.503,-4.731 -6.227,-16.975 v 0 c 3.277,-12.245 6.537,-15.765 9.666,-20.345 v 0 c 2.957,-4.324 8.987,-15.967 9.725,-17.274 v 0 c 0.738,-1.306 8.005,-20.31 14.67,-22.471 v 0 c 3.491,-1.132 14.121,1.18 23.608,3.492 v 0 c 8.722,2.125 16.478,4.251 16.835,3.701 v 0 c 0.745,-1.147 -0.042,11.578 -0.042,11.578 v 0 c 0,0 -15.334,-1.132 -18.717,-0.902 v 0 c -1.496,0.101 -3.239,0.009 -5.024,-0.084 v 0 c -4.776,-0.247 -9.865,-0.495 -11.408,2.969 v 0 c -2.49,5.591 -11.422,23.968 -12.361,26.996 v 0 c -0.894,2.874 -10.836,29.542 -19.385,29.545 v 0 c -0.451,10e-4 -0.897,-0.074 -1.34,-0.23"
               style="fill:url(#linearGradient502);stroke:none"
               id="path504" />
          </g>
        </g>
      </g>
    </g>
    <g
       id="g506"
       style="display:inline">
      <g
         id="g508"
         clip-path="url(#clipPath512)">
        <g
           id="g514"
           transform="translate(238.5304,738.2668)">
          <path
             d="m 0,0 c 0,0 14.659,-9.569 9.895,-32.7 -4.766,-23.131 -22.071,-10.412 -23.951,-9.101 -1.881,1.311 -7.69,15.787 -7.917,22.103 C -22.187,-13.751 -25.289,10.087 0,0"
             style="fill:#b38066;fill-opacity:1;fill-rule:nonzero;stroke:none"
             id="path516" />
        </g>
        <g
           id="g518"
           transform="translate(237.5229,733.6247)">
          <path
             d="m 0,0 c -1.53,0.451 -6.687,-9.52 -9.465,-11.98 -2.778,-2.461 -7.884,-8.638 -8.384,-15.406 -0.5,-6.767 -6.211,14.789 -4.235,22.788 1.976,7.999 4.612,19.728 22.476,10.426 17.864,-9.304 13.244,-25.936 13.244,-25.936 0,0 -5.911,17.827 -13.636,20.108"
             style="fill:#3b3b40;fill-opacity:1;fill-rule:nonzero;stroke:none"
             id="path520" />
        </g>
        <g
           id="g522"
           transform="translate(225.1449,717.658)">
          <path
             d="m 0,0 c -0.472,2.738 -6.513,5.053 -6.424,0.94 0.089,-4.113 3.425,-8.86 5.309,-8.56 C 0.771,-7.32 0.437,-2.526 0,0"
             style="fill:#b38066;fill-opacity:1;fill-rule:nonzero;stroke:none"
             id="path524" />
        </g>
        <g
           id="g526"
           transform="translate(225.8842,695.5067)">
          <path
             d="m 0,0 c 0.107,-0.204 3.594,-6.907 14.265,-8.596 0.238,2.616 0.57,5.819 0.57,5.819 0,0 -7.683,-2.586 -14.835,2.777"
             style="fill:#a87861;fill-opacity:1;fill-rule:nonzero;stroke:none"
             id="path528" />
        </g>
        <g
           id="g534"
           transform="translate(402.6984,163.873)">
          <path
             d="m 0,0 c 0,0 -8.5,-11.941 -7.334,-13.834 1.166,-1.892 10.105,-2.163 15.546,0 5.441,2.163 5.57,16.158 8.032,22.171 1.03,2.517 -1.174,9.948 -4.275,10.487 C 8.868,19.363 5.496,17.78 5.496,17.78 5.496,17.78 8.712,9.31 0,0"
             style="fill:#373a5e;fill-opacity:1;fill-rule:nonzero;stroke:none"
             id="path536" />
        </g>
        <g
           id="g538"
           transform="translate(408.1371,181.7494)">
          <path
             d="m 0,0 c 0,0 -1.789,-5.085 -2.442,-9.941 -0.542,-4.026 -6.056,-12.576 -5.796,-13.658 0.259,-1.082 7.254,-2.061 10.104,0.727 2.85,2.788 4.685,10.897 5.312,15.747 0.585,4.517 1.322,6.748 1.322,6.748 0,0 -5.78,3.351 -8.5,0.377"
             style="fill:#eea886;fill-opacity:1;fill-rule:nonzero;stroke:none"
             id="path540" />
        </g>
        <g
           id="g542"
           transform="translate(476.6858,163.6751)">
          <path
             d="m 0,0 c 0,0 -8.194,-11.743 -7.029,-13.636 1.167,-1.892 10.105,-2.163 15.546,0 5.441,2.163 5.572,16.158 8.033,22.171 1.03,2.517 -1.175,9.948 -4.275,10.487 C 9.175,19.561 5.538,17.863 5.538,17.863 5.538,17.863 8.711,9.309 0,0"
             style="fill:#373a5e;fill-opacity:1;fill-rule:nonzero;stroke:none"
             id="path544" />
        </g>
        <g
           id="g546"
           transform="translate(482.2236,181.538)">
          <path
             d="m 0,0 c 0,0 -0.648,-5.543 -1.684,-9.463 -1.037,-3.921 -6.608,-12.843 -6.348,-13.924 0.259,-1.082 7.255,-2.061 10.106,0.726 2.849,2.788 5.052,10.86 5.31,15.747 C 7.643,-2.028 6.737,1.159 6.737,1.159 6.737,1.159 2.721,2.974 0,0"
             style="fill:#eea886;fill-opacity:1;fill-rule:nonzero;stroke:none"
             id="path548" />
        </g>
        <g
           id="g550"
           transform="translate(441.2782,375.9442)">
          <path
             d="m 0,0 c 0,0 -7.294,-35.409 -8.969,-44.324 -1.674,-8.915 -6.365,-52.093 -6.868,-59.435 -0.502,-7.342 -7.611,-35.005 -7.276,-37.627 0.335,-2.622 -10.539,-55.295 -10.539,-55.295 0,0 3.714,-3.12 7.628,-0.282 2.014,1.459 23.859,49.312 23.859,62.422 0,18.123 12.843,41.78 14.499,45.834 15.394,37.665 12.363,49.181 14.374,51.628 2.009,2.447 2.184,-1.512 3.357,-6.931 1.173,-5.419 3.684,-52.267 5.191,-58.211 1.508,-5.943 0.337,-26.046 1.175,-36.185 0.837,-10.139 4.514,-56 4.514,-56 0,0 2.849,-4.657 6.845,-0.121 0.859,0.976 6.898,51.087 7.065,63.149 0.169,12.061 0.347,28.696 0.67,33.912 3.105,49.983 10.732,57.122 -1.282,92.497 C 31.749,61.264 0,0 0,0"
             style="fill:#eea886;fill-opacity:1;fill-rule:nonzero;stroke:none"
             id="path552" />
        </g>
        <g
           id="g554"
           transform="translate(490.2632,385.8401)">
          <path
             d="m 0,0 c 0,0 20.779,-30.348 11.833,-94.907 0,0 -49.289,-6.995 -75.693,8.092 0,0 10.919,66.562 14.875,76.919 C -45.028,0.462 0,0 0,0"
             style="fill:#4a5081;fill-opacity:1;fill-rule:nonzero;stroke:none"
             id="path556" />
        </g>
        <g
           id="g558"
           transform="translate(419.1698,173.2602)">
          <path
             d="m 0,0 v -12.501 h -1.554 v 9.662 z"
             style="fill:#373a5e;fill-opacity:1;fill-rule:nonzero;stroke:none"
             id="path560" />
        </g>
        <g
           id="g562"
           transform="translate(493.4635,173.2602)">
          <path
             d="m 0,0 v -12.501 h -1.555 v 9.662 z"
             style="fill:#373a5e;fill-opacity:1;fill-rule:nonzero;stroke:none"
             id="path564" />
        </g>
        <g
           id="g566"
           transform="translate(465.6268,520.4107)">
          <path
             d="m 0,0 c 0,0 -13.917,-14.018 -9.177,-32.069 4.74,-18.052 12.356,-18.152 20.749,-10.387 8.395,7.765 13.337,15.933 14.446,25.009 C 27.127,-8.37 12.707,12.505 0,0"
             style="fill:#eea886;fill-opacity:1;fill-rule:nonzero;stroke:none"
             id="path568" />
        </g>
        <g
           id="g570"
           transform="translate(462.9042,460.2055)">
          <path
             d="m 0,0 c 0,0 2.062,4.722 3.51,10.038 0.254,0.937 0.49,1.893 0.692,2.845 0.71,3.344 1,6.639 0.234,8.9 -2.217,6.555 13.918,2.017 13.918,2.017 0,0 -3.126,-17.346 0,-23.195 C 21.48,-5.244 0,0 0,0"
             style="fill:#eea886;fill-opacity:1;fill-rule:nonzero;stroke:none"
             id="path572" />
        </g>
        <g
           id="g574"
           transform="translate(496.2877,413.8816)">
          <path
             d="M 0,0 C -0.437,0.066 -1.366,0.071 -2.348,0.159 -1.145,3.518 0.197,6.492 0.197,6.492 0.966,4.349 3.887,-0.582 0,0 m 7.51,38.061 c -2.539,5.069 -4.439,6.701 -9.348,8.251 -2.748,0.867 -15.019,4.063 -15.019,4.063 l -14.74,0.541 c 0,0 -10.138,-1.688 -18.003,-4.412 -7.867,-2.723 -18.172,-17.625 -18.172,-17.625 0,0 14.218,-33.382 16.942,-42.961 2.722,-9.58 0.908,-24.405 0.908,-24.405 17.044,-9.278 44.372,0.908 44.372,0.908 -2.073,7.485 -2.159,16.225 -1.07,22.424 0.127,0.731 0.272,1.428 0.432,2.081 0.147,0.598 0.349,1.451 0.584,2.406 0.011,0.043 0.021,0.086 0.03,0.128 10.84,-1.109 21.005,-1.56 21.271,0.614 1.195,9.793 -4.692,41.019 -8.187,47.987"
             style="fill:#eedad3;fill-opacity:1;fill-rule:nonzero;stroke:none"
             id="path576" />
        </g>
        <g
           id="g578"
           transform="translate(470.1646,510.3261)">
          <path
             d="m 0,0 c 0,0 6.656,-12.101 10.79,-16.438 4.136,-4.337 3.65,-7.779 3.65,-7.779 0,0 16.116,19.881 4.62,31.881 -11.496,12.001 -26.32,7.16 -30.658,-3.328 -4.336,-10.488 -2.747,-23.299 -2.747,-23.299 0,0 0.126,12.307 14.345,18.963"
             style="fill:#d98b52;fill-opacity:1;fill-rule:nonzero;stroke:none"
             id="path580" />
        </g>
        <g
           id="g582"
           transform="translate(474.5566,522.9969)">
          <path
             d="m 0,0 c 0,0 -1.61,8.859 12.283,12.382 13.893,3.524 20.134,-12.483 18.422,-22.248 -1.711,-9.765 -13.589,-34.529 -7.147,-37.751 6.442,-3.221 8.96,3.725 8.96,3.725 0,0 -2.014,-12.181 -10.973,-9.362 -8.96,2.818 -7.753,22.613 -6.401,30.503 C 16.496,-14.862 0,0 0,0"
             style="fill:#d98b52;fill-opacity:1;fill-rule:nonzero;stroke:none"
             id="path584" />
        </g>
        <g
           id="g586"
           transform="translate(479.0311,479.71)">
          <path
             d="m 0,0 c -0.054,-0.127 -3.566,-8.211 -12.617,-9.467 0.254,0.938 0.49,1.894 0.692,2.846 0,0 4.961,-1.001 11.925,6.621"
             style="fill:#a77961;fill-opacity:1;fill-rule:nonzero;stroke:none"
             id="path588" />
        </g>
        <g
           id="g590"
           transform="translate(496.2877,420.2559)">
          <path
             d="M 0,0 C 0,0 -0.664,-1.398 -2.481,-6.907 -4.334,8.566 -3.366,16.621 -3.366,16.621 -3.163,8.351 0,0 0,0"
             style="fill:#d0bfb9;fill-opacity:1;fill-rule:nonzero;stroke:none"
             id="path592" />
        </g>
        <g
           id="g594"
           transform="translate(476.7204,524.8547)">
          <path
             d="m 0,0 c 0,0 9.86,-1.894 14.779,-9.926 0,0 -0.997,7.273 -5.905,9.37 C 3.966,1.54 0,0 0,0"
             style="fill:#eedad3;fill-opacity:1;fill-rule:nonzero;stroke:none"
             id="path596" />
        </g>
        <g
           id="g598"
           transform="translate(490.6835,403.2137)">
          <path
             d="M 0,0 C -0.235,-0.955 -0.437,-1.809 -0.584,-2.406 -0.744,-3.059 -0.888,-3.756 -1.016,-4.487 -7.123,-1.165 -11.508,1.43 -11.508,1.43 -9.865,1.062 0,0 0,0"
             style="fill:#d0bfb9;fill-opacity:1;fill-rule:nonzero;stroke:none"
             id="path600" />
        </g>
        <g
           id="g602"
           transform="translate(480.2563,464.0411)">
          <path
             d="m 0,0 -17.352,-14.145 1.786,14.901 c 0,0 10.119,2.185 15.566,-0.756"
             style="fill:#eea886;fill-opacity:1;fill-rule:nonzero;stroke:none"
             id="path604" />
        </g>
        <g
           id="g606"
           transform="translate(467.9183,452.2972)">
          <path
             d="M 0,0 -5.014,-2.401 12.027,14.493 Z"
             style="fill:#d6c5be;fill-opacity:1;fill-rule:nonzero;stroke:none"
             id="path608" />
        </g>
        <g
           id="g610">
          <g
             id="g612" />
          <g
             id="g624">
            <g
               clip-path="url(#clipPath616)"
               id="g622">
              <g
                 transform="translate(491.7057,404.4386)"
                 id="g620">
                <path
                   d="m 0,0 c -2.388,-9.897 6.448,-32.173 6.448,-32.173 l -17.514,-5.474 c -2.52,-0.788 -5.172,0.757 -5.728,3.338 -2.346,10.9 -7.842,37.728 -8.499,52.644 -0.837,19.032 13.018,41.483 13.018,41.483 24.628,-4.225 17.877,-41.483 17.877,-41.483 0,0 -0.893,-2.347 -2.089,-6.015 V 12.317 C 3.211,11.397 2.893,10.391 2.563,9.318 1.72,6.565 0.813,3.367 0,0"
                   style="fill:#90bcb9;fill-opacity:1;fill-rule:nonzero;stroke:none"
                   id="path618" />
              </g>
            </g>
          </g>
        </g>
        <g
           id="g626">
          <g
             id="g628" />
          <g
             id="g640">
            <g
               clip-path="url(#clipPath632)"
               id="g638">
              <g
                 transform="translate(462.9459,463.9832)"
                 id="g636">
                <path
                   d="m 0,0 0.303,0.814 c 0,0 -12.611,-1.918 -19.021,-5.119 -6.41,-3.201 -18.681,-19.741 -18.681,-19.741 l 16.049,-21.19 c 0.019,-16.283 -2.622,-45.236 -2.622,-45.236 l 7.338,-4.229 c 1.972,-1.137 4.442,0.258 4.485,2.534 0.206,11.01 0.701,37.154 0.96,49.816 C -10.856,-26.065 0.764,0.273 0.764,0.273 0.506,0.186 0.253,0.093 0,0"
                   style="fill:#90bcb9;fill-opacity:1;fill-rule:nonzero;stroke:none"
                   id="path634" />
              </g>
            </g>
          </g>
        </g>
        <g
           id="g642"
           transform="translate(440.0793,387.6304)">
          <path
             d="M 0,0 C 0,0 12.101,-0.471 13.983,0 15.867,0.471 28.423,5.916 29.178,11.295 29.932,16.674 0,6.474 0,6.474 Z"
             style="fill:#eea886;fill-opacity:1;fill-rule:nonzero;stroke:none"
             id="path644" />
        </g>
        <g
           id="g646"
           transform="translate(477.6268,404.4377)">
          <path
             d="m 0,0 -49.112,5.748 22.186,-18.051 z"
             style="fill:#b4a6a1;fill-opacity:1;fill-rule:nonzero;stroke:none"
             id="path648" />
        </g>
        <g
           id="g650"
           transform="translate(450.7012,392.1347)">
          <path
             d="m 0,0 26.926,9.177 v 3.126 L -0.908,3.375 Z"
             style="fill:#eedad3;fill-opacity:1;fill-rule:nonzero;stroke:none"
             id="path652" />
        </g>
        <g
           id="g654"
           transform="translate(463.3604,413.4565)">
          <path
             d="m 0,0 c 0,0 -4.063,-0.001 -6.337,0.462 -1.761,0.359 -6.137,-0.135 -7.251,-1.123 -1.116,-0.988 -4.66,-7.871 -5.331,-8.292 -0.67,-0.419 0.344,-1.391 1.521,-0.903 0,0 1.081,-3.012 3.749,-1.885 2.669,1.127 4.48,3.59 5.877,4.024 1.398,0.433 9.535,2.621 9.535,2.621 0,0 0.333,5.829 -1.763,5.096"
             style="fill:#eea886;fill-opacity:1;fill-rule:nonzero;stroke:none"
             id="path656" />
        </g>
        <g
           id="g658"
           transform="translate(465.6161,467.5471)">
          <path
             d="m 0,0 -9.347,-14.805 -4.512,-2.846 10.517,14.742 z"
             style="fill:#fbe6de;fill-opacity:1;fill-rule:nonzero;stroke:none"
             id="path660" />
        </g>
        <g
           id="g662"
           transform="translate(456.2695,452.742)">
          <path
             d="m 0,0 6.635,-2.846 1.786,14.902 0.926,2.749 z"
             style="fill:#d6c5be;fill-opacity:1;fill-rule:nonzero;stroke:none"
             id="path664" />
        </g>
        <g
           id="g666"
           transform="translate(441.5576,394.555)">
          <path
             d="m 0,0 c 0,0 -0.504,-6.252 0,-7.564 0,0 -30.287,3.026 -33.111,7.261 -2.823,4.236 -2.722,9.379 -2.722,9.379 z"
             style="fill:#f6a14a;fill-opacity:1;fill-rule:nonzero;stroke:none"
             id="path668" />
        </g>
        <g
           id="g670"
           transform="translate(450.7012,392.1347)">
          <path
             d="M 0,0 -14.32,53.247 -68.777,58.995 -53.851,9.983 Z"
             style="fill:#eedad3;fill-opacity:1;fill-rule:nonzero;stroke:none"
             id="path672" />
        </g>
        <g
           id="g674"
           transform="translate(479.9458,466.7906)">
          <path
             d="m 0,0 -12.027,-14.493 6.58,-5.869 7.103,17.35 z"
             style="fill:#fbe6de;fill-opacity:1;fill-rule:nonzero;stroke:none"
             id="path676" />
        </g>
        <g
           id="g678">
          <g
             id="g680" />
          <g
             id="g692">
            <g
               clip-path="url(#clipPath684)"
               id="g690">
              <g
                 transform="translate(495.6225,417.9823)"
                 id="g688">
                <path
                   d="m 0,0 c 0,0 -0.404,-1.224 -0.404,-1.227 -0.302,-0.92 -0.619,-1.926 -0.95,-2.998 -2.323,-0.731 -22.44,0.744 -22.44,0.744 0,0 16.837,3.953 23.794,3.481"
                   style="fill:#90bcb9;fill-opacity:1;fill-rule:nonzero;stroke:none"
                   id="path686" />
              </g>
            </g>
          </g>
        </g>
        <g
           id="g694"
           transform="translate(494.4618,414.1506)">
          <path
             d="m 0,0 c -3.241,0.245 -8.549,0.59 -12.893,0.609 -6.76,0.029 -18.32,-0.725 -18.32,-0.725 l 1.38,-7.222 c 0,0 20.476,-3.327 31.659,-4.108 v 0 c 0,0 14.758,-1.694 15.855,0.507 1.097,2.201 -0.364,16.34 -2.764,29.078 -2.401,12.738 -4.868,20.075 -7.803,24.009 -2.935,3.935 -18.438,7 -18.438,7 L 1.827,6.105 c 0,0 1.886,-3.839 1.789,-5.496 C 3.587,0.105 3.237,-0.134 2.766,-0.223 2.434,-0.194 1.708,-0.132 0.703,-0.054 Z"
             style="fill:#b5dee0;fill-opacity:1;fill-rule:nonzero;stroke:none"
             id="path696" />
        </g>
      </g>
    </g>
  </g>
</svg>
