<?xml version="1.0" encoding="UTF-8" standalone="no"?>
<!-- Created with Inkscape (http://www.inkscape.org/) -->

<svg
   width="206.38341mm"
   height="39.98196mm"
   viewBox="0 0 206.38341 39.98196"
   version="1.1"
   id="svg556"
   inkscape:version="1.2.2 (b0a8486, 2022-12-01)"
   sodipodi:docname="openflighthpc_white.svg"
   inkscape:export-filename="openflighthpc_grey.png"
   inkscape:export-xdpi="96"
   inkscape:export-ydpi="96"
   xmlns:inkscape="http://www.inkscape.org/namespaces/inkscape"
   xmlns:sodipodi="http://sodipodi.sourceforge.net/DTD/sodipodi-0.dtd"
   xmlns="http://www.w3.org/2000/svg"
   xmlns:svg="http://www.w3.org/2000/svg">
  <sodipodi:namedview
     id="namedview558"
     pagecolor="#505050"
     bordercolor="#eeeeee"
     borderopacity="1"
     inkscape:showpageshadow="0"
     inkscape:pageopacity="0"
     inkscape:pagecheckerboard="0"
     inkscape:deskcolor="#505050"
     inkscape:document-units="mm"
     showgrid="false"
     inkscape:zoom="1.1893044"
     inkscape:cx="471.28389"
     inkscape:cy="136.63449"
     inkscape:window-width="1846"
     inkscape:window-height="1136"
     inkscape:window-x="74"
     inkscape:window-y="27"
     inkscape:window-maximized="1"
     inkscape:current-layer="g509">
    <inkscape:grid
       type="xygrid"
       id="grid4063"
       originx="21.870602"
       originy="-123.71282" />
  </sodipodi:namedview>
  <defs
     id="defs553" />
  <g
     inkscape:label="Layer 1"
     inkscape:groupmode="layer"
     id="layer1"
     transform="translate(21.8706,-123.71281)">
    <g
       id="g509"
       transform="matrix(0.03527778,0,0,-0.03527778,-532.69356,492.349)">
      <path
         d="m 15049.86,9327.077 c 1.956,130.5629 101.974,237.4716 229.555,250.4163 l 25.518,1.3037 1.303,0.2794 h 80.089 c 107.374,0.094 194.261,86.6073 194.912,193.423 h 61.185 c -0.28,-70.1239 -28.87,-133.5429 -74.874,-179.6403 l -16.669,-13.7827 80.367,0.094 c 107.28,0 194.167,86.5142 194.82,193.3299 h 61.184 c -0.372,-70.1239 -28.962,-133.5429 -74.874,-179.6403 l -16.855,-13.7826 h 66.492 c 128.141,0 232.164,103.9288 232.164,232.0703 0,128.0489 -104.023,232.0703 -232.164,232.0703 -66.305,0 -126.186,-27.843 -168.466,-72.6384 -0.279,-0.279 -0.465,-0.465 -0.744,-0.745 l -43.305,43.3054 c 26.636,27.936 58.763,50.753 95.083,66.77 l -4.563,31.57 c -32.593,157.942 -172.562,276.864 -340.098,276.864 -191.653,0 -347.358,-155.614 -347.358,-347.361 0,-188.301 150.211,-341.773 337.209,-347.1742 v -61.184 c -206.834,5.0289 -375.672,163.9953 -396.252,366.6378 l -0.558,11.7344 -5.029,3.539 c -47.216,49.914 -113.895,81.019 -187.93,81.019 -142.762,0 -258.797,-115.9424 -258.797,-258.7975 0,-133.9155 101.973,-244.1768 232.35,-257.4008 l 22.814,-1.2106 -15.737,13.0376 c -46.284,46.1906 -74.967,110.1684 -74.967,180.7579 v 0.5587 h 61.184 c 0,-0.186 0,-0.3724 0,-0.5587 0,-93.8711 66.772,-172.3765 155.335,-190.536 l 33.991,-3.4458 h 97.222 v -61.1838 h -89.494 l -2.608,-0.5588 -10.335,0.5588 h -150.958 c -176.567,0 -319.982,143.4142 -319.982,319.9815 0,176.6615 143.415,319.9835 319.982,319.9835 68.633,0 132.333,-21.699 184.39,-58.483 l 10.243,-8.104 5.123,33.154 c 38.089,186.067 202.829,326.221 400.162,326.221 197.15,0 361.703,-139.876 399.978,-325.663 l 4.097,-25.423 27.007,4.284 c 10.245,1.118 20.581,1.676 31.011,1.676 161.947,0 293.348,-131.4004 293.348,-293.2553 0,-161.9463 -131.401,-293.2543 -293.348,-293.2543 l -555.87,-0.1862 c -106.815,-0.094 -193.236,-85.3967 -195.1,-191.1879 0,-0.7452 0,-6.5189 0,-10.3371 h -61.183 c 0,3.9113 0,9.9644 0,10.8958"
         style="fill:#2794d8;fill-opacity:1;fill-rule:nonzero;stroke:none;stroke-width:0.931262"
         id="path156" />
      <g
         id="g686"
         transform="matrix(9.9999991,0,0,9.9999991,16431.044,9862.1741)"
         style="fill:#ffffff;fill-opacity:1">
        <path
           d="m 0,0 c 1.249,-0.016 2.366,-0.265 3.367,-0.757 1,-0.484 1.854,-1.149 2.56,-1.986 0.705,-0.834 1.249,-1.785 1.63,-2.834 0.377,-1.049 0.566,-2.137 0.572,-3.266 0,-1.549 -0.309,-2.971 -0.909,-4.301 -0.605,-1.323 -1.511,-2.401 -2.715,-3.222 -1.212,-0.821 -2.703,-1.239 -4.505,-1.266 -1.798,0.027 -3.303,0.445 -4.507,1.266 -1.205,0.821 -2.107,1.899 -2.711,3.222 -0.604,1.33 -0.906,2.752 -0.906,4.301 0,1.129 0.169,2.217 0.515,3.266 0.349,1.049 0.86,2 1.544,2.834 0.681,0.837 1.527,1.502 2.543,1.986 C -2.507,-0.265 -1.335,-0.016 0,0 m -0.057,6.729 c -2.387,-0.017 -4.53,-0.427 -6.442,-1.238 -1.899,-0.805 -3.52,-1.924 -4.862,-3.346 -1.346,-1.429 -2.372,-3.081 -3.087,-4.957 -0.709,-1.873 -1.069,-3.887 -1.078,-6.031 0.009,-2.166 0.36,-4.19 1.062,-6.072 0.7,-1.871 1.721,-3.524 3.061,-4.943 1.338,-1.428 2.968,-2.54 4.883,-3.34 1.917,-0.802 4.084,-1.211 6.52,-1.229 2.429,0.018 4.606,0.427 6.535,1.229 1.916,0.8 3.551,1.912 4.899,3.34 1.349,1.419 2.369,3.072 3.074,4.943 0.714,1.882 1.07,3.906 1.073,6.072 -0.006,2.144 -0.372,4.158 -1.103,6.031 -0.73,1.876 -1.782,3.528 -3.144,4.957 C 9.966,3.567 8.323,4.686 6.402,5.491 4.477,6.302 2.333,6.712 -0.057,6.729"
           style="fill:#ffffff;fill-opacity:1;fill-rule:nonzero;stroke:none"
           id="path688" />
      </g>
      <g
         id="g690"
         transform="matrix(9.9999991,0,0,9.9999991,16711.968,9499.6741)"
         style="fill:#ffffff;fill-opacity:1">
        <path
           d="m 0,0 v 16.007 c 0.538,-0.817 1.203,-1.494 1.999,-2.041 0.799,-0.547 1.656,-0.984 2.58,-1.309 0.931,-0.318 1.849,-0.55 2.771,-0.683 0.925,-0.142 1.786,-0.209 2.583,-0.206 2.399,0.014 4.531,0.421 6.401,1.214 1.863,0.793 3.444,1.91 4.74,3.327 1.29,1.425 2.274,3.083 2.939,4.965 0.671,1.896 1.012,3.935 1.012,6.133 -0.009,2.209 -0.369,4.258 -1.096,6.148 -0.728,1.885 -1.766,3.546 -3.115,4.96 -1.351,1.423 -2.964,2.522 -4.841,3.316 -1.877,0.796 -3.972,1.191 -6.281,1.205 C 8.549,43.04 7.376,42.874 6.184,42.534 4.99,42.197 3.85,41.682 2.784,40.972 1.707,40.27 0.781,39.359 0,38.25 l -0.485,4.12 H -7.4 V 0 Z m 9.146,18.911 c -1.684,0.019 -3.164,0.406 -4.434,1.168 -1.266,0.754 -2.258,1.775 -2.966,3.05 -0.711,1.274 -1.074,2.695 -1.075,4.278 0.001,1.572 0.339,2.992 1.008,4.277 0.668,1.266 1.634,2.284 2.9,3.04 1.264,0.764 2.789,1.152 4.567,1.166 1.785,-0.014 3.311,-0.402 4.569,-1.166 1.268,-0.756 2.234,-1.774 2.903,-3.04 0.67,-1.285 1.002,-2.705 1.013,-4.277 C 17.616,25.824 17.256,24.403 16.547,23.129 15.835,21.854 14.85,20.833 13.584,20.079 12.311,19.317 10.83,18.93 9.146,18.911"
           style="fill:#ffffff;fill-opacity:1;fill-rule:nonzero;stroke:none"
           id="path692" />
      </g>
      <g
         id="g694"
         transform="matrix(9.9999991,0,0,9.9999991,17081.157,9808.7951)"
         style="fill:#ffffff;fill-opacity:1">
        <path
           d="M 0,0 C 0.373,1.299 0.96,2.376 1.765,3.243 2.57,4.111 3.536,4.763 4.662,5.192 5.787,5.62 7.024,5.837 8.364,5.837 9.79,5.837 11.047,5.62 12.159,5.192 13.256,4.763 14.153,4.111 14.84,3.243 15.525,2.376 15.956,1.299 16.125,0 Z m 23.218,-6.118 c 0.36,4.102 -0.036,7.531 -1.179,10.271 -1.149,2.737 -2.916,4.792 -5.298,6.162 -2.388,1.38 -5.26,2.065 -8.618,2.065 C 4.874,12.351 2.063,11.669 -0.304,10.347 -2.676,9.013 -4.501,7.179 -5.798,4.836 -7.094,2.493 -7.742,-0.208 -7.764,-3.267 c 0.017,-3.211 0.67,-6.007 1.969,-8.384 1.307,-2.379 3.176,-4.234 5.623,-5.546 2.445,-1.312 5.397,-1.987 8.838,-2.006 1.531,0 3.082,0.179 4.652,0.532 1.574,0.356 3.063,0.891 4.476,1.606 1.415,0.724 2.661,1.625 3.724,2.714 l -4.727,4.666 c -0.58,-0.585 -1.323,-1.091 -2.228,-1.501 -0.893,-0.415 -1.853,-0.733 -2.864,-0.959 -1.014,-0.214 -1.985,-0.321 -2.907,-0.325 -1.749,0.008 -3.251,0.28 -4.52,0.823 -1.276,0.546 -2.286,1.289 -3.028,2.243 -0.745,0.949 -1.199,2.047 -1.366,3.286 z"
           style="fill:#ffffff;fill-opacity:1;fill-rule:nonzero;stroke:none"
           id="path696" />
      </g>
      <g
         id="g698"
         transform="matrix(9.9999991,0,0,9.9999991,17664.389,9624.5861)"
         style="fill:#ffffff;fill-opacity:1">
        <path
           d="m 0,0 v 15.7 c -0.001,2.357 -0.344,4.439 -0.99,6.251 -0.647,1.82 -1.55,3.358 -2.704,4.613 -1.159,1.247 -2.498,2.191 -4.026,2.831 -1.534,0.646 -3.181,0.97 -4.957,0.97 -1.857,0 -3.588,-0.375 -5.179,-1.133 -1.595,-0.752 -3.137,-1.873 -4.641,-3.346 l -0.488,4.057 h -6.606 V 0 h 7.334 v 15.273 c 0.008,1.537 0.333,2.928 0.97,4.196 0.636,1.256 1.527,2.258 2.675,3.008 1.142,0.753 2.47,1.139 3.999,1.158 1.578,-0.01 2.91,-0.371 3.975,-1.061 1.067,-0.693 1.881,-1.641 2.419,-2.839 0.552,-1.2 0.819,-2.567 0.826,-4.097 L -7.393,0 Z"
           style="fill:#ffffff;fill-opacity:1;fill-rule:nonzero;stroke:none"
           id="path700" />
      </g>
      <g
         id="g702"
         transform="matrix(9.9999991,0,0,9.9999991,17797.016,9624.5861)"
         style="fill:#ffffff;fill-opacity:1">
        <path
           d="m 0,0 v 27.105 h 9.89 v 2.596 H 0 v 2.666 c 0.019,2.596 0.538,4.506 1.569,5.717 1.027,1.215 2.481,1.818 4.382,1.803 0.879,0 1.677,-0.131 2.37,-0.397 0.692,-0.255 1.437,-0.63 2.23,-1.119 l 1.466,2.18 C 11.165,41.195 10.24,41.694 9.243,42.055 8.252,42.416 7.193,42.605 6.068,42.61 3.874,42.592 2.117,42.148 0.8,41.275 -0.514,40.396 -1.466,39.197 -2.051,37.662 -2.631,36.131 -2.922,34.37 -2.911,32.367 V 29.701 H -9.03 v -2.596 h 6.119 L -2.911,0 Z"
           style="fill:#ffffff;fill-opacity:1;fill-rule:nonzero;stroke:none"
           id="path704" />
      </g>
      <path
         d="m 17965.504,9624.6001 h 29.79 v 424.8899 h -29.79 z"
         style="fill:#ffffff;fill-opacity:1;fill-rule:nonzero;stroke:none;stroke-width:10"
         id="path706" />
      <path
         d="m 105.07487,140.16986 h 1.04845 v -2.34456 h -1.04845 z"
         style="fill:#2794d8;fill-opacity:1;fill-rule:nonzero;stroke:none;stroke-width:0.329294"
         id="path804-3"
         transform="matrix(28.346455,0,0,-28.346455,15099.974,13956.349)" />
      <path
         d="m 18108.194,9624.6001 h -29.72 v 300.71 h 29.72 z"
         style="fill:#ffffff;fill-opacity:1;fill-rule:nonzero;stroke:none;stroke-width:10"
         id="path708" />
      <g
         id="g710"
         transform="matrix(9.9999991,0,0,9.9999991,18319.59,9899.7621)"
         style="fill:#ffffff;fill-opacity:1">
        <path
           d="m 0,0 c 2.09,-0.006 3.967,-0.447 5.663,-1.338 1.681,-0.886 3.017,-2.191 4.016,-3.914 1.004,-1.727 1.514,-3.853 1.533,-6.387 -0.007,-1.556 -0.301,-3.029 -0.877,-4.408 -0.578,-1.38 -1.38,-2.601 -2.409,-3.664 C 6.907,-20.783 5.714,-21.617 4.362,-22.224 3.014,-22.836 1.56,-23.137 0,-23.152 c -1.711,0.015 -3.253,0.316 -4.624,0.928 -1.366,0.607 -2.526,1.441 -3.486,2.513 -0.966,1.063 -1.704,2.284 -2.211,3.664 -0.508,1.379 -0.766,2.852 -0.77,4.408 0.025,2.61 0.531,4.771 1.518,6.494 0.986,1.719 2.313,3.009 3.977,3.867 C -3.922,-0.428 -2.059,0 0,0 M 8.486,0.242 C 7.313,1.07 5.996,1.727 4.523,2.219 3.044,2.706 1.536,2.955 0,2.971 -1.95,2.965 -3.774,2.641 -5.468,1.996 -7.165,1.352 -8.656,0.412 -9.936,-0.834 c -1.291,-1.244 -2.292,-2.777 -3.018,-4.581 -0.725,-1.812 -1.088,-3.886 -1.107,-6.224 0.004,-2.009 0.338,-3.894 0.979,-5.635 0.644,-1.749 1.581,-3.281 2.804,-4.607 1.219,-1.324 2.699,-2.358 4.427,-3.103 1.731,-0.745 3.679,-1.123 5.851,-1.133 1.413,0.001 2.79,-0.169 4.125,-0.504 1.347,-0.336 2.552,-0.862 3.636,-1.574 1.086,-0.718 1.945,-1.647 2.589,-2.785 0.646,-1.145 0.971,-2.511 0.988,-4.114 -0.009,-1.59 -0.322,-2.955 -0.928,-4.093 -0.607,-1.146 -1.435,-2.078 -2.488,-2.807 -1.057,-0.733 -2.259,-1.263 -3.617,-1.61 -1.356,-0.347 -2.79,-0.521 -4.305,-0.513 -1.515,-0.008 -2.934,0.178 -4.282,0.545 -1.34,0.361 -2.538,0.926 -3.573,1.671 -1.035,0.742 -1.857,1.68 -2.449,2.815 -0.594,1.135 -0.896,2.463 -0.91,3.992 h -2.967 c 0.011,-1.902 0.377,-3.585 1.099,-5.06 0.72,-1.477 1.724,-2.729 3.013,-3.75 1.287,-1.024 2.792,-1.793 4.507,-2.328 1.714,-0.533 3.569,-0.793 5.562,-0.802 2.004,0 3.858,0.24 5.576,0.732 1.722,0.491 3.23,1.228 4.529,2.216 1.297,0.987 2.305,2.227 3.033,3.728 0.729,1.501 1.1,3.251 1.111,5.264 -0.011,2.582 -0.713,4.785 -2.114,6.588 -1.403,1.817 -3.423,3.192 -6.071,4.139 1.67,0.771 3.099,1.815 4.302,3.139 1.2,1.33 2.125,2.812 2.772,4.472 0.65,1.655 0.983,3.361 0.988,5.117 -0.02,2.404 -0.373,4.414 -1.052,6.045 -0.683,1.63 -1.563,3.01 -2.639,4.138 l 2.909,3.394 -1.945,1.697 z"
           style="fill:#ffffff;fill-opacity:1;fill-rule:nonzero;stroke:none"
           id="path712" />
      </g>
      <g
         id="g714"
         transform="matrix(9.9999991,0,0,9.9999991,18528.037,10049.469)"
         style="fill:#ffffff;fill-opacity:1">
        <path
           d="m 0,0 v -42.488 h 2.971 v 16.427 c 0.011,2.1 0.468,3.982 1.362,5.649 0.893,1.663 2.142,2.98 3.74,3.953 1.592,0.969 3.45,1.464 5.567,1.488 2.239,-0.017 4.068,-0.447 5.487,-1.314 1.423,-0.864 2.466,-2.067 3.145,-3.617 0.679,-1.551 1.015,-3.358 1.006,-5.43 v -17.156 h 2.911 v 17.156 c 0,2.623 -0.46,4.922 -1.391,6.898 -0.935,1.975 -2.331,3.521 -4.19,4.621 -1.858,1.114 -4.181,1.671 -6.968,1.691 -1.405,-0.01 -2.78,-0.216 -4.121,-0.629 -1.337,-0.402 -2.584,-1.046 -3.727,-1.915 -1.14,-0.875 -2.128,-2.029 -2.94,-3.448 V 0 Z"
           style="fill:#ffffff;fill-opacity:1;fill-rule:nonzero;stroke:none"
           id="path716" />
      </g>
      <g
         id="g718"
         transform="matrix(9.9999991,0,0,9.9999991,18906.865,10011.353)"
         style="fill:#ffffff;fill-opacity:1">
        <path
           d="m 0,0 v -8.733 h -6.357 v -2.485 H 0 v -18.254 c -0.016,-1.966 0.248,-3.673 0.78,-5.109 0.522,-1.437 1.406,-2.552 2.643,-3.333 1.23,-0.786 2.908,-1.177 5.006,-1.185 0.946,0.002 1.884,0.143 2.827,0.411 0.936,0.269 1.876,0.636 2.816,1.097 l -1.031,2.42 c -0.766,-0.364 -1.537,-0.66 -2.328,-0.876 -0.788,-0.217 -1.545,-0.329 -2.284,-0.333 -1.534,0.008 -2.705,0.306 -3.502,0.887 -0.797,0.584 -1.332,1.394 -1.618,2.428 -0.278,1.031 -0.411,2.234 -0.392,3.593 v 18.254 h 10.188 v 2.485 H 2.917 v 9.039 z"
           style="fill:#ffffff;fill-opacity:1;fill-rule:nonzero;stroke:none"
           id="path720" />
      </g>
      <g
         id="g722"
         transform="matrix(9.9999991,0,0,9.9999991,19471.346,9624.5861)">
        <path
           d="M 0,0 V 42.367 H -7.939 V 24.491 h -20.845 v 17.876 h -8.005 V 0 h 8.005 V 17.102 H -7.939 V 0 Z"
           style="fill:#3194d2;fill-opacity:1;fill-rule:nonzero;stroke:none"
           id="path724" />
      </g>
      <g
         id="g726"
         transform="matrix(9.9999991,0,0,9.9999991,19746.737,10049.469)">
        <path
           d="M 0,0 C -3.337,0.028 -6.672,0.034 -10.011,0.028 -13.341,0.016 -16.681,0.009 -20.01,0 v -42.488 h 8.005 v 12.492 H 0 c 2.594,0.021 4.868,0.453 6.823,1.291 1.942,0.84 3.565,1.976 4.867,3.396 1.292,1.426 2.264,3.031 2.912,4.803 0.645,1.781 0.971,3.617 0.967,5.511 0,1.893 -0.325,3.728 -0.979,5.507 -0.651,1.779 -1.623,3.382 -2.922,4.801 C 10.373,-3.262 8.745,-2.129 6.8,-1.289 4.857,-0.445 2.594,-0.018 0,0 M -12.005,-7.631 H 0 c 1.697,-0.031 3.11,-0.4 4.244,-1.114 1.135,-0.716 1.985,-1.65 2.554,-2.782 0.571,-1.138 0.858,-2.344 0.858,-3.62 0.005,-1.271 -0.279,-2.482 -0.84,-3.611 C 6.248,-19.896 5.399,-20.824 4.261,-21.54 3.127,-22.262 1.704,-22.633 0,-22.66 h -12.005 z"
           style="fill:#3194d2;fill-opacity:1;fill-rule:nonzero;stroke:none"
           id="path728" />
      </g>
      <g
         id="g730"
         transform="matrix(9.9999991,0,0,9.9999991,20275.698,9733.0821)">
        <path
           d="M 0,0 C -0.938,-0.935 -2.003,-1.719 -3.177,-2.356 -4.36,-2.999 -5.595,-3.482 -6.875,-3.808 -8.16,-4.139 -9.42,-4.31 -10.66,-4.31 c -2.624,0.025 -4.851,0.445 -6.705,1.251 -1.853,0.825 -3.356,1.922 -4.517,3.295 -1.158,1.381 -2.016,2.914 -2.559,4.615 -0.546,1.696 -0.83,3.43 -0.838,5.21 -0.02,1.795 0.256,3.564 0.821,5.291 0.555,1.737 1.433,3.312 2.619,4.73 1.182,1.426 2.702,2.561 4.559,3.404 1.851,0.845 4.054,1.289 6.62,1.305 1.868,0 3.684,-0.324 5.456,-0.977 1.767,-0.657 3.367,-1.663 4.78,-3.023 l 5.339,5.15 c -2.196,2.155 -4.625,3.77 -7.27,4.856 -2.648,1.092 -5.414,1.625 -8.305,1.635 -3.073,-0.018 -5.814,-0.44 -8.243,-1.27 -2.421,-0.823 -4.528,-1.961 -6.317,-3.41 -1.793,-1.461 -3.28,-3.136 -4.456,-5.028 -1.178,-1.894 -2.059,-3.923 -2.633,-6.081 -0.567,-2.155 -0.854,-4.351 -0.843,-6.582 0.014,-2.225 0.296,-4.393 0.848,-6.511 0.562,-2.128 1.409,-4.114 2.557,-5.956 1.138,-1.856 2.606,-3.483 4.374,-4.893 1.776,-1.409 3.875,-2.515 6.325,-3.308 2.433,-0.799 5.233,-1.202 8.388,-1.21 3.071,-0.011 5.978,0.499 8.716,1.532 2.733,1.035 5.205,2.617 7.4,4.764 z"
           style="fill:#3194d2;fill-opacity:1;fill-rule:nonzero;stroke:none"
           id="path732" />
      </g>
    </g>
  </g>
</svg>
