<?xml version="1.0" encoding="UTF-8" standalone="no"?>
<!-- Created with Inkscape (http://www.inkscape.org/) -->

<svg
   version="1.1"
   id="svg148"
   width="344.93201"
   height="344.93399"
   viewBox="0 0 344.93199 344.93398"
   sodipodi:docname="alces-cloud.svg"
   inkscape:version="1.3.2 (091e20e, 2023-11-25)"
   xmlns:inkscape="http://www.inkscape.org/namespaces/inkscape"
   xmlns:sodipodi="http://sodipodi.sourceforge.net/DTD/sodipodi-0.dtd"
   xmlns="http://www.w3.org/2000/svg"
   xmlns:svg="http://www.w3.org/2000/svg">
  <defs
     id="defs152">
    <clipPath
       clipPathUnits="userSpaceOnUse"
       id="clipPath164">
      <path
         d="M 0,800 H 800 V 0 H 0 Z"
         id="path162" />
    </clipPath>
    <clipPath
       clipPathUnits="userSpaceOnUse"
       id="clipPath10195">
      <path
         d="m -22.583301,-20.854593 c 4.363505,7.501474 5.971502,15.4002649 4.579725,21.980123 -0.03996,0.2812519 -0.08442,0.5622992 -0.123301,0.8453995 -2.952203,14.5085195 -13.249766,26.1050385 -30.747836,34.6208915 -13.963804,6.79701 -36.633853,13.789174 -51.242317,13.937137 21.978146,8.002356 18.01184,24.648908 18.01184,24.648908 -1.758327,-0.906205 -5.745572,-1.770376 -11.043181,-2.606941 -18.309599,-1.215881 -43.523969,3.135048 -43.523969,3.135048 l -22.50735,-10.003402 -14.44898,-1.536454 c -23.51191,-2.340167 -34.89537,-3.799309 -57.94822,-11.406592 -25.48483,-8.392239 -43.56754,-21.462398 -53.96013,-38.944887 -0.18677,-0.353124 -0.36448,-0.690523 -0.54159,-1.027033 -9.69699,-16.1267362 -6.67482,-40.162935 12.98283,-55.124005 15.78884,-11.997995 -1.85759,28.186876 29.12414,53.432465 -1.47659,-20.8748629 11.05933,-39.518684 14.41889,-23.773444 3.02696,14.0182479 12.00537,27.208853 23.88111,35.412556 -1.14153,-18.5020755 9.44532,-32.87119 11.85628,-17.8574078 5.85747,36.3533428 72.32909,40.5525598 74.07771,40.6405728 0,0 -4.39026,-1.555118 -12.35765,-5.154541 24.5946,-3.491699 42.085887,-21.597581 39.363768,-38.4915086 -1.934161,-11.9852984 9.998359,-1.49964327 14.608823,13.1261496 6.8808,-7.342692 10.015501,-18.3616326 8.182254,-29.590193 -2.016852,-12.609111 13.345543,1.078779 18.402328,17.5612071 16.805195,-22.1413541 -8.995103,-52.3266431 6.956063,-44.1062091 10.074455,5.204887 17.507474,12.561006 21.998763,20.28216"
         style="fill:#1a1a1a;fill-opacity:1;fill-rule:nonzero;stroke:none;stroke-width:1.00507"
         id="path10197" />
    </clipPath>
  </defs>
  <sodipodi:namedview
     id="namedview150"
     pagecolor="#505050"
     bordercolor="#eeeeee"
     borderopacity="1"
     inkscape:showpageshadow="0"
     inkscape:pageopacity="0"
     inkscape:pagecheckerboard="0"
     inkscape:deskcolor="#505050"
     showgrid="false"
     inkscape:zoom="0.8353124"
     inkscape:cx="188.55221"
     inkscape:cy="214.88966"
     inkscape:window-width="1424"
     inkscape:window-height="1212"
     inkscape:window-x="939"
     inkscape:window-y="146"
     inkscape:window-maximized="0"
     inkscape:current-layer="g156">
    <inkscape:page
       x="0"
       y="0"
       id="page154"
       width="344.93198"
       height="344.93399"
       margin="0"
       bleed="0" />
  </sodipodi:namedview>
  <g
     id="g156"
     inkscape:groupmode="layer"
     inkscape:label="Page 1"
     transform="matrix(1.3333333,0,0,-1.3333333,-348.1343,746.28916)">
    <g
       id="g158"
       style="fill:#687888;fill-opacity:1"
       inkscape:export-filename="solo_logo.png"
       inkscape:export-xdpi="96"
       inkscape:export-ydpi="96">
      <g
         id="g160"
         clip-path="url(#clipPath164)"
         style="fill:#687888;fill-opacity:1">
        <g
           id="g206"
           transform="translate(529.3506,412.5488)"
           style="fill:#687888;fill-opacity:1">
          <g
             id="g10187"
             style="fill:#687888;fill-opacity:1"
             transform="translate(3.8707662e-6,-40.6059)">
            <path
               style="fill:#687888;fill-opacity:1;stroke:none;stroke-width:0.255539;stroke-dasharray:none"
               id="path9126"
               transform="matrix(0.91374223,-0.40629439,-0.53151137,-0.84705116,0,0)"
               sodipodi:type="arc"
               sodipodi:cx="-154.71002"
               sodipodi:cy="1.5329264"
               sodipodi:rx="139.85085"
               sodipodi:ry="87.764786"
               sodipodi:start="2.980681"
               sodipodi:end="2.9803479"
               sodipodi:open="true"
               sodipodi:arc-type="chord"
               d="M -292.75422,15.594438 A 139.85085,87.764786 0 0 1 -177.12816,-85.09691 139.85085,87.764786 0 0 1 -16.669555,-12.543013 139.85085,87.764786 0 0 1 -132.26889,88.160419 139.85085,87.764786 0 0 1 -292.74675,15.623294 Z"
               clip-path="url(#clipPath10195)" />
          </g>
        </g>
      </g>
    </g>
  </g>
</svg>
