<svg width="50" height="50" version="1.1" viewBox="0 0 50 50" xmlns="http://www.w3.org/2000/svg"><path d="m50 32c0 1.6-0.52 3-1.4 3.9-0.036 0.042-0.072 0.084-0.11 0.13-2 2.1-5 3.2-8.9 3.2-3.1 0.016-7.8-0.61-10-1.7 3 3 0.64 5.4 0.64 5.4-0.21-0.28-0.82-0.73-1.7-1.3-3.1-1.6-7.9-2.9-7.9-2.9l-2.9-3.4-2.4-1.4c-3.9-2.2-5.7-3.3-9-6.3-3.6-3.3-5.4-6.9-5.5-10 0.0033-0.072 0.0065-0.14 0.0097-0.21-0.055-3.4 2.9-7 7.9-7.9 4-0.72-3.2 4.4-0.34 11 1.9-3.5 5.9-5.5 4.9-2.7-0.89 2.5-0.67 5.3 0.57 7.6 1.7-3.1 5-4.6 3.9-2-2.7 6.3 8.5 12 8.8 12 0 0-0.61-0.59-1.6-1.8 4.6 1.3 9.5-0.23 11-3.2 0.88-2.1 1.9 0.53 1.2 3.3 1.9-0.65 3.6-2.2 4.4-4.2 0.93-2.2 2.2 1.2 1.4 4.3 5.2-2.3 3.7-9.2 5.7-6.6 1.2 1.6 1.8 3.4 1.8 5" fill="currentColor"/></svg>
