<?xml version="1.0" encoding="UTF-8" standalone="no"?>
<!-- Created with Inkscape (http://www.inkscape.org/) -->

<svg
   width="129.11667mm"
   height="67.267029mm"
   viewBox="0 0 129.11667 67.267029"
   version="1.1"
   id="svg5"
   class="cloud parting-cloud"
   xml:space="preserve"
   inkscape:version="1.2.2 (b0a8486, 2022-12-01)"
   sodipodi:docname="parting_cloud_l.svg"
   xmlns:inkscape="http://www.inkscape.org/namespaces/inkscape"
   xmlns:sodipodi="http://sodipodi.sourceforge.net/DTD/sodipodi-0.dtd"
   xmlns="http://www.w3.org/2000/svg"
   xmlns:svg="http://www.w3.org/2000/svg"><sodipodi:namedview
     id="namedview7"
     pagecolor="#505050"
     bordercolor="#eeeeee"
     borderopacity="1"
     inkscape:showpageshadow="0"
     inkscape:pageopacity="0"
     inkscape:pagecheckerboard="0"
     inkscape:deskcolor="#505050"
     inkscape:document-units="mm"
     showgrid="false"
     inkscape:zoom="1.1893044"
     inkscape:cx="155.1327"
     inkscape:cy="106.3647"
     inkscape:window-width="1846"
     inkscape:window-height="1136"
     inkscape:window-x="74"
     inkscape:window-y="27"
     inkscape:window-maximized="1"
     inkscape:current-layer="layer1"><inkscape:grid
       type="xygrid"
       id="grid1543"
       originx="0"
       originy="-0.20172116" /></sodipodi:namedview><defs
     id="defs2"><inkscape:path-effect
       effect="powermask"
       id="path-effect5711"
       is_visible="true"
       lpeversion="1"
       uri="#mask-powermask-path-effect5711"
       invert="false"
       hide_mask="false"
       background="true"
       background_color="#ffffffff" /><inkscape:path-effect
       effect="powermask"
       id="path-effect5706"
       is_visible="true"
       lpeversion="1"
       uri="#mask-powermask-path-effect5706"
       invert="false"
       hide_mask="false"
       background="true"
       background_color="#ffffffff" /><inkscape:path-effect
       effect="powermask"
       id="path-effect5701"
       is_visible="true"
       lpeversion="1"
       uri="#mask-powermask-path-effect5701"
       invert="false"
       hide_mask="false"
       background="true"
       background_color="#ffffffff" /><inkscape:path-effect
       effect="powermask"
       id="path-effect5696"
       is_visible="true"
       lpeversion="1"
       uri="#mask-powermask-path-effect5696"
       invert="false"
       hide_mask="false"
       background="true"
       background_color="#ffffffff" /><inkscape:path-effect
       effect="powermask"
       id="path-effect5685"
       is_visible="true"
       lpeversion="1"
       uri="#mask-powermask-path-effect5685"
       invert="false"
       hide_mask="false"
       background="true"
       background_color="#ffffffff" /><inkscape:path-effect
       effect="powermask"
       id="path-effect5654"
       is_visible="true"
       lpeversion="1"
       uri="#mask-powermask-path-effect5654"
       invert="false"
       hide_mask="false"
       background="true"
       background_color="#ffffffff" /><inkscape:path-effect
       effect="powermask"
       id="path-effect5649"
       is_visible="true"
       lpeversion="1"
       uri="#mask-powermask-path-effect5649"
       invert="false"
       hide_mask="false"
       background="true"
       background_color="#ffffffff" /><inkscape:path-effect
       effect="powermask"
       id="path-effect5644"
       is_visible="true"
       lpeversion="1"
       uri="#mask-powermask-path-effect5644"
       invert="false"
       hide_mask="false"
       background="true"
       background_color="#ffffffff" /><inkscape:path-effect
       effect="powerclip"
       id="path-effect1986"
       is_visible="true"
       lpeversion="1"
       inverse="true"
       flatten="false"
       hide_clip="false"
       message="Use fill-rule evenodd on &lt;b&gt;fill and stroke&lt;/b&gt; dialog if no flatten result after convert clip to paths." /><inkscape:path-effect
       effect="powerclip"
       id="path-effect1982"
       is_visible="true"
       lpeversion="1"
       inverse="true"
       flatten="false"
       hide_clip="false"
       message="Use fill-rule evenodd on &lt;b&gt;fill and stroke&lt;/b&gt; dialog if no flatten result after convert clip to paths." /><inkscape:path-effect
       effect="powerclip"
       id="path-effect569"
       is_visible="true"
       lpeversion="1"
       inverse="true"
       flatten="false"
       hide_clip="false"
       message="Use fill-rule evenodd on &lt;b&gt;fill and stroke&lt;/b&gt; dialog if no flatten result after convert clip to paths." /><clipPath
       clipPathUnits="userSpaceOnUse"
       id="clipPath559"><g
         inkscape:label="Clip"
         id="use561"><ellipse
           style="fill:#bde7f9;fill-opacity:1;stroke-width:0.308793"
           id="ellipse1579"
           clip-path="url(#clipPath565)"
           inkscape:label="path300-6"
           cx="-42.661259"
           cy="125.21539"
           rx="18.995796"
           ry="11.882337" /></g></clipPath><clipPath
       clipPathUnits="userSpaceOnUse"
       id="clipPath565"><rect
         style="display:block;fill:#000000;stroke-width:0.264583"
         id="rect567"
         width="15.524405"
         height="28.723793"
         x="-63.550354"
         y="111.13319" /></clipPath><clipPath
       clipPathUnits="userSpaceOnUse"
       id="clipPath1974"><rect
         style="display:block;fill:#000000;fill-opacity:1;stroke-width:0.264583"
         id="rect1976"
         width="58.197968"
         height="18.658361"
         x="26.516808"
         y="176.25484" /></clipPath><clipPath
       clipPathUnits="userSpaceOnUse"
       id="clipPath1978"><rect
         style="display:block;fill:#000000;fill-opacity:1;stroke-width:0.264583"
         id="rect1980"
         width="58.197968"
         height="18.658361"
         x="26.516808"
         y="176.25484" /></clipPath><mask
       maskUnits="userSpaceOnUse"
       id="mask-powermask-path-effect5644"><rect
         style="fill:#000000;fill-opacity:1;stroke-width:0.266558"
         id="rect5634"
         width="12.733641"
         height="42.391792"
         x="-35.957672"
         y="209.65794"
         ry="0"
         transform="matrix(0.99315317,-0.11681947,-0.00432156,0.99999066,0,0)" /></mask><mask
       maskUnits="userSpaceOnUse"
       id="mask-powermask-path-effect5649"><rect
         style="fill:#000000;fill-opacity:1;stroke-width:0.266558"
         id="rect5638"
         width="12.733641"
         height="42.391792"
         x="-35.957672"
         y="209.65794"
         ry="0"
         transform="matrix(0.99315317,-0.11681947,-0.00432156,0.99999066,0,0)" /></mask><mask
       maskUnits="userSpaceOnUse"
       id="mask-powermask-path-effect5654"><rect
         style="fill:#000000;fill-opacity:1;stroke-width:0.26562"
         id="rect5642"
         width="13.378579"
         height="40.064793"
         x="-37.77887"
         y="198.14925"
         ry="0"
         transform="matrix(0.77072186,-0.63717173,0.61689792,0.78704317,0,0)" /></mask><mask
       maskUnits="userSpaceOnUse"
       id="mask-powermask-path-effect5685"><rect
         style="fill:#000000;fill-opacity:1;stroke-width:0.853977"
         id="rect5667"
         width="79.647484"
         height="16.420591"
         x="-50.440907"
         y="176.33417" /></mask><mask
       maskUnits="userSpaceOnUse"
       id="mask-powermask-path-effect5696"><rect
         style="fill:#000000;fill-opacity:1;stroke-width:0.853977"
         id="rect5671"
         width="79.647484"
         height="16.420591"
         x="-50.440907"
         y="176.33417" /></mask><mask
       maskUnits="userSpaceOnUse"
       id="mask-powermask-path-effect5701"><rect
         style="fill:#000000;fill-opacity:1;stroke-width:0.858368"
         id="rect5675"
         width="76.435257"
         height="17.287088"
         x="-48.406597"
         y="185.63913"
         transform="matrix(0.92190181,0.3874236,-0.45743477,0.88924318,0,0)" /></mask><mask
       maskUnits="userSpaceOnUse"
       id="mask-powermask-path-effect5706"><rect
         style="fill:#000000;fill-opacity:1;stroke-width:0.854121"
         id="rect5679"
         width="79.13665"
         height="16.532152"
         x="-50.117397"
         y="177.53218"
         transform="matrix(0.9426907,-0.33366787,0.348518,0.93730209,0,0)" /></mask><mask
       maskUnits="userSpaceOnUse"
       id="mask-powermask-path-effect5711"><rect
         style="fill:#000000;fill-opacity:1;stroke-width:0.860482"
         id="rect5683"
         width="73.615921"
         height="18.037678"
         x="-23.369637"
         y="269.9267"
         transform="matrix(-0.75034015,0.66105193,-0.67482624,-0.73797666,0,0)" /></mask></defs><g
     inkscape:label="Layer 1"
     inkscape:groupmode="layer"
     id="layer1"
     transform="translate(48.081552,-109.3611)"><g
       id="g1404"
       style="display:inline"><g
         id="g949"
         style="display:inline;fill:#bde7f9;fill-opacity:1"
         transform="translate(-0.048541,0.20172)"><path
           id="path672"
           style="display:inline;fill:#bde7f9;fill-opacity:1;stroke-width:1.12039"
           d="M -21.996357 109.1599 C -22.729022 109.1669 -23.460046 109.22483 -24.183304 109.33198 C -28.116253 109.91559 -31.582838 111.97903 -33.86385 114.74302 C -37.385006 113.6765 -40.15335 113.369 -43.114448 113.41183 L -43.168192 113.4108 C -44.87615 113.4326 -46.415813 113.698 -48.033011 113.98493 L -48.033011 176.42659 L -32.951761 176.42659 L -7.3858797 176.42659 L -7.3858797 176.42608 L 17.319072 176.42608 L 17.319072 176.42659 L 33.987822 176.42659 L 43.777406 176.42659 L 60.252886 176.42659 L 67.743385 176.42659 L 81.083656 176.42659 A 11.210077 8.9621859 0 0 0 70.461048 170.77164 A 11.210077 8.9621859 0 0 0 68.867864 170.88636 A 11.210077 8.9621859 0 0 0 67.233855 171.20572 A 19.441946 15.507764 0 0 0 48.032443 159.48189 A 19.441946 15.507764 0 0 0 45.269821 159.67981 A 19.441946 15.507764 0 0 0 41.922222 160.37382 C 40.267146 158.59971 37.70633 157.50016 34.894744 157.54402 L 34.894744 157.54351 C 34.690433 157.54693 34.486836 157.5561 34.283412 157.57141 C 34.290405 156.96197 34.237433 156.35202 34.123731 155.74827 C 33.132211 150.48857 27.807959 146.656 21.627336 146.75295 L 21.627336 146.75243 C 21.03538 146.76143 20.444938 146.80713 19.860519 146.88886 C 19.803939 146.89678 19.747812 146.90614 19.691537 146.9147 A 23.146471 19.172058 49.960503 0 0 10.424403 124.03031 A 23.146471 19.172058 49.960503 0 0 -5.3136547 118.11387 A 23.146471 19.172058 49.960503 0 0 -7.9253816 118.38517 C -9.6858149 112.8479 -15.502022 109.09279 -21.996357 109.16041 L -21.996357 109.1599 z " /></g><g
         id="g1389"
         style="display:inline;fill:#d4f0fd;fill-opacity:1"
         transform="translate(0.07036767,0.17487)"><path
           id="path1365"
           style="fill:#d4f0fd;fill-opacity:1;stroke-width:0.549431"
           d="M -43.675707 142.50099 C -44.773336 142.51199 -45.868492 142.59489 -46.951993 142.74904 C -47.310632 142.80414 -47.76292 142.93836 -48.15192 143.11594 L -48.15192 176.45344 L -29.10192 176.45344 L -6.0831697 176.45344 L -6.0831697 176.44259 L -4.4961864 176.42657 C -4.4960096 176.43554 -4.4958628 176.44447 -4.4956697 176.45344 L 28.577247 176.45344 C 28.597437 175.51924 28.452112 174.48343 28.291993 173.56111 C 26.980193 166.01115 19.963006 160.49282 11.78499 160.57999 C 10.960212 160.58899 10.13729 160.65529 9.3231251 160.77895 C 6.1433148 161.26285 3.3106619 162.58996 1.050245 164.48725 C -0.10655661 163.76428 -1.6456878 163.33771 -3.306595 163.35863 L -3.306595 163.35812 C -3.6075148 163.36212 -3.9076577 163.38053 -4.2047314 163.41393 C -4.9643329 163.49912 -5.6703983 163.67471 -6.3033113 163.92191 C -7.7490002 160.52646 -11.353691 158.20683 -15.456241 158.2499 C -15.940658 158.2549 -16.423977 158.2936 -16.902148 158.36514 C -18.627009 158.62315 -20.199568 159.2951 -21.493599 160.26942 C -21.540305 159.74008 -21.609542 159.21035 -21.707539 158.68192 C -23.453042 149.27102 -32.791868 142.39239 -43.675707 142.50099 z " /></g></g></g></svg>
