<?xml version="1.0" encoding="UTF-8" standalone="no"?>
<!-- Created with Inkscape (http://www.inkscape.org/) -->

<svg
   width="112mm"
   height="112mm"
   viewBox="0 0 112 112"
   version="1.1"
   id="svg4837"
   inkscape:version="1.2.2 (b0a8486, 2022-12-01)"
   sodipodi:docname="cfd2.svg"
   xmlns:inkscape="http://www.inkscape.org/namespaces/inkscape"
   xmlns:sodipodi="http://sodipodi.sourceforge.net/DTD/sodipodi-0.dtd"
   xmlns:xlink="http://www.w3.org/1999/xlink"
   xmlns="http://www.w3.org/2000/svg"
   xmlns:svg="http://www.w3.org/2000/svg">
  <sodipodi:namedview
     id="namedview4839"
     pagecolor="#505050"
     bordercolor="#eeeeee"
     borderopacity="1"
     inkscape:showpageshadow="0"
     inkscape:pageopacity="0"
     inkscape:pagecheckerboard="0"
     inkscape:deskcolor="#505050"
     inkscape:document-units="mm"
     showgrid="false"
     inkscape:zoom="0.84096521"
     inkscape:cx="142.09863"
     inkscape:cy="390.62258"
     inkscape:window-width="1850"
     inkscape:window-height="1136"
     inkscape:window-x="70"
     inkscape:window-y="27"
     inkscape:window-maximized="1"
     inkscape:current-layer="layer1" />
  <defs
     id="defs4834">
    <linearGradient
       inkscape:collect="always"
       xlink:href="#linearGradient2440"
       id="linearGradient13865"
       gradientUnits="userSpaceOnUse"
       gradientTransform="matrix(0.84746676,0,0,0.83182323,5.0231614,10.406359)"
       x1="45.465698"
       y1="10.929073"
       x2="45.465698"
       y2="77.929077" />
    <linearGradient
       inkscape:collect="always"
       id="linearGradient2440">
      <stop
         style="stop-color:#50e0cf;stop-opacity:1;"
         offset="0"
         id="stop2436" />
      <stop
         style="stop-color:#50a9e0;stop-opacity:1;"
         offset="1"
         id="stop2438" />
    </linearGradient>
  </defs>
  <g
     inkscape:label="Layer 1"
     inkscape:groupmode="layer"
     id="layer1">
    <path
       id="rect184-6-7-0"
       style="display:inline;fill:url(#linearGradient13865);fill-opacity:1;stroke:none;stroke-width:0.357672;stroke-linecap:round;stroke-linejoin:round"
       d="M 35.404798 19.694763 C 35.274806 19.695963 35.144181 19.699852 35.013523 19.706222 C 30.832497 19.909534 27.217262 22.709786 25.977031 26.707805 C 24.86936 30.278497 25.864453 34.135332 28.463583 36.724161 L 24.879785 37.211578 L 26.790324 38.664046 L 31.834974 37.977918 L 31.148846 32.933267 L 29.238307 31.48052 L 29.740536 35.172198 C 27.758853 33.104624 27.01894 30.099742 27.887011 27.301425 C 28.880235 24.099664 31.76302 21.86678 35.111342 21.703959 C 38.459661 21.541137 41.54486 23.482529 42.844051 26.572815 C 44.14324 29.663101 43.372784 33.228166 40.913948 35.506738 L 40.925406 35.519035 L 15.617471 60.81104 L 17.015719 62.209847 L 42.271112 36.970106 L 42.273628 36.97318 C 44.576378 34.83925 45.694806 31.790995 45.425905 28.772339 C 45.336276 27.76612 45.093087 26.764473 44.687514 25.799768 C 43.115921 22.061534 39.434533 19.656585 35.404798 19.694763 z M 69.702552 20.860482 L 62.883191 20.863277 L 60.611002 23.136863 L 66.008638 23.134907 L 22.044998 67.129011 L 23.465047 68.5485 L 67.430922 24.554396 L 67.43232 29.95343 L 69.704509 27.679844 L 69.702552 20.860482 z M 18.291555 35.619089 C 17.744271 36.325861 17.986939 36.488964 17.672782 36.80577 C 17.349837 37.13144 17.244901 36.858088 16.458153 37.452212 C 17.258803 38.053243 17.3236 37.752718 17.644833 38.071265 C 17.966067 38.38982 17.698604 38.490614 18.291275 39.285894 C 18.870557 38.4779 18.596181 38.415739 18.910328 38.098933 C 19.233272 37.773263 19.37539 38.013566 20.124957 37.452491 C 19.286168 36.829108 19.254801 37.147873 18.937997 36.833718 C 18.612328 36.510771 18.818932 36.322182 18.291555 35.619089 z M 19.963416 41.183297 C 19.063941 42.344946 19.462433 42.613099 18.946102 43.133802 C 18.415309 43.669077 18.242846 43.219882 16.949762 44.196393 C 18.265697 45.184195 18.372557 44.689863 18.900546 45.213428 C 19.428535 45.736987 18.988753 45.902925 19.962857 47.210047 C 20.914943 45.88203 20.463836 45.779961 20.980172 45.259263 C 21.510975 44.723988 21.744522 45.118862 22.976512 44.196672 C 21.597861 43.172781 21.546426 43.695979 21.025728 43.179637 C 20.490458 42.64885 20.830197 42.338885 19.963416 41.183297 z M 61.170805 45.339195 C 58.459491 45.371885 55.813311 46.510897 53.915451 48.594881 L 28.720427 73.804718 L 30.119514 75.202967 L 55.322364 49.984465 L 55.339971 49.999837 C 57.581378 47.48869 61.148836 46.656757 64.269701 47.917696 C 67.390567 49.178632 69.3805 52.255726 69.248394 55.619102 C 69.116287 58.982481 66.891823 61.893767 63.681671 62.906037 C 60.883275 63.788466 57.872075 63.057524 55.795806 61.08074 L 59.350538 61.564523 L 57.89807 59.654543 L 52.85342 58.968415 L 52.166732 64.013065 L 53.619759 65.922766 L 54.12143 62.236398 C 56.721386 64.924669 60.654066 65.956746 64.283116 64.812384 C 68.291503 63.548403 71.081176 59.896793 71.246132 55.697078 C 71.411087 51.497362 68.916451 47.639211 65.019552 46.06473 C 64.045328 45.671108 63.034781 45.43951 62.023504 45.364907 C 61.739083 45.343927 61.4546 45.335775 61.170805 45.339195 z M 46.707331 67.664778 C 45.804341 68.830956 46.204738 69.100375 45.686383 69.623108 C 45.153514 70.16047 44.980354 69.709288 43.682217 70.689612 C 45.003294 71.681227 45.110229 71.185235 45.640268 71.710839 C 46.170313 72.236448 45.729149 72.402788 46.707051 73.715004 C 47.662845 72.381804 47.209923 72.279401 47.728278 71.756674 C 48.261147 71.219307 48.495642 71.615959 49.732444 70.69017 C 48.348417 69.662001 48.296841 70.187304 47.774113 69.668943 C 47.236752 69.136085 47.577501 68.824879 46.707331 67.664778 z M 53.215069 70.656633 C 52.677363 71.35111 52.915608 71.511335 52.606917 71.822632 C 52.2896 72.142636 52.186589 71.874115 51.413528 72.457894 C 52.20024 73.048447 52.263869 72.75304 52.579527 73.066047 C 52.89517 73.379059 52.632433 73.477985 53.21479 74.259435 C 53.783941 73.465506 53.514256 73.404722 53.822943 73.093436 C 54.140275 72.773421 54.279793 73.00949 55.016331 72.458174 C 54.192124 71.845874 54.161639 72.158708 53.850332 71.850021 C 53.530332 71.532689 53.733257 71.34749 53.215069 70.656633 z "
       transform="matrix(1.8490074,0,0,1.8490074,-24.312756,-31.732844)" />
  </g>
</svg>
