<?xml version="1.0" encoding="UTF-8" standalone="no"?>
<!-- Created with Inkscape (http://www.inkscape.org/) -->

<svg
   width="112mm"
   height="112mm"
   viewBox="0 0 112 112"
   version="1.1"
   id="svg5"
   inkscape:version="1.2.2 (b0a8486, 2022-12-01)"
   sodipodi:docname="big_data.svg"
   xml:space="preserve"
   xmlns:inkscape="http://www.inkscape.org/namespaces/inkscape"
   xmlns:sodipodi="http://sodipodi.sourceforge.net/DTD/sodipodi-0.dtd"
   xmlns="http://www.w3.org/2000/svg"
   xmlns:svg="http://www.w3.org/2000/svg"><sodipodi:namedview
     id="namedview7"
     pagecolor="#505050"
     bordercolor="#eeeeee"
     borderopacity="1"
     inkscape:showpageshadow="0"
     inkscape:pageopacity="0"
     inkscape:pagecheckerboard="0"
     inkscape:deskcolor="#505050"
     inkscape:document-units="mm"
     showgrid="false"
     inkscape:zoom="1.6819304"
     inkscape:cx="254.76678"
     inkscape:cy="225.03904"
     inkscape:window-width="1846"
     inkscape:window-height="1136"
     inkscape:window-x="74"
     inkscape:window-y="27"
     inkscape:window-maximized="1"
     inkscape:current-layer="g15697"><inkscape:page
       x="0"
       y="0"
       width="112"
       height="112"
       id="page14974" /><inkscape:page
       x="395.63541"
       y="125.92789"
       width="264.58334"
       height="176.38889"
       id="page14976" /></sodipodi:namedview><defs
     id="defs2"><clipPath
       clipPathUnits="userSpaceOnUse"
       id="clipPath14274"><path
         d="m 4275.8,3856.45 c 0,58.56 -30.7,110.56 -78.27,143.98 5.26,16.25 8.22,33.38 8.22,51.17 0,100.86 -90.73,182.63 -202.65,182.63 -9.27,0 -18.31,-0.75 -27.25,-1.84 -13.89,88.68 -98.2,156.96 -200.42,156.96 -67.32,0 -126.81,-29.71 -163.66,-75.24 -51.88,62.97 -147.18,85.03 -233.63,47.92 -61.8,-26.53 -104.72,-77.23 -120.66,-133.55 -62.27,11.93 -132.34,-8.47 -184.13,-60.25 -62.56,-62.57 -79.42,-151.84 -48.57,-221.75 -46.1,-49.25 -64.74,-125.57 -42.16,-200.36 32.35,-107.14 136.85,-170.37 233.41,-141.22 2.96,0.9 5.74,2.1 8.61,3.14 20.83,-63.16 77.56,-115.71 152.63,-132.76 71.83,-16.31 142.39,4.1 188.72,47.9 20.04,-12.33 42.52,-21.88 67.11,-27.47 28.76,-6.53 57.28,-7.05 84.19,-2.7 73.28,-35.9 118.91,-90.17 138.2,-161.95 h 88.18 l -17.65,143.68 c 13.57,-2.59 27.62,-3.99 42.05,-3.99 111.92,0 202.65,81.76 202.65,182.63 0,13.99 -1.9,27.55 -5.21,40.64 65.44,30.29 110.29,91.58 110.29,162.43 z"
         id="path14272" /></clipPath><linearGradient
       x1="0.27682123"
       y1="-0.45779732"
       x2="0.27578914"
       y2="1.0104842"
       gradientUnits="userSpaceOnUse"
       gradientTransform="matrix(78.606106,0,0,88.297474,72.158065,-119.50858)"
       spreadMethod="pad"
       id="linearGradient14280"><stop
         style="stop-color:#50e0cf;stop-opacity:1;"
         offset="0"
         id="stop14276" /><stop
         style="stop-color:#50a9e0;stop-opacity:1;"
         offset="1"
         id="stop14278" /></linearGradient><linearGradient
       x1="0.0067826705"
       y1="0.0019979638"
       x2="1.0120909"
       y2="-0.018119432"
       gradientUnits="userSpaceOnUse"
       gradientTransform="matrix(0,-134.505,-134.505,0,4065.85,4456.6)"
       spreadMethod="pad"
       id="linearGradient14338"><stop
         style="stop-color:#50ded0;stop-opacity:1;"
         offset="0"
         id="stop14334" /><stop
         style="stop-color:#50dad1;stop-opacity:1;"
         offset="1"
         id="stop14336" /></linearGradient><linearGradient
       x1="-0.024107376"
       y1="0.0035027824"
       x2="1.0098109"
       y2="-0.0027844063"
       gradientUnits="userSpaceOnUse"
       gradientTransform="matrix(0,-134.505,-134.505,0,2905.79,3729.47)"
       spreadMethod="pad"
       id="linearGradient14354"><stop
         style="stop-color:#50cbd6;stop-opacity:1;"
         offset="0"
         id="stop14350" /><stop
         style="stop-color:#50c7d7;stop-opacity:1;"
         offset="1"
         id="stop14352" /></linearGradient><linearGradient
       x1="0.014287399"
       y1="0.023535233"
       x2="1.0001165"
       y2="-0.010450067"
       gradientUnits="userSpaceOnUse"
       gradientTransform="matrix(0,-66.9822,-66.9822,0,4184.62,4295.47)"
       spreadMethod="pad"
       id="linearGradient14370"><stop
         style="stop-color:#50dbd1;stop-opacity:1;"
         offset="0"
         id="stop14366" /><stop
         style="stop-color:#50d9d1;stop-opacity:1;"
         offset="1"
         id="stop14368" /></linearGradient><linearGradient
       x1="0.00014964015"
       y1="0.0026450388"
       x2="1.0018381"
       y2="0.010081807"
       gradientUnits="userSpaceOnUse"
       gradientTransform="matrix(0,-66.9832,-66.9832,0,3024.77,3556.68)"
       spreadMethod="pad"
       id="linearGradient14386"><stop
         style="stop-color:#50c5d7;stop-opacity:1;"
         offset="0"
         id="stop14382" /><stop
         style="stop-color:#50c7d7;stop-opacity:1;"
         offset="1"
         id="stop14384" /></linearGradient><clipPath
       clipPathUnits="userSpaceOnUse"
       id="clipPath14408"><path
         d="m 883.727,3440.09 c 0,0 -0.84,-0.28 -2.25,-0.84 -0.372,0.28 -0.657,0.56 -0.934,0.94 2.059,-0.1 3.184,-0.1 3.184,-0.1 z"
         id="path14406" /></clipPath><linearGradient
       x1="0"
       y1="0"
       x2="1"
       y2="0"
       gradientUnits="userSpaceOnUse"
       gradientTransform="matrix(3.1871,0,0,-3.1871,880.54,3439.72)"
       spreadMethod="pad"
       id="linearGradient14414"><stop
         style="stop-opacity:1;stop-color:#5bc8cd"
         offset="0"
         id="stop14410" /><stop
         style="stop-opacity:1;stop-color:#4191d5"
         offset="1"
         id="stop14412" /></linearGradient><clipPath
       clipPathUnits="userSpaceOnUse"
       id="clipPath14436"><path
         d="m 1126.93,3148.76 c -8.18,-5.71 -16.62,-18.4 -24.71,-35.45 -22.01,-46.03 -42.3,-123.42 -53.02,-177.17 H 586.879 c 29.543,88.74 72.09,260.21 4.019,364.14 0,0.09 -0.082,0.17 -0.171,0.26 -87.52,96.55 -140.438,222.42 -140.438,359.97 0,304.49 259.406,551.37 579.491,551.37 227.05,0 493.17,-146.57 493.17,-400.28 0,-98.6 -31.96,-97.15 -26.08,-145.04 4.26,-35.62 56.16,-126.13 81.64,-183.74 8.78,-19.68 14.4,-35.45 14.06,-43.97 -0.76,-17.3 -23.26,-24.46 -46.44,-28.97 -21.56,-4.18 -43.64,-6.06 -49.26,-11.68 -10.91,-10.82 -11.42,-43.97 1.03,-60.16 0.33,-0.43 0.59,-0.86 0.93,-1.28 9.29,-13.64 4.01,-31.71 -10.57,-40.06 -14.06,-8.01 -27.01,-9.71 -32.55,-10.05 -1.88,-0.09 -2.9,-0.09 -2.9,-0.09 0,0 0.77,-0.25 2.05,-0.76 7.16,-2.82 30.16,-13.64 21.81,-33.5 -9.8,-23.43 -43.46,-14.74 -47.8,-28.29 -4.35,-13.63 28.8,-95.62 -61.11,-118.8 -51.47,-13.29 -109.16,12.36 -156.89,31.37 -35.7,14.14 -65.96,24.54 -83.94,12.18 z"
         id="path14434" /></clipPath><linearGradient
       x1="0"
       y1="0"
       x2="1"
       y2="0"
       gradientUnits="userSpaceOnUse"
       gradientTransform="matrix(0,1275.74,-1275.74,0,1021.44,2936.14)"
       spreadMethod="pad"
       id="linearGradient14442"><stop
         style="stop-opacity:1;stop-color:#5bc8cd"
         offset="0"
         id="stop14438" /><stop
         style="stop-opacity:1;stop-color:#4191d5"
         offset="1"
         id="stop14440" /></linearGradient><clipPath
       clipPathUnits="userSpaceOnUse"
       id="clipPath14588"><path
         d="m 5843.23,3863.09 h 1044.6 c 89.41,0 161.89,-72.48 161.89,-161.89 v 0 c 0,-89.41 -72.48,-161.88 -161.89,-161.88 h -1044.6 z"
         id="path14586" /></clipPath><linearGradient
       x1="0"
       y1="0"
       x2="1"
       y2="0"
       gradientUnits="userSpaceOnUse"
       gradientTransform="matrix(-1206.48,0,0,1206.48,7049.71,3701.2)"
       spreadMethod="pad"
       id="linearGradient14594"><stop
         style="stop-opacity:1;stop-color:#5bc8cd"
         offset="0"
         id="stop14590" /><stop
         style="stop-opacity:1;stop-color:#4191d5"
         offset="1"
         id="stop14592" /></linearGradient><clipPath
       clipPathUnits="userSpaceOnUse"
       id="clipPath14622"><path
         d="m 5827.4,3093.05 c -124.77,-124.78 -286.38,-190.46 -449.92,-196.73 -129.13,-5.27 -259.47,26.61 -373.83,95.33 -46.04,27.83 -89.66,61.63 -129.32,101.4 -263.23,263.11 -263.23,689.87 0,953.08 263.1,263.22 689.75,263.22 953.07,0 263.12,-263.21 263.12,-689.97 0,-953.08 z"
         id="path14620" /></clipPath><linearGradient
       x1="0"
       y1="0"
       x2="1"
       y2="0"
       gradientUnits="userSpaceOnUse"
       gradientTransform="matrix(1347.83,0,0,-1347.83,4676.91,3569.65)"
       spreadMethod="pad"
       id="linearGradient14628"><stop
         style="stop-opacity:1;stop-color:#5bc8cd"
         offset="0"
         id="stop14624" /><stop
         style="stop-opacity:1;stop-color:#4191d5"
         offset="1"
         id="stop14626" /></linearGradient><clipPath
       clipPathUnits="userSpaceOnUse"
       id="clipPath14640"><path
         d="m 5003.65,3624.39 c -4.17,18.94 -0.26,37.92 9.54,54.01 5.18,8.5 6.11,18.66 3.18,28.17 -0.56,1.78 -1.04,3.6 -1.45,5.45 -9.24,41.97 21.03,84.32 67.61,94.57 3.86,0.85 7.68,1.36 11.5,1.73 -2.34,38.17 26.49,74.32 69.04,83.68 18.74,4.13 37.24,2.4 53.28,-3.87 12.57,-4.9 26.54,-2.3 36.24,7.08 19.1,18.45 48.19,27.57 78.31,21.82 21.11,-4.03 39.05,-14.7 51.67,-29.05 7.17,-8.15 17.73,-12.12 28.42,-10.22 20.95,3.73 44.15,-0.45 64.5,-13.46 26.1,-16.68 41.01,-43.69 41.94,-70.51 0.38,-11.08 5.1,-21.32 12.51,-29.58 15.3,-17.04 23.98,-41.18 21.98,-67.26 -3.64,-47.55 -41.34,-83.43 -84.2,-80.15 -1.3,0.1 -2.57,0.34 -3.86,0.51 -2.89,-28.19 -21.68,-55.25 -51.36,-69.22 -22.4,-10.56 -46.58,-11.51 -67.23,-4.58 -10.13,3.4 -21.06,1.62 -30.04,-4.2 -3.49,-2.26 -7.17,-4.33 -11.07,-6.16 -4.54,-2.14 -9.16,-3.88 -13.81,-5.23 -21.35,-6.23 -40.51,-19.05 -51.23,-38.53 -5.48,-9.95 -9.15,-20.61 -11.03,-31.95 -1.33,-7.99 -7.16,-14.46 -15.07,-16.2 l -0.48,-0.1 c -12,-2.65 -23.56,5.76 -24.71,17.92 l -1.87,19.87 c -0.88,9.2 -9.7,15.19 -18.72,13.18 -0.07,-0.02 -0.13,-0.03 -0.19,-0.04 -46.57,-10.25 -91.83,15.46 -101.06,57.44 -0.43,1.94 -0.77,3.88 -1.02,5.82 -0.87,6.78 -5.21,12.45 -11.64,14.78 -24.78,8.95 -44,28.53 -49.68,54.28 z"
         id="path14638" /></clipPath><linearGradient
       x1="0"
       y1="0"
       x2="1"
       y2="0"
       gradientUnits="userSpaceOnUse"
       gradientTransform="matrix(549.395,82.5564,82.5564,-549.395,5000.98,3641.1)"
       spreadMethod="pad"
       id="linearGradient14646"><stop
         style="stop-opacity:1;stop-color:#5bc8cd"
         offset="0"
         id="stop14642" /><stop
         style="stop-opacity:1;stop-color:#4191d5"
         offset="1"
         id="stop14644" /></linearGradient><clipPath
       clipPathUnits="userSpaceOnUse"
       id="clipPath14688"><path
         d="m 5296.06,2001.74 c -4.14,50.92 -46.68,90.97 -98.66,90.97 -49.6,0 -90.56,-36.5 -97.81,-84.08 -6.67,1.42 -13.57,2.2 -20.66,2.2 -54.72,0 -99.08,-44.36 -99.08,-99.07 0,-3.06 0.2,-6.08 0.46,-9.06 -5.97,1.13 -12.14,1.78 -18.44,1.78 -54.72,0 -99.08,-44.35 -99.08,-99.07 0,-13.68 2.78,-26.71 7.79,-38.56 -46.97,-7.77 -82.83,-48.46 -82.83,-97.62 0,-24.58 9.01,-47.01 23.82,-64.33 -32.58,-16.23 -55.02,-49.77 -55.02,-88.64 0,-28.22 11.87,-53.63 30.81,-71.68 -10.8,-15.87 -17.12,-35.02 -17.12,-55.66 0,-31.81 15.05,-60.04 38.36,-78.18 -3.99,-10.74 -6.28,-22.31 -6.28,-34.44 0,-41.27 25.25,-76.61 61.12,-91.51 -8.53,-14.63 -13.5,-31.6 -13.5,-49.76 0,-54.71 44.36,-99.07 99.07,-99.07 6.67,0 13.18,0.68 19.47,1.94 -0.01,-0.65 -0.1,-1.29 -0.1,-1.94 0,-54.71 44.35,-99.069 99.07,-99.069 10.9,0 21.36,1.828 31.16,5.078 2.94,-52.078 45.98,-93.43 98.79,-93.43 54.72,0 99.07,44.352 99.07,99.07 V 2002 Z"
         id="path14686" /></clipPath><linearGradient
       x1="0"
       y1="0"
       x2="1"
       y2="0"
       gradientUnits="userSpaceOnUse"
       gradientTransform="matrix(539.918,0,0,-539.918,4756.55,1470.62)"
       spreadMethod="pad"
       id="linearGradient14694"><stop
         style="stop-opacity:1;stop-color:#5bc8cd"
         offset="0"
         id="stop14690" /><stop
         style="stop-opacity:1;stop-color:#4191d5"
         offset="1"
         id="stop14692" /></linearGradient><clipPath
       clipPathUnits="userSpaceOnUse"
       id="clipPath14732"><path
         d="m 5322.51,2001.74 c 4.13,50.92 46.68,90.97 98.66,90.97 49.6,0 90.57,-36.5 97.81,-84.08 6.67,1.42 13.58,2.2 20.67,2.2 54.71,0 99.06,-44.36 99.06,-99.07 0,-3.06 -0.19,-6.08 -0.45,-9.06 5.98,1.13 12.14,1.78 18.45,1.78 54.72,0 99.07,-44.35 99.07,-99.07 0,-13.68 -2.77,-26.71 -7.78,-38.56 46.96,-7.77 82.82,-48.46 82.82,-97.62 0,-24.58 -9,-47.01 -23.82,-64.33 32.58,-16.23 55.02,-49.77 55.02,-88.64 0,-28.22 -11.86,-53.63 -30.81,-71.68 10.8,-15.87 17.12,-35.02 17.12,-55.66 0,-31.81 -15.05,-60.04 -38.36,-78.18 3.99,-10.74 6.28,-22.31 6.28,-34.44 0,-41.27 -25.24,-76.61 -61.12,-91.51 8.53,-14.63 13.5,-31.6 13.5,-49.76 0,-54.71 -44.35,-99.07 -99.07,-99.07 -6.67,0 -13.17,0.68 -19.46,1.94 0.01,-0.65 0.09,-1.29 0.09,-1.94 0,-54.71 -44.35,-99.069 -99.07,-99.069 -10.9,0 -21.35,1.828 -31.16,5.078 -2.94,-52.078 -45.98,-93.43 -98.79,-93.43 -54.71,0 -99.07,44.352 -99.07,99.07 V 2002 Z"
         id="path14730" /></clipPath><linearGradient
       x1="0"
       y1="0"
       x2="1"
       y2="0"
       gradientUnits="userSpaceOnUse"
       gradientTransform="matrix(-539.918,0,0,-539.918,5862.02,1470.62)"
       spreadMethod="pad"
       id="linearGradient14738"><stop
         style="stop-opacity:1;stop-color:#5bc8cd"
         offset="0"
         id="stop14734" /><stop
         style="stop-opacity:1;stop-color:#4191d5"
         offset="1"
         id="stop14736" /></linearGradient><clipPath
       clipPathUnits="userSpaceOnUse"
       id="clipPath14798"><path
         d="m 3611.96,1738.96 c 0,-68.75 -55.73,-124.49 -124.48,-124.49 -68.75,0 -124.48,55.74 -124.48,124.49 0,68.74 55.73,124.47 124.48,124.47 68.75,0 124.48,-55.73 124.48,-124.47 z"
         id="path14796" /></clipPath><linearGradient
       x1="0"
       y1="0"
       x2="1"
       y2="0"
       gradientUnits="userSpaceOnUse"
       gradientTransform="matrix(248.958,0,0,-248.958,3363,1738.95)"
       spreadMethod="pad"
       id="linearGradient14804"><stop
         style="stop-opacity:1;stop-color:#5bc8cd"
         offset="0"
         id="stop14800" /><stop
         style="stop-opacity:1;stop-color:#4191d5"
         offset="1"
         id="stop14802" /></linearGradient><clipPath
       clipPathUnits="userSpaceOnUse"
       id="clipPath14816"><path
         d="m 4249.17,1499.82 c 0,-343.8 -278.7,-622.601 -622.5,-622.601 -90.4,0 -176.4,19.301 -253.9,54 9.8,48 27.6,114.301 46.7,154.301 7.2,15.3 14.8,26.8 22.2,31.9 16.2,11.1 43.4,1.8 75.5,-11 42.9,-17.1 94.8,-40.1 141.1,-28.2 80.8,20.9 51,94.6 54.9,106.9 3.9,12.1 34.2,4.3 43,25.4 7.5,17.9 -13.2,27.6 -19.6,30.1 -1.2,0.5 -1.8,0.7 -1.8,0.7 0,0 0.9,0 2.6,0.1 4.9,0.3 16.6,1.8 29.2,9 13.1,7.5 17.9,23.8 9.5,36 -0.3,0.4 -0.5,0.8 -0.8,1.2 -11.2,14.6 -10.7,44.4 -0.89,54.1 5,5.1 24.89,6.8 44.29,10.5 20.8,4.1 41,10.49 41.7,26.1 0.3,7.6 -4.7,21.8 -12.6,39.5 -22.9,51.8 -69.6,133.2 -73.39,165.2 -5.31,43.1 23.39,41.8 23.39,130.5 0,217.8 -218.2,347.8 -415.7,359 75.1,32.1 157.8,49.9 244.6,49.9 343.8,0 622.5,-278.8 622.5,-622.6 z"
         id="path14814" /></clipPath><linearGradient
       x1="0"
       y1="0"
       x2="1"
       y2="0"
       gradientUnits="userSpaceOnUse"
       gradientTransform="matrix(876.399,0,0,-876.399,3372.77,1499.82)"
       spreadMethod="pad"
       id="linearGradient14822"><stop
         style="stop-opacity:1;stop-color:#5bc8cd"
         offset="0"
         id="stop14818" /><stop
         style="stop-opacity:1;stop-color:#4191d5"
         offset="1"
         id="stop14820" /></linearGradient><clipPath
       clipPathUnits="userSpaceOnUse"
       id="clipPath14848"><path
         d="m 1731.58,1573.52 h 1070.33 c 91.62,0 165.88,-74.27 165.88,-165.88 v 0 c 0,-91.61 -74.26,-165.87 -165.88,-165.87 H 1731.58 Z"
         id="path14846" /></clipPath><linearGradient
       x1="0"
       y1="0"
       x2="1"
       y2="0"
       gradientUnits="userSpaceOnUse"
       gradientTransform="matrix(-1236.21,0,0,1236.21,2967.79,1407.64)"
       spreadMethod="pad"
       id="linearGradient14854"><stop
         style="stop-opacity:1;stop-color:#5bc8cd"
         offset="0"
         id="stop14850" /><stop
         style="stop-opacity:1;stop-color:#4191d5"
         offset="1"
         id="stop14852" /></linearGradient><clipPath
       clipPathUnits="userSpaceOnUse"
       id="clipPath14882"><path
         d="m 1822.46,1543.03 c 0,-383.94 -311.24,-695.19 -695.18,-695.19 -383.94,0 -695.186,311.25 -695.186,695.19 0,383.93 311.246,695.18 695.186,695.18 383.94,0 695.18,-311.25 695.18,-695.18 z"
         id="path14880" /></clipPath><linearGradient
       x1="0"
       y1="0"
       x2="1"
       y2="0"
       gradientUnits="userSpaceOnUse"
       gradientTransform="matrix(1390.36,0,0,-1390.36,432.096,1543.03)"
       spreadMethod="pad"
       id="linearGradient14888"><stop
         style="stop-opacity:1;stop-color:#5bc8cd"
         offset="0"
         id="stop14884" /><stop
         style="stop-opacity:1;stop-color:#4191d5"
         offset="1"
         id="stop14886" /></linearGradient><clipPath
       clipPathUnits="userSpaceOnUse"
       id="clipPath45668"><g
         id="g45672"
         transform="translate(-4.4292611e-5,-2.3376654e-5)"><path
           d="m 3058.26,3523.18 c -5.58,4.51 -11.16,6.84 -16.74,8.52 -0.04,0.01 -0.06,0.02 -0.1,0.03 -3.96,1.12 -6.99,4.14 -8.1,8.1 -0.01,0.03 -0.02,0.07 -0.03,0.1 -1.68,5.58 -4.02,11.16 -8.51,16.74 -4.51,-5.58 -6.84,-11.16 -8.52,-16.74 -0.01,-0.02 -0.01,-0.04 -0.02,-0.07 -1.12,-3.96 -4.15,-6.98 -8.11,-8.1 -0.03,-0.01 -0.07,-0.02 -0.1,-0.03 -5.58,-1.68 -11.16,-4.02 -16.75,-8.55 5.59,-4.52 11.17,-6.87 16.75,-8.54 0.02,-0.01 0.05,-0.02 0.07,-0.02 3.96,-1.12 6.99,-4.15 8.11,-8.11 0.01,-0.02 0.01,-0.05 0.02,-0.07 1.67,-5.58 4.01,-11.17 8.55,-16.75 4.52,5.58 6.87,11.17 8.54,16.75 0.01,0.03 0.01,0.07 0.03,0.1 1.12,3.96 4.14,6.99 8.1,8.11 0.02,0.01 0.04,0.01 0.07,0.02 5.58,1.68 11.16,4.01 16.74,8.51 z"
           id="path45670" /></g></clipPath><clipPath
       clipPathUnits="userSpaceOnUse"
       id="clipPath45682"><g
         id="g45686"
         transform="translate(-4.4292611e-5,-2.3376654e-5)"><path
           d="m 4218.12,4261.98 c -5.59,4.5 -11.17,6.83 -16.75,8.51 -0.03,0.01 -0.06,0.02 -0.1,0.03 -3.96,1.12 -6.98,4.15 -8.11,8.11 -0.01,0.03 -0.02,0.06 -0.03,0.1 -1.67,5.58 -4.01,11.16 -8.51,16.74 -4.49,-5.58 -6.83,-11.16 -8.51,-16.74 -0.01,-0.03 -0.02,-0.05 -0.02,-0.07 -1.12,-3.96 -4.15,-6.98 -8.11,-8.11 -0.03,-0.01 -0.07,-0.02 -0.1,-0.03 -5.59,-1.67 -11.16,-4.01 -16.75,-8.54 5.59,-4.53 11.16,-6.87 16.75,-8.55 0.02,0 0.05,-0.01 0.07,-0.02 3.96,-1.12 6.99,-4.14 8.1,-8.1 0.01,-0.02 0.02,-0.05 0.03,-0.08 1.67,-5.58 4.02,-11.16 8.54,-16.75 4.53,5.59 6.87,11.17 8.54,16.75 0.01,0.04 0.02,0.07 0.03,0.11 1.13,3.96 4.15,6.98 8.11,8.11 0.03,0 0.05,0.01 0.07,0.02 5.58,1.67 11.16,4.01 16.75,8.51 z"
           id="path45684" /></g></clipPath><clipPath
       clipPathUnits="userSpaceOnUse"
       id="clipPath45695"><g
         id="g45699"
         transform="translate(-4.4292611e-5,-2.3376654e-5)"><path
           d="m 2973.04,3662.22 c -11.21,9.03 -22.42,13.72 -33.63,17.09 -0.06,0.02 -0.13,0.04 -0.19,0.06 -7.96,2.25 -14.03,8.32 -16.28,16.27 -0.02,0.07 -0.04,0.14 -0.05,0.2 -3.38,11.21 -8.06,22.42 -17.1,33.63 -9.04,-11.21 -13.73,-22.42 -17.1,-33.63 -0.01,-0.04 -0.03,-0.09 -0.04,-0.13 -2.25,-7.96 -8.32,-14.03 -16.28,-16.28 -0.07,-0.02 -0.14,-0.04 -0.21,-0.06 -11.21,-3.36 -22.41,-8.06 -33.63,-17.15 11.22,-9.1 22.42,-13.8 33.63,-17.16 0.05,-0.02 0.1,-0.03 0.15,-0.05 7.95,-2.25 14.03,-8.32 16.28,-16.27 0.01,-0.05 0.03,-0.1 0.04,-0.15 3.36,-11.21 8.06,-22.42 17.16,-33.63 9.09,11.21 13.79,22.42 17.15,33.63 0.02,0.07 0.04,0.14 0.06,0.21 2.25,7.95 8.33,14.03 16.28,16.28 0.05,0.01 0.09,0.02 0.13,0.04 11.21,3.37 22.42,8.05 33.63,17.1 z"
           id="path45697" /></g></clipPath><clipPath
       clipPathUnits="userSpaceOnUse"
       id="clipPath45708"><g
         id="g45712"
         transform="translate(-4.4292611e-5,-2.3376654e-5)"><path
           d="m 4133.11,4389.35 c -11.22,9.04 -22.43,13.73 -33.63,17.1 -0.07,0.01 -0.13,0.03 -0.19,0.05 -7.96,2.25 -14.04,8.32 -16.28,16.28 -0.02,0.07 -0.04,0.13 -0.06,0.19 -3.37,11.21 -8.06,22.42 -17.1,33.63 -9.03,-11.21 -13.72,-22.42 -17.1,-33.63 -0.01,-0.04 -0.02,-0.08 -0.03,-0.13 -2.26,-7.95 -8.33,-14.03 -16.28,-16.27 -0.08,-0.02 -0.15,-0.04 -0.21,-0.07 -11.21,-3.36 -22.43,-8.06 -33.63,-17.15 11.2,-9.1 22.42,-13.8 33.63,-17.16 0.05,-0.01 0.09,-0.03 0.14,-0.04 7.96,-2.25 14.03,-8.33 16.28,-16.28 0.01,-0.05 0.03,-0.1 0.04,-0.15 3.36,-11.21 8.07,-22.42 17.16,-33.63 9.1,11.21 13.8,22.42 17.16,33.63 0.02,0.07 0.04,0.14 0.06,0.21 2.24,7.96 8.32,14.03 16.28,16.28 0.03,0.02 0.08,0.02 0.13,0.04 11.2,3.38 22.41,8.06 33.63,17.1 z"
           id="path45710" /></g></clipPath></defs><g
     inkscape:label="Layer 1"
     inkscape:groupmode="layer"
     id="layer1"
     transform="translate(175.63541,125.92789)"><g
       id="g15697"
       transform="matrix(1,0,0,0.8902418,-217.55244,13.033288)"><path
         id="path14282"
         style="fill:url(#linearGradient14280);fill-opacity:1;fill-rule:nonzero;stroke:none;stroke-width:0.0639494"
         d="M 138.09669 -156.09375 C 136.88538 -154.33649 137.4221 -153.93086 136.72675 -153.14319 C 136.01193 -152.33346 135.77995 -153.01304 134.03854 -151.53585 C 135.8107 -150.0416 135.95422 -150.78902 136.66525 -149.997 C 137.37629 -149.20499 136.78435 -148.95409 138.09617 -146.97678 C 139.37832 -148.98571 138.77076 -149.14025 139.46611 -149.92793 C 140.18093 -150.73765 140.4952 -150.14025 142.15432 -151.53527 C 140.29771 -153.08461 140.22883 -152.29244 139.52761 -153.07353 C 138.80676 -153.87647 139.264 -154.34565 138.09669 -156.09375 z M 120.57269 -155.37338 L 120.57269 -155.3728 C 116.80129 -155.3728 113.44967 -153.6268 111.20892 -150.90777 L 111.20892 -150.70983 L 111.17327 -134.71132 L 111.17223 -134.35723 C 112.78119 -134.09819 114.01909 -132.54851 114.01909 -130.66946 C 114.01909 -129.84672 113.77633 -129.09083 113.37468 -128.4741 L 113.37675 -128.47178 L 118.46843 -122.85799 L 118.54233 -122.77673 C 119.5817 -123.58543 121.01608 -123.40732 121.86616 -122.31234 C 122.77904 -121.13574 122.67126 -119.35108 121.62379 -118.32563 C 120.57693 -117.30016 118.98815 -117.42185 118.07466 -118.59846 C 117.32561 -119.5633 117.27348 -120.93295 117.854 -121.96174 L 117.76718 -122.05693 L 112.67757 -127.6713 L 112.6755 -127.67362 C 112.12298 -127.21255 111.43913 -126.93932 110.69784 -126.93932 C 108.86359 -126.93932 107.37712 -128.60905 107.37712 -130.66946 C 107.37712 -132.5283 108.58817 -134.0654 110.17178 -134.3491 L 110.17333 -134.71364 L 110.20847 -150.71215 L 110.20847 -150.86307 C 106.99521 -154.66318 101.56285 -155.9136 96.601031 -153.52108 C 93.072314 -151.81948 90.579413 -148.64664 89.505856 -145.07631 L 95.014047 -136.68552 C 95.181947 -136.75793 95.360313 -136.80626 95.550966 -136.80626 C 96.384837 -136.80626 97.060951 -136.04679 97.060951 -135.11011 C 97.060951 -134.17412 96.384837 -133.41512 95.550966 -133.41512 C 94.717096 -133.41512 94.041497 -134.17412 94.041497 -135.11011 C 94.041497 -135.42038 94.118647 -135.70925 94.248203 -135.95934 L 94.220297 -136.00172 L 88.592217 -144.57535 C 85.024665 -145.07206 81.135976 -143.67165 78.210422 -140.38606 C 74.591757 -136.32059 73.529903 -130.60104 75.087098 -125.96006 L 81.298606 -125.91188 L 81.502727 -125.91014 C 81.741486 -127.70671 83.11689 -129.08708 84.783147 -129.08708 C 86.61681 -129.08708 88.103875 -127.4161 88.103875 -125.35636 C 88.103875 -123.29593 86.61681 -121.62622 84.783147 -121.62622 C 83.121796 -121.62622 81.749025 -122.99768 81.504278 -124.78691 L 81.292404 -124.78866 L 74.902097 -124.838 C 72.410907 -121.49752 71.440286 -116.59819 72.736337 -111.77612 C 74.640157 -104.6935 80.684429 -100.45694 86.387184 -102.08506 L 86.390284 -102.09029 L 94.18154 -114.88283 L 94.210996 -114.93101 C 94.19439 -114.9511 94.175991 -114.96825 94.159836 -114.98905 C 93.246331 -116.16498 93.354817 -117.94974 94.401682 -118.97519 C 94.859681 -119.42413 95.421454 -119.6533 95.985048 -119.6706 C 96.709667 -119.6928 97.437306 -119.36498 97.950819 -118.70352 C 98.252933 -118.31415 98.435956 -117.85711 98.517193 -117.3841 L 98.862908 -117.3841 L 104.99328 -117.38584 C 105.19469 -118.05659 105.75548 -118.54157 106.42007 -118.54157 C 107.25394 -118.54157 107.92954 -117.78209 107.92954 -116.84542 C 107.92954 -115.90942 107.25394 -115.15043 106.42007 -115.15043 C 105.7695 -115.15043 105.21671 -115.61423 105.00465 -116.26262 L 98.864975 -116.26088 L 98.50324 -116.26088 C 98.394741 -115.6824 98.135667 -115.13528 97.708457 -114.71681 C 96.944161 -113.96763 95.894415 -113.84159 95.02645 -114.28029 L 95.007329 -114.24895 L 87.501844 -101.92369 C 88.870388 -97.865965 92.195734 -94.530874 96.548837 -93.420294 C 100.63374 -92.378405 104.63697 -93.563322 107.42518 -96.187425 L 107.42363 -96.38827 L 107.38073 -102.30971 L 107.38022 -102.41478 C 105.81084 -102.71208 104.6145 -104.2429 104.6145 -106.09035 C 104.6145 -108.1501 106.10148 -109.82107 107.93574 -109.82107 C 109.77002 -109.82107 111.25647 -108.1501 111.25647 -106.09035 C 111.25647 -104.19978 110.00356 -102.64205 108.38016 -102.39736 L 108.38067 -102.31842 L 108.42356 -96.396977 L 108.42356 -96.36389 C 109.50808 -95.679651 110.69407 -95.134987 111.9851 -94.805311 C 113.52136 -94.413494 115.04265 -94.353898 116.49852 -94.54816 L 116.55072 -94.608529 L 124.32027 -103.66744 L 124.37815 -103.73478 C 124.30128 -103.93812 124.25516 -104.1599 124.25516 -104.39478 C 124.25516 -105.33145 124.93085 -106.09035 125.76411 -106.09035 C 126.59799 -106.09035 127.27409 -105.33145 127.27409 -104.39478 C 127.27409 -103.4581 126.59799 -102.69863 125.76411 -102.69863 C 125.50574 -102.69863 125.26464 -102.77546 125.05201 -102.90412 L 125.03857 -102.88844 L 117.64522 -94.268951 C 121.71985 -91.838866 124.29267 -88.288338 125.40341 -83.645653 L 130.72401 -83.645653 L 129.65896 -93.383724 C 130.47775 -93.208182 131.32559 -93.113222 132.19627 -93.113222 C 138.9493 -93.113222 144.42395 -98.654642 144.42395 -105.4913 C 144.42395 -106.17818 144.35303 -106.84606 144.24102 -107.50033 L 134.84159 -112.87554 L 134.74392 -112.93185 C 134.13875 -112.01746 133.17534 -111.42029 132.0831 -111.42029 C 130.24883 -111.42029 128.76186 -113.09117 128.76186 -115.15159 C 128.76186 -117.21133 130.24883 -118.88231 132.0831 -118.88231 C 133.91738 -118.88231 135.40383 -117.21133 135.40383 -115.15159 C 135.40383 -114.72043 135.33516 -114.30849 135.21521 -113.9233 L 135.29479 -113.87802 L 144.61205 -108.54867 C 148.27948 -110.68492 150.76413 -114.66466 150.76413 -119.25498 C 150.76413 -122.93827 149.16153 -126.22991 146.63725 -128.49558 L 146.24761 -128.49384 L 140.83192 -128.46075 L 140.53788 -128.45959 C 140.42415 -127.89684 140.16632 -127.36615 139.7493 -126.9579 C 138.70243 -125.93243 137.1142 -126.05421 136.20068 -127.23014 C 135.28837 -128.40607 135.39609 -130.1907 136.44356 -131.21685 C 136.90129 -131.6655 137.46291 -131.89447 138.02641 -131.91168 C 138.75092 -131.93388 139.47866 -131.60606 139.99218 -130.94461 C 140.30315 -130.54405 140.4865 -130.07128 140.56321 -129.58339 L 140.82572 -129.58455 L 146.17733 -129.61648 C 146.39892 -130.53747 146.53752 -131.49103 146.53752 -132.48171 C 146.53752 -139.31769 141.06286 -144.85979 134.30984 -144.85979 C 133.963 -144.85979 133.62461 -144.82907 133.28768 -144.79245 L 128.06629 -138.64521 L 128.06268 -138.64114 C 128.87452 -137.4663 128.74164 -135.77162 127.73091 -134.78214 C 127.39303 -134.45115 126.99773 -134.24721 126.58783 -134.15232 L 126.61832 -130.00598 C 127.18483 -129.76167 127.58725 -129.14547 127.58725 -128.42302 C 127.58725 -127.48702 126.91113 -126.72745 126.07727 -126.72745 C 125.2434 -126.72745 124.5678 -127.48702 124.5678 -128.42302 C 124.5678 -129.17879 125.0099 -129.81362 125.61786 -130.03268 L 125.58738 -134.15464 C 125.06098 -134.27156 124.56197 -134.56468 124.18178 -135.0538 C 123.26887 -136.23041 123.37727 -138.01494 124.42414 -139.04109 C 125.24575 -139.84592 126.39878 -139.936 127.29942 -139.37254 L 127.34127 -139.42189 L 132.52029 -145.5134 C 131.36903 -151.13865 126.47005 -155.37338 120.57269 -155.37338 z M 144.4162 -147.65594 C 143.81988 -146.79085 144.08414 -146.59078 143.74182 -146.20301 C 143.38992 -145.80439 143.27567 -146.13903 142.41839 -145.41182 C 143.29081 -144.67621 143.36181 -145.04419 143.71185 -144.6543 C 144.06189 -144.26438 143.7704 -144.14112 144.4162 -143.1677 C 145.0474 -144.15668 144.74826 -144.23229 145.09058 -144.62005 C 145.44248 -145.01867 145.59724 -144.72448 146.41401 -145.41124 C 145.50001 -146.17325 145.46576 -145.78424 145.12055 -146.16876 C 144.76568 -146.56405 144.99086 -146.79536 144.4162 -147.65594 z M 69.171697 -109.83442 C 67.965088 -108.084 68.500089 -107.67951 67.807439 -106.89489 C 67.0954 -106.08832 66.864195 -106.76539 65.129567 -105.29394 C 66.894835 -103.8055 67.037675 -104.55042 67.745944 -103.76148 C 68.454224 -102.97255 67.864462 -102.7225 69.17118 -100.75287 C 70.448299 -102.75399 69.843316 -102.90779 70.535955 -103.6924 C 71.248004 -104.49898 71.561159 -103.90376 73.213828 -105.29336 C 71.36443 -106.83668 71.295432 -106.04835 70.596933 -106.8264 C 69.878894 -107.62622 70.334466 -108.09312 69.171697 -109.83442 z M 75.288636 -101.12728 C 74.681727 -100.24688 74.950753 -100.04402 74.602373 -99.649386 C 74.244244 -99.243707 74.128145 -99.583773 73.255686 -98.843685 C 74.143555 -98.095059 74.215645 -98.469619 74.571884 -98.072812 C 74.928114 -97.676005 74.631397 -97.550741 75.288636 -96.560091 C 75.931036 -97.566583 75.62653 -97.64393 75.974899 -98.038564 C 76.333029 -98.444242 76.490875 -98.144768 77.322104 -98.843685 C 76.391925 -99.619888 76.357225 -99.223227 76.005905 -99.614557 C 75.644756 -100.01684 75.873466 -100.25147 75.288636 -101.12728 z M 68.477166 -92.058497 C 62.796036 -92.087957 57.529966 -91.495664 53.493068 -90.483664 C 51.340057 -89.943929 49.537421 -89.286931 48.196233 -88.525137 C 46.855047 -87.763336 45.945384 -86.892378 45.697678 -85.857848 C 45.655718 -85.682582 45.637163 -85.508271 45.637733 -85.335419 L 45.621197 -85.335419 L 45.621197 -74.001038 L 45.627398 -74.001038 A 22.475887 6.4666293 0 0 0 66.547051 -67.587355 L 66.568755 -67.586774 A 22.475887 6.4666293 0 0 0 90.520265 -73.597026 A 22.475887 6.4666293 0 0 0 90.571941 -74.001038 L 90.578659 -74.001038 L 90.578659 -85.335419 L 90.558505 -85.335419 C 90.555705 -86.184139 90.059864 -86.995081 89.233522 -87.685188 C 88.240008 -88.514902 86.753732 -89.238905 84.869447 -89.860813 C 81.100877 -91.104625 75.733746 -91.923786 69.618698 -92.044565 C 69.236507 -92.052065 68.855907 -92.056527 68.477166 -92.058497 z M 68.474065 -91.325935 L 68.474065 -91.325355 C 68.849282 -91.323455 69.226123 -91.318894 69.604746 -91.311424 C 75.662598 -91.191777 80.977744 -90.373546 84.640004 -89.164822 C 86.471131 -88.560461 87.887685 -87.85494 88.763783 -87.123287 C 89.639883 -86.391631 89.957837 -85.703011 89.787493 -84.986553 C 89.617138 -84.270095 88.895171 -83.497504 87.643955 -82.785967 C 86.392746 -82.07443 84.642746 -81.429237 82.533672 -80.899999 C 78.315514 -79.841539 72.661443 -79.240022 66.603378 -79.358835 L 66.595627 -78.992554 L 66.574956 -78.993135 A 22.096696 6.3575312 0 0 1 66.573923 -78.993135 L 66.581674 -79.359996 C 60.524024 -79.480486 55.21021 -80.299135 51.550034 -81.508339 C 49.719952 -82.112938 48.304622 -82.819368 47.429872 -83.551035 C 46.555122 -84.282695 46.238719 -84.971174 46.410296 -85.687769 C 46.58188 -86.404369 47.305484 -87.17694 48.557968 -87.888354 C 49.810452 -88.599772 51.561367 -89.244795 53.671351 -89.773742 C 57.627563 -90.765518 62.845737 -91.354747 68.474065 -91.325935 z M 45.635149 -72.970112 L 45.621197 -72.969531 L 45.621197 -61.63515 L 45.627398 -61.63515 A 22.475887 6.4666293 0 0 0 66.547051 -55.221467 L 66.568755 -55.220306 A 22.475887 6.4666293 0 0 0 90.520782 -61.231138 A 22.475887 6.4666293 0 0 0 90.571941 -61.63515 L 90.578659 -61.63515 L 90.578659 -72.963146 A 22.472885 6.4657663 0 0 1 90.526466 -72.528369 A 22.472885 6.4657663 0 0 1 66.57754 -66.518698 L 66.556353 -66.519278 A 22.472885 6.4657663 0 0 1 45.635149 -72.970112 z M 45.635149 -60.604224 L 45.621197 -60.603643 L 45.621197 -49.269262 L 45.627398 -49.269262 A 22.475887 6.4666293 0 0 0 66.547051 -42.855579 L 66.568755 -42.854418 A 22.475887 6.4666293 0 0 0 90.520782 -48.86525 A 22.475887 6.4666293 0 0 0 90.571941 -49.269262 L 90.578659 -49.269262 L 90.578659 -60.603643 L 90.578142 -60.603643 A 22.472885 6.4657663 0 0 1 90.526466 -60.162481 A 22.472885 6.4657663 0 0 1 66.57754 -54.15281 L 66.556353 -54.15339 A 22.472885 6.4657663 0 0 1 45.635149 -60.604224 z M 45.635149 -48.049681 L 45.621197 -48.049101 L 45.621197 -36.714719 L 45.627398 -36.714719 A 22.475887 6.4666293 0 0 0 66.547051 -30.301036 L 66.568755 -30.300455 A 22.475887 6.4666293 0 0 0 90.520782 -36.310708 A 22.475887 6.4666293 0 0 0 90.571941 -36.714719 L 90.578659 -36.714719 L 90.578659 -48.049101 L 90.578142 -48.049101 A 22.472885 6.4657663 0 0 1 90.526466 -47.607939 A 22.472885 6.4657663 0 0 1 66.57754 -41.598267 L 66.556353 -41.599428 A 22.472885 6.4657663 0 0 1 45.635149 -48.049681 z " /></g></g></svg>
