<?xml version="1.0" encoding="UTF-8" standalone="no"?>
<!-- Created with Inkscape (http://www.inkscape.org/) -->

<svg
   width="112mm"
   height="112mm"
   viewBox="0 0 112 112"
   version="1.1"
   id="svg5"
   inkscape:version="1.2.2 (b0a8486, 2022-12-01)"
   sodipodi:docname="big-data.svg"
   xml:space="preserve"
   xmlns:inkscape="http://www.inkscape.org/namespaces/inkscape"
   xmlns:sodipodi="http://sodipodi.sourceforge.net/DTD/sodipodi-0.dtd"
   xmlns="http://www.w3.org/2000/svg"
   xmlns:svg="http://www.w3.org/2000/svg"><sodipodi:namedview
     id="namedview7"
     pagecolor="#505050"
     bordercolor="#eeeeee"
     borderopacity="1"
     inkscape:showpageshadow="0"
     inkscape:pageopacity="0"
     inkscape:pagecheckerboard="0"
     inkscape:deskcolor="#505050"
     inkscape:document-units="mm"
     showgrid="false"
     inkscape:zoom="1.6819304"
     inkscape:cx="244.65935"
     inkscape:cy="225.63359"
     inkscape:window-width="1850"
     inkscape:window-height="1136"
     inkscape:window-x="70"
     inkscape:window-y="27"
     inkscape:window-maximized="1"
     inkscape:current-layer="layer1"><inkscape:page
       x="0"
       y="0"
       width="112"
       height="112"
       id="page14974" /><inkscape:page
       x="395.63541"
       y="125.92789"
       width="264.58334"
       height="176.38889"
       id="page14976" /></sodipodi:namedview><defs
     id="defs2"><clipPath
       clipPathUnits="userSpaceOnUse"
       id="clipPath14274"><path
         d="m 4275.8,3856.45 c 0,58.56 -30.7,110.56 -78.27,143.98 5.26,16.25 8.22,33.38 8.22,51.17 0,100.86 -90.73,182.63 -202.65,182.63 -9.27,0 -18.31,-0.75 -27.25,-1.84 -13.89,88.68 -98.2,156.96 -200.42,156.96 -67.32,0 -126.81,-29.71 -163.66,-75.24 -51.88,62.97 -147.18,85.03 -233.63,47.92 -61.8,-26.53 -104.72,-77.23 -120.66,-133.55 -62.27,11.93 -132.34,-8.47 -184.13,-60.25 -62.56,-62.57 -79.42,-151.84 -48.57,-221.75 -46.1,-49.25 -64.74,-125.57 -42.16,-200.36 32.35,-107.14 136.85,-170.37 233.41,-141.22 2.96,0.9 5.74,2.1 8.61,3.14 20.83,-63.16 77.56,-115.71 152.63,-132.76 71.83,-16.31 142.39,4.1 188.72,47.9 20.04,-12.33 42.52,-21.88 67.11,-27.47 28.76,-6.53 57.28,-7.05 84.19,-2.7 73.28,-35.9 118.91,-90.17 138.2,-161.95 h 88.18 l -17.65,143.68 c 13.57,-2.59 27.62,-3.99 42.05,-3.99 111.92,0 202.65,81.76 202.65,182.63 0,13.99 -1.9,27.55 -5.21,40.64 65.44,30.29 110.29,91.58 110.29,162.43 z"
         id="path14272" /></clipPath><linearGradient
       x1="0.27682123"
       y1="-0.45779732"
       x2="0.27578914"
       y2="1.0104842"
       gradientUnits="userSpaceOnUse"
       gradientTransform="matrix(78.606106,0,0,88.297474,72.158065,-119.50858)"
       spreadMethod="pad"
       id="linearGradient14280"><stop
         style="stop-color:#50e0cf;stop-opacity:1;"
         offset="0"
         id="stop14276" /><stop
         style="stop-color:#50a9e0;stop-opacity:1;"
         offset="1"
         id="stop14278" /></linearGradient><linearGradient
       x1="0.0067826705"
       y1="0.0019979638"
       x2="1.0120909"
       y2="-0.018119432"
       gradientUnits="userSpaceOnUse"
       gradientTransform="matrix(0,-134.505,-134.505,0,4065.85,4456.6)"
       spreadMethod="pad"
       id="linearGradient14338"><stop
         style="stop-color:#50ded0;stop-opacity:1;"
         offset="0"
         id="stop14334" /><stop
         style="stop-color:#50dad1;stop-opacity:1;"
         offset="1"
         id="stop14336" /></linearGradient><linearGradient
       x1="-0.024107376"
       y1="0.0035027824"
       x2="1.0098109"
       y2="-0.0027844063"
       gradientUnits="userSpaceOnUse"
       gradientTransform="matrix(0,-134.505,-134.505,0,2905.79,3729.47)"
       spreadMethod="pad"
       id="linearGradient14354"><stop
         style="stop-color:#50cbd6;stop-opacity:1;"
         offset="0"
         id="stop14350" /><stop
         style="stop-color:#50c7d7;stop-opacity:1;"
         offset="1"
         id="stop14352" /></linearGradient><linearGradient
       x1="0.014287399"
       y1="0.023535233"
       x2="1.0001165"
       y2="-0.010450067"
       gradientUnits="userSpaceOnUse"
       gradientTransform="matrix(0,-66.9822,-66.9822,0,4184.62,4295.47)"
       spreadMethod="pad"
       id="linearGradient14370"><stop
         style="stop-color:#50dbd1;stop-opacity:1;"
         offset="0"
         id="stop14366" /><stop
         style="stop-color:#50d9d1;stop-opacity:1;"
         offset="1"
         id="stop14368" /></linearGradient><linearGradient
       x1="0.00014964015"
       y1="0.0026450388"
       x2="1.0018381"
       y2="0.010081807"
       gradientUnits="userSpaceOnUse"
       gradientTransform="matrix(0,-66.9832,-66.9832,0,3024.77,3556.68)"
       spreadMethod="pad"
       id="linearGradient14386"><stop
         style="stop-color:#50c5d7;stop-opacity:1;"
         offset="0"
         id="stop14382" /><stop
         style="stop-color:#50c7d7;stop-opacity:1;"
         offset="1"
         id="stop14384" /></linearGradient><clipPath
       clipPathUnits="userSpaceOnUse"
       id="clipPath14408"><path
         d="m 883.727,3440.09 c 0,0 -0.84,-0.28 -2.25,-0.84 -0.372,0.28 -0.657,0.56 -0.934,0.94 2.059,-0.1 3.184,-0.1 3.184,-0.1 z"
         id="path14406" /></clipPath><linearGradient
       x1="0"
       y1="0"
       x2="1"
       y2="0"
       gradientUnits="userSpaceOnUse"
       gradientTransform="matrix(3.1871,0,0,-3.1871,880.54,3439.72)"
       spreadMethod="pad"
       id="linearGradient14414"><stop
         style="stop-opacity:1;stop-color:#5bc8cd"
         offset="0"
         id="stop14410" /><stop
         style="stop-opacity:1;stop-color:#4191d5"
         offset="1"
         id="stop14412" /></linearGradient><clipPath
       clipPathUnits="userSpaceOnUse"
       id="clipPath14436"><path
         d="m 1126.93,3148.76 c -8.18,-5.71 -16.62,-18.4 -24.71,-35.45 -22.01,-46.03 -42.3,-123.42 -53.02,-177.17 H 586.879 c 29.543,88.74 72.09,260.21 4.019,364.14 0,0.09 -0.082,0.17 -0.171,0.26 -87.52,96.55 -140.438,222.42 -140.438,359.97 0,304.49 259.406,551.37 579.491,551.37 227.05,0 493.17,-146.57 493.17,-400.28 0,-98.6 -31.96,-97.15 -26.08,-145.04 4.26,-35.62 56.16,-126.13 81.64,-183.74 8.78,-19.68 14.4,-35.45 14.06,-43.97 -0.76,-17.3 -23.26,-24.46 -46.44,-28.97 -21.56,-4.18 -43.64,-6.06 -49.26,-11.68 -10.91,-10.82 -11.42,-43.97 1.03,-60.16 0.33,-0.43 0.59,-0.86 0.93,-1.28 9.29,-13.64 4.01,-31.71 -10.57,-40.06 -14.06,-8.01 -27.01,-9.71 -32.55,-10.05 -1.88,-0.09 -2.9,-0.09 -2.9,-0.09 0,0 0.77,-0.25 2.05,-0.76 7.16,-2.82 30.16,-13.64 21.81,-33.5 -9.8,-23.43 -43.46,-14.74 -47.8,-28.29 -4.35,-13.63 28.8,-95.62 -61.11,-118.8 -51.47,-13.29 -109.16,12.36 -156.89,31.37 -35.7,14.14 -65.96,24.54 -83.94,12.18 z"
         id="path14434" /></clipPath><linearGradient
       x1="0"
       y1="0"
       x2="1"
       y2="0"
       gradientUnits="userSpaceOnUse"
       gradientTransform="matrix(0,1275.74,-1275.74,0,1021.44,2936.14)"
       spreadMethod="pad"
       id="linearGradient14442"><stop
         style="stop-opacity:1;stop-color:#5bc8cd"
         offset="0"
         id="stop14438" /><stop
         style="stop-opacity:1;stop-color:#4191d5"
         offset="1"
         id="stop14440" /></linearGradient><clipPath
       clipPathUnits="userSpaceOnUse"
       id="clipPath14588"><path
         d="m 5843.23,3863.09 h 1044.6 c 89.41,0 161.89,-72.48 161.89,-161.89 v 0 c 0,-89.41 -72.48,-161.88 -161.89,-161.88 h -1044.6 z"
         id="path14586" /></clipPath><linearGradient
       x1="0"
       y1="0"
       x2="1"
       y2="0"
       gradientUnits="userSpaceOnUse"
       gradientTransform="matrix(-1206.48,0,0,1206.48,7049.71,3701.2)"
       spreadMethod="pad"
       id="linearGradient14594"><stop
         style="stop-opacity:1;stop-color:#5bc8cd"
         offset="0"
         id="stop14590" /><stop
         style="stop-opacity:1;stop-color:#4191d5"
         offset="1"
         id="stop14592" /></linearGradient><clipPath
       clipPathUnits="userSpaceOnUse"
       id="clipPath14622"><path
         d="m 5827.4,3093.05 c -124.77,-124.78 -286.38,-190.46 -449.92,-196.73 -129.13,-5.27 -259.47,26.61 -373.83,95.33 -46.04,27.83 -89.66,61.63 -129.32,101.4 -263.23,263.11 -263.23,689.87 0,953.08 263.1,263.22 689.75,263.22 953.07,0 263.12,-263.21 263.12,-689.97 0,-953.08 z"
         id="path14620" /></clipPath><linearGradient
       x1="0"
       y1="0"
       x2="1"
       y2="0"
       gradientUnits="userSpaceOnUse"
       gradientTransform="matrix(1347.83,0,0,-1347.83,4676.91,3569.65)"
       spreadMethod="pad"
       id="linearGradient14628"><stop
         style="stop-opacity:1;stop-color:#5bc8cd"
         offset="0"
         id="stop14624" /><stop
         style="stop-opacity:1;stop-color:#4191d5"
         offset="1"
         id="stop14626" /></linearGradient><clipPath
       clipPathUnits="userSpaceOnUse"
       id="clipPath14640"><path
         d="m 5003.65,3624.39 c -4.17,18.94 -0.26,37.92 9.54,54.01 5.18,8.5 6.11,18.66 3.18,28.17 -0.56,1.78 -1.04,3.6 -1.45,5.45 -9.24,41.97 21.03,84.32 67.61,94.57 3.86,0.85 7.68,1.36 11.5,1.73 -2.34,38.17 26.49,74.32 69.04,83.68 18.74,4.13 37.24,2.4 53.28,-3.87 12.57,-4.9 26.54,-2.3 36.24,7.08 19.1,18.45 48.19,27.57 78.31,21.82 21.11,-4.03 39.05,-14.7 51.67,-29.05 7.17,-8.15 17.73,-12.12 28.42,-10.22 20.95,3.73 44.15,-0.45 64.5,-13.46 26.1,-16.68 41.01,-43.69 41.94,-70.51 0.38,-11.08 5.1,-21.32 12.51,-29.58 15.3,-17.04 23.98,-41.18 21.98,-67.26 -3.64,-47.55 -41.34,-83.43 -84.2,-80.15 -1.3,0.1 -2.57,0.34 -3.86,0.51 -2.89,-28.19 -21.68,-55.25 -51.36,-69.22 -22.4,-10.56 -46.58,-11.51 -67.23,-4.58 -10.13,3.4 -21.06,1.62 -30.04,-4.2 -3.49,-2.26 -7.17,-4.33 -11.07,-6.16 -4.54,-2.14 -9.16,-3.88 -13.81,-5.23 -21.35,-6.23 -40.51,-19.05 -51.23,-38.53 -5.48,-9.95 -9.15,-20.61 -11.03,-31.95 -1.33,-7.99 -7.16,-14.46 -15.07,-16.2 l -0.48,-0.1 c -12,-2.65 -23.56,5.76 -24.71,17.92 l -1.87,19.87 c -0.88,9.2 -9.7,15.19 -18.72,13.18 -0.07,-0.02 -0.13,-0.03 -0.19,-0.04 -46.57,-10.25 -91.83,15.46 -101.06,57.44 -0.43,1.94 -0.77,3.88 -1.02,5.82 -0.87,6.78 -5.21,12.45 -11.64,14.78 -24.78,8.95 -44,28.53 -49.68,54.28 z"
         id="path14638" /></clipPath><linearGradient
       x1="0"
       y1="0"
       x2="1"
       y2="0"
       gradientUnits="userSpaceOnUse"
       gradientTransform="matrix(549.395,82.5564,82.5564,-549.395,5000.98,3641.1)"
       spreadMethod="pad"
       id="linearGradient14646"><stop
         style="stop-opacity:1;stop-color:#5bc8cd"
         offset="0"
         id="stop14642" /><stop
         style="stop-opacity:1;stop-color:#4191d5"
         offset="1"
         id="stop14644" /></linearGradient><clipPath
       clipPathUnits="userSpaceOnUse"
       id="clipPath14688"><path
         d="m 5296.06,2001.74 c -4.14,50.92 -46.68,90.97 -98.66,90.97 -49.6,0 -90.56,-36.5 -97.81,-84.08 -6.67,1.42 -13.57,2.2 -20.66,2.2 -54.72,0 -99.08,-44.36 -99.08,-99.07 0,-3.06 0.2,-6.08 0.46,-9.06 -5.97,1.13 -12.14,1.78 -18.44,1.78 -54.72,0 -99.08,-44.35 -99.08,-99.07 0,-13.68 2.78,-26.71 7.79,-38.56 -46.97,-7.77 -82.83,-48.46 -82.83,-97.62 0,-24.58 9.01,-47.01 23.82,-64.33 -32.58,-16.23 -55.02,-49.77 -55.02,-88.64 0,-28.22 11.87,-53.63 30.81,-71.68 -10.8,-15.87 -17.12,-35.02 -17.12,-55.66 0,-31.81 15.05,-60.04 38.36,-78.18 -3.99,-10.74 -6.28,-22.31 -6.28,-34.44 0,-41.27 25.25,-76.61 61.12,-91.51 -8.53,-14.63 -13.5,-31.6 -13.5,-49.76 0,-54.71 44.36,-99.07 99.07,-99.07 6.67,0 13.18,0.68 19.47,1.94 -0.01,-0.65 -0.1,-1.29 -0.1,-1.94 0,-54.71 44.35,-99.069 99.07,-99.069 10.9,0 21.36,1.828 31.16,5.078 2.94,-52.078 45.98,-93.43 98.79,-93.43 54.72,0 99.07,44.352 99.07,99.07 V 2002 Z"
         id="path14686" /></clipPath><linearGradient
       x1="0"
       y1="0"
       x2="1"
       y2="0"
       gradientUnits="userSpaceOnUse"
       gradientTransform="matrix(539.918,0,0,-539.918,4756.55,1470.62)"
       spreadMethod="pad"
       id="linearGradient14694"><stop
         style="stop-opacity:1;stop-color:#5bc8cd"
         offset="0"
         id="stop14690" /><stop
         style="stop-opacity:1;stop-color:#4191d5"
         offset="1"
         id="stop14692" /></linearGradient><clipPath
       clipPathUnits="userSpaceOnUse"
       id="clipPath14732"><path
         d="m 5322.51,2001.74 c 4.13,50.92 46.68,90.97 98.66,90.97 49.6,0 90.57,-36.5 97.81,-84.08 6.67,1.42 13.58,2.2 20.67,2.2 54.71,0 99.06,-44.36 99.06,-99.07 0,-3.06 -0.19,-6.08 -0.45,-9.06 5.98,1.13 12.14,1.78 18.45,1.78 54.72,0 99.07,-44.35 99.07,-99.07 0,-13.68 -2.77,-26.71 -7.78,-38.56 46.96,-7.77 82.82,-48.46 82.82,-97.62 0,-24.58 -9,-47.01 -23.82,-64.33 32.58,-16.23 55.02,-49.77 55.02,-88.64 0,-28.22 -11.86,-53.63 -30.81,-71.68 10.8,-15.87 17.12,-35.02 17.12,-55.66 0,-31.81 -15.05,-60.04 -38.36,-78.18 3.99,-10.74 6.28,-22.31 6.28,-34.44 0,-41.27 -25.24,-76.61 -61.12,-91.51 8.53,-14.63 13.5,-31.6 13.5,-49.76 0,-54.71 -44.35,-99.07 -99.07,-99.07 -6.67,0 -13.17,0.68 -19.46,1.94 0.01,-0.65 0.09,-1.29 0.09,-1.94 0,-54.71 -44.35,-99.069 -99.07,-99.069 -10.9,0 -21.35,1.828 -31.16,5.078 -2.94,-52.078 -45.98,-93.43 -98.79,-93.43 -54.71,0 -99.07,44.352 -99.07,99.07 V 2002 Z"
         id="path14730" /></clipPath><linearGradient
       x1="0"
       y1="0"
       x2="1"
       y2="0"
       gradientUnits="userSpaceOnUse"
       gradientTransform="matrix(-539.918,0,0,-539.918,5862.02,1470.62)"
       spreadMethod="pad"
       id="linearGradient14738"><stop
         style="stop-opacity:1;stop-color:#5bc8cd"
         offset="0"
         id="stop14734" /><stop
         style="stop-opacity:1;stop-color:#4191d5"
         offset="1"
         id="stop14736" /></linearGradient><clipPath
       clipPathUnits="userSpaceOnUse"
       id="clipPath14798"><path
         d="m 3611.96,1738.96 c 0,-68.75 -55.73,-124.49 -124.48,-124.49 -68.75,0 -124.48,55.74 -124.48,124.49 0,68.74 55.73,124.47 124.48,124.47 68.75,0 124.48,-55.73 124.48,-124.47 z"
         id="path14796" /></clipPath><linearGradient
       x1="0"
       y1="0"
       x2="1"
       y2="0"
       gradientUnits="userSpaceOnUse"
       gradientTransform="matrix(248.958,0,0,-248.958,3363,1738.95)"
       spreadMethod="pad"
       id="linearGradient14804"><stop
         style="stop-opacity:1;stop-color:#5bc8cd"
         offset="0"
         id="stop14800" /><stop
         style="stop-opacity:1;stop-color:#4191d5"
         offset="1"
         id="stop14802" /></linearGradient><clipPath
       clipPathUnits="userSpaceOnUse"
       id="clipPath14816"><path
         d="m 4249.17,1499.82 c 0,-343.8 -278.7,-622.601 -622.5,-622.601 -90.4,0 -176.4,19.301 -253.9,54 9.8,48 27.6,114.301 46.7,154.301 7.2,15.3 14.8,26.8 22.2,31.9 16.2,11.1 43.4,1.8 75.5,-11 42.9,-17.1 94.8,-40.1 141.1,-28.2 80.8,20.9 51,94.6 54.9,106.9 3.9,12.1 34.2,4.3 43,25.4 7.5,17.9 -13.2,27.6 -19.6,30.1 -1.2,0.5 -1.8,0.7 -1.8,0.7 0,0 0.9,0 2.6,0.1 4.9,0.3 16.6,1.8 29.2,9 13.1,7.5 17.9,23.8 9.5,36 -0.3,0.4 -0.5,0.8 -0.8,1.2 -11.2,14.6 -10.7,44.4 -0.89,54.1 5,5.1 24.89,6.8 44.29,10.5 20.8,4.1 41,10.49 41.7,26.1 0.3,7.6 -4.7,21.8 -12.6,39.5 -22.9,51.8 -69.6,133.2 -73.39,165.2 -5.31,43.1 23.39,41.8 23.39,130.5 0,217.8 -218.2,347.8 -415.7,359 75.1,32.1 157.8,49.9 244.6,49.9 343.8,0 622.5,-278.8 622.5,-622.6 z"
         id="path14814" /></clipPath><linearGradient
       x1="0"
       y1="0"
       x2="1"
       y2="0"
       gradientUnits="userSpaceOnUse"
       gradientTransform="matrix(876.399,0,0,-876.399,3372.77,1499.82)"
       spreadMethod="pad"
       id="linearGradient14822"><stop
         style="stop-opacity:1;stop-color:#5bc8cd"
         offset="0"
         id="stop14818" /><stop
         style="stop-opacity:1;stop-color:#4191d5"
         offset="1"
         id="stop14820" /></linearGradient><clipPath
       clipPathUnits="userSpaceOnUse"
       id="clipPath14848"><path
         d="m 1731.58,1573.52 h 1070.33 c 91.62,0 165.88,-74.27 165.88,-165.88 v 0 c 0,-91.61 -74.26,-165.87 -165.88,-165.87 H 1731.58 Z"
         id="path14846" /></clipPath><linearGradient
       x1="0"
       y1="0"
       x2="1"
       y2="0"
       gradientUnits="userSpaceOnUse"
       gradientTransform="matrix(-1236.21,0,0,1236.21,2967.79,1407.64)"
       spreadMethod="pad"
       id="linearGradient14854"><stop
         style="stop-opacity:1;stop-color:#5bc8cd"
         offset="0"
         id="stop14850" /><stop
         style="stop-opacity:1;stop-color:#4191d5"
         offset="1"
         id="stop14852" /></linearGradient><clipPath
       clipPathUnits="userSpaceOnUse"
       id="clipPath14882"><path
         d="m 1822.46,1543.03 c 0,-383.94 -311.24,-695.19 -695.18,-695.19 -383.94,0 -695.186,311.25 -695.186,695.19 0,383.93 311.246,695.18 695.186,695.18 383.94,0 695.18,-311.25 695.18,-695.18 z"
         id="path14880" /></clipPath><linearGradient
       x1="0"
       y1="0"
       x2="1"
       y2="0"
       gradientUnits="userSpaceOnUse"
       gradientTransform="matrix(1390.36,0,0,-1390.36,432.096,1543.03)"
       spreadMethod="pad"
       id="linearGradient14888"><stop
         style="stop-opacity:1;stop-color:#5bc8cd"
         offset="0"
         id="stop14884" /><stop
         style="stop-opacity:1;stop-color:#4191d5"
         offset="1"
         id="stop14886" /></linearGradient><clipPath
       clipPathUnits="userSpaceOnUse"
       id="clipPath45668"><g
         id="g45672"
         transform="translate(-4.4292611e-5,-2.3376654e-5)"><path
           d="m 3058.26,3523.18 c -5.58,4.51 -11.16,6.84 -16.74,8.52 -0.04,0.01 -0.06,0.02 -0.1,0.03 -3.96,1.12 -6.99,4.14 -8.1,8.1 -0.01,0.03 -0.02,0.07 -0.03,0.1 -1.68,5.58 -4.02,11.16 -8.51,16.74 -4.51,-5.58 -6.84,-11.16 -8.52,-16.74 -0.01,-0.02 -0.01,-0.04 -0.02,-0.07 -1.12,-3.96 -4.15,-6.98 -8.11,-8.1 -0.03,-0.01 -0.07,-0.02 -0.1,-0.03 -5.58,-1.68 -11.16,-4.02 -16.75,-8.55 5.59,-4.52 11.17,-6.87 16.75,-8.54 0.02,-0.01 0.05,-0.02 0.07,-0.02 3.96,-1.12 6.99,-4.15 8.11,-8.11 0.01,-0.02 0.01,-0.05 0.02,-0.07 1.67,-5.58 4.01,-11.17 8.55,-16.75 4.52,5.58 6.87,11.17 8.54,16.75 0.01,0.03 0.01,0.07 0.03,0.1 1.12,3.96 4.14,6.99 8.1,8.11 0.02,0.01 0.04,0.01 0.07,0.02 5.58,1.68 11.16,4.01 16.74,8.51 z"
           id="path45670" /></g></clipPath><clipPath
       clipPathUnits="userSpaceOnUse"
       id="clipPath45682"><g
         id="g45686"
         transform="translate(-4.4292611e-5,-2.3376654e-5)"><path
           d="m 4218.12,4261.98 c -5.59,4.5 -11.17,6.83 -16.75,8.51 -0.03,0.01 -0.06,0.02 -0.1,0.03 -3.96,1.12 -6.98,4.15 -8.11,8.11 -0.01,0.03 -0.02,0.06 -0.03,0.1 -1.67,5.58 -4.01,11.16 -8.51,16.74 -4.49,-5.58 -6.83,-11.16 -8.51,-16.74 -0.01,-0.03 -0.02,-0.05 -0.02,-0.07 -1.12,-3.96 -4.15,-6.98 -8.11,-8.11 -0.03,-0.01 -0.07,-0.02 -0.1,-0.03 -5.59,-1.67 -11.16,-4.01 -16.75,-8.54 5.59,-4.53 11.16,-6.87 16.75,-8.55 0.02,0 0.05,-0.01 0.07,-0.02 3.96,-1.12 6.99,-4.14 8.1,-8.1 0.01,-0.02 0.02,-0.05 0.03,-0.08 1.67,-5.58 4.02,-11.16 8.54,-16.75 4.53,5.59 6.87,11.17 8.54,16.75 0.01,0.04 0.02,0.07 0.03,0.11 1.13,3.96 4.15,6.98 8.11,8.11 0.03,0 0.05,0.01 0.07,0.02 5.58,1.67 11.16,4.01 16.75,8.51 z"
           id="path45684" /></g></clipPath><clipPath
       clipPathUnits="userSpaceOnUse"
       id="clipPath45695"><g
         id="g45699"
         transform="translate(-4.4292611e-5,-2.3376654e-5)"><path
           d="m 2973.04,3662.22 c -11.21,9.03 -22.42,13.72 -33.63,17.09 -0.06,0.02 -0.13,0.04 -0.19,0.06 -7.96,2.25 -14.03,8.32 -16.28,16.27 -0.02,0.07 -0.04,0.14 -0.05,0.2 -3.38,11.21 -8.06,22.42 -17.1,33.63 -9.04,-11.21 -13.73,-22.42 -17.1,-33.63 -0.01,-0.04 -0.03,-0.09 -0.04,-0.13 -2.25,-7.96 -8.32,-14.03 -16.28,-16.28 -0.07,-0.02 -0.14,-0.04 -0.21,-0.06 -11.21,-3.36 -22.41,-8.06 -33.63,-17.15 11.22,-9.1 22.42,-13.8 33.63,-17.16 0.05,-0.02 0.1,-0.03 0.15,-0.05 7.95,-2.25 14.03,-8.32 16.28,-16.27 0.01,-0.05 0.03,-0.1 0.04,-0.15 3.36,-11.21 8.06,-22.42 17.16,-33.63 9.09,11.21 13.79,22.42 17.15,33.63 0.02,0.07 0.04,0.14 0.06,0.21 2.25,7.95 8.33,14.03 16.28,16.28 0.05,0.01 0.09,0.02 0.13,0.04 11.21,3.37 22.42,8.05 33.63,17.1 z"
           id="path45697" /></g></clipPath><clipPath
       clipPathUnits="userSpaceOnUse"
       id="clipPath45708"><g
         id="g45712"
         transform="translate(-4.4292611e-5,-2.3376654e-5)"><path
           d="m 4133.11,4389.35 c -11.22,9.04 -22.43,13.73 -33.63,17.1 -0.07,0.01 -0.13,0.03 -0.19,0.05 -7.96,2.25 -14.04,8.32 -16.28,16.28 -0.02,0.07 -0.04,0.13 -0.06,0.19 -3.37,11.21 -8.06,22.42 -17.1,33.63 -9.03,-11.21 -13.72,-22.42 -17.1,-33.63 -0.01,-0.04 -0.02,-0.08 -0.03,-0.13 -2.26,-7.95 -8.33,-14.03 -16.28,-16.27 -0.08,-0.02 -0.15,-0.04 -0.21,-0.07 -11.21,-3.36 -22.43,-8.06 -33.63,-17.15 11.2,-9.1 22.42,-13.8 33.63,-17.16 0.05,-0.01 0.09,-0.03 0.14,-0.04 7.96,-2.25 14.03,-8.33 16.28,-16.28 0.01,-0.05 0.03,-0.1 0.04,-0.15 3.36,-11.21 8.07,-22.42 17.16,-33.63 9.1,11.21 13.8,22.42 17.16,33.63 0.02,0.07 0.04,0.14 0.06,0.21 2.24,7.96 8.32,14.03 16.28,16.28 0.03,0.02 0.08,0.02 0.13,0.04 11.2,3.38 22.41,8.06 33.63,17.1 z"
           id="path45710" /></g></clipPath></defs><g
     inkscape:label="Layer 1"
     inkscape:groupmode="layer"
     id="layer1"
     transform="translate(175.63541,125.92789)"><path
       id="path14282"
       style="display:inline;fill:url(#linearGradient14280);fill-opacity:1;fill-rule:nonzero;stroke:none;stroke-width:0.0639494"
       d="m 138.09669,-156.09375 c -1.21131,1.75726 -0.67459,2.16289 -1.36994,2.95056 -0.71482,0.80973 -0.9468,0.13015 -2.68821,1.60734 1.77216,1.49425 1.91568,0.74683 2.62671,1.53885 0.71104,0.79201 0.1191,1.04291 1.43092,3.02022 1.28215,-2.00893 0.67459,-2.16347 1.36994,-2.95115 0.71482,-0.80972 1.02909,-0.21232 2.68821,-1.60734 -1.85661,-1.54934 -1.92549,-0.75717 -2.62671,-1.53826 -0.72085,-0.80294 -0.26361,-1.27212 -1.43092,-3.02022 z m -17.524,0.72037 v 5.8e-4 c -3.7714,0 -7.12302,1.746 -9.36377,4.46503 v 0.19794 l -0.0357,15.99851 -0.001,0.35409 c 1.60896,0.25904 2.84686,1.80872 2.84686,3.68777 0,0.82274 -0.24276,1.57863 -0.64441,2.19536 l 0.002,0.002 5.09168,5.61379 0.0739,0.0813 c 1.03937,-0.8087 2.47375,-0.63059 3.32383,0.46439 0.91288,1.1766 0.8051,2.96126 -0.24237,3.98671 -1.04686,1.02547 -2.63564,0.90378 -3.54913,-0.27283 -0.74905,-0.96484 -0.80118,-2.33449 -0.22066,-3.36328 l -0.0868,-0.0952 -5.08961,-5.61437 -0.002,-0.002 c -0.55252,0.46107 -1.23637,0.7343 -1.97766,0.7343 -1.83425,0 -3.32072,-1.66973 -3.32072,-3.73014 0,-1.85884 1.21105,-3.39594 2.79466,-3.67964 l 0.002,-0.36454 0.0351,-15.99851 v -0.15092 c -3.21326,-3.80011 -8.64562,-5.05053 -13.607439,-2.65801 -3.528717,1.7016 -6.021618,4.87444 -7.095175,8.44477 l 5.508191,8.39079 c 0.1679,-0.0724 0.346266,-0.12074 0.536919,-0.12074 0.833871,0 1.509985,0.75947 1.509985,1.69615 0,0.93599 -0.676114,1.69499 -1.509985,1.69499 -0.83387,0 -1.509469,-0.759 -1.509469,-1.69499 0,-0.31027 0.07715,-0.59914 0.206706,-0.84923 l -0.02791,-0.0424 -5.62808,-8.57363 c -3.567552,-0.49671 -7.456241,0.9037 -10.381795,4.18929 -3.618665,4.06547 -4.680519,9.78502 -3.123324,14.426 l 6.211508,0.0482 0.204121,0.002 c 0.238759,-1.79657 1.614163,-3.17694 3.28042,-3.17694 1.833663,0 3.320728,1.67098 3.320728,3.73072 0,2.06043 -1.487065,3.73014 -3.320728,3.73014 -1.661351,0 -3.034122,-1.37146 -3.278869,-3.16069 l -0.211874,-0.002 -6.390307,-0.0493 c -2.49119,3.34048 -3.461811,8.23981 -2.16576,13.06188 1.90382,7.08262 7.948092,11.31918 13.650847,9.69106 l 0.0031,-0.005 7.791256,-12.79254 0.02946,-0.0482 c -0.01661,-0.0201 -0.035,-0.0372 -0.05116,-0.058 -0.913505,-1.17593 -0.805019,-2.96069 0.241846,-3.98614 0.457999,-0.44894 1.019772,-0.67811 1.583366,-0.69541 0.724619,-0.0222 1.452258,0.30562 1.965771,0.96708 0.302114,0.38937 0.485137,0.84641 0.566374,1.31942 h 0.345715 l 6.130372,-0.002 c 0.20141,-0.67075 0.7622,-1.15573 1.42679,-1.15573 0.83387,0 1.50947,0.75948 1.50947,1.69615 0,0.936 -0.6756,1.69499 -1.50947,1.69499 -0.65057,0 -1.20336,-0.4638 -1.41542,-1.11219 l -6.139675,0.002 H 98.50324 c -0.108499,0.57848 -0.367573,1.1256 -0.794783,1.54407 -0.764296,0.74918 -1.814042,0.87522 -2.682007,0.43652 l -0.01912,0.0313 -7.505485,12.32526 c 1.368544,4.057725 4.69389,7.392816 9.046993,8.503396 4.084902,1.041889 8.088132,-0.143028 10.876342,-2.767131 l -0.002,-0.200845 -0.0429,-5.92144 -5.1e-4,-0.10507 c -1.56938,-0.2973 -2.76572,-1.82812 -2.76572,-3.67557 0,-2.05975 1.48698,-3.73072 3.32124,-3.73072 1.83428,0 3.32073,1.67097 3.32073,3.73072 0,1.89057 -1.25291,3.4483 -2.87631,3.69299 l 5.1e-4,0.0789 0.0429,5.921443 v 0.03309 c 1.08452,0.684239 2.27051,1.228903 3.56154,1.558579 1.53626,0.391817 3.05755,0.451413 4.51342,0.257151 l 0.0522,-0.06037 7.76955,-9.058913 0.0579,-0.0673 c -0.0769,-0.20334 -0.12299,-0.42512 -0.12299,-0.66 0,-0.93667 0.67569,-1.69557 1.50895,-1.69557 0.83388,0 1.50998,0.7589 1.50998,1.69557 0,0.93668 -0.6761,1.69615 -1.50998,1.69615 -0.25837,0 -0.49947,-0.0768 -0.7121,-0.20549 l -0.0134,0.0157 -7.39335,8.619491 c 4.07463,2.430085 6.64745,5.980613 7.75819,10.623298 h 5.3206 l -1.06505,-9.738071 c 0.81879,0.175542 1.66663,0.270502 2.53731,0.270502 6.75303,0 12.22768,-5.54142 12.22768,-12.37808 0,-0.68688 -0.0709,-1.35476 -0.18293,-2.00903 l -9.39943,-5.37521 -0.0977,-0.0563 c -0.60517,0.91439 -1.56858,1.51156 -2.66082,1.51156 -1.83427,0 -3.32124,-1.67088 -3.32124,-3.7313 0,-2.05974 1.48697,-3.73072 3.32124,-3.73072 1.83428,0 3.32073,1.67098 3.32073,3.73072 0,0.43116 -0.0687,0.8431 -0.18862,1.22829 l 0.0796,0.0453 9.31726,5.32935 c 3.66743,-2.13625 6.15208,-6.11599 6.15208,-10.70631 0,-3.68329 -1.6026,-6.97493 -4.12688,-9.2406 l -0.38964,0.002 -5.41569,0.0331 -0.29404,0.001 c -0.11373,0.56275 -0.37156,1.09344 -0.78858,1.50169 -1.04687,1.02547 -2.6351,0.90369 -3.54862,-0.27224 -0.91231,-1.17593 -0.80459,-2.96056 0.24288,-3.98671 0.45773,-0.44865 1.01935,-0.67762 1.58285,-0.69483 0.72451,-0.0222 1.45225,0.30562 1.96577,0.96707 0.31097,0.40056 0.49432,0.87333 0.57103,1.36122 l 0.26251,-0.001 5.35161,-0.0319 c 0.22159,-0.92099 0.36019,-1.87455 0.36019,-2.86523 0,-6.83598 -5.47466,-12.37808 -12.22768,-12.37808 -0.34684,0 -0.68523,0.0307 -1.02216,0.0673 l -5.22139,6.14724 -0.004,0.004 c 0.81184,1.17484 0.67896,2.86952 -0.33177,3.859 -0.33788,0.33099 -0.73318,0.53493 -1.14308,0.62982 l 0.0305,4.14634 c 0.56651,0.24431 0.96893,0.86051 0.96893,1.58296 0,0.936 -0.67612,1.69557 -1.50998,1.69557 -0.83387,0 -1.50947,-0.75957 -1.50947,-1.69557 0,-0.75577 0.4421,-1.3906 1.05006,-1.60966 l -0.0305,-4.12196 c -0.5264,-0.11692 -1.02541,-0.41004 -1.4056,-0.89916 -0.91291,-1.17661 -0.80451,-2.96114 0.24236,-3.98729 0.82161,-0.80483 1.97464,-0.89491 2.87528,-0.33145 l 0.0418,-0.0494 5.17902,-6.09151 c -1.15126,-5.62525 -6.05024,-9.85998 -11.9476,-9.85998 z m 23.84351,7.71744 c -0.59632,0.86509 -0.33206,1.06516 -0.67438,1.45293 -0.3519,0.39862 -0.46615,0.064 -1.32343,0.79119 0.87242,0.73561 0.94342,0.36763 1.29346,0.75752 0.35004,0.38992 0.0585,0.51318 0.70435,1.4866 0.6312,-0.98898 0.33206,-1.06459 0.67438,-1.45235 0.3519,-0.39862 0.50666,-0.10443 1.32343,-0.79119 -0.914,-0.76201 -0.94825,-0.373 -1.29346,-0.75752 -0.35487,-0.39529 -0.12969,-0.6266 -0.70435,-1.48718 z m -75.244503,37.82152 c -1.206609,1.75042 -0.671608,2.15491 -1.364258,2.93953 -0.712039,0.80657 -0.943244,0.1295 -2.677872,1.60095 1.765268,1.48844 1.908108,0.74352 2.616377,1.53246 0.70828,0.78893 0.118518,1.03898 1.425236,3.00861 1.277119,-2.00112 0.672136,-2.15492 1.364775,-2.93953 0.712049,-0.80658 1.025204,-0.21136 2.677873,-1.60096 -1.849398,-1.54332 -1.918396,-0.75499 -2.616895,-1.53304 -0.718039,-0.79982 -0.262467,-1.26672 -1.425236,-3.00802 z m 6.116939,8.70714 c -0.606909,0.8804 -0.337883,1.08326 -0.686263,1.477894 -0.358129,0.405679 -0.474228,0.06561 -1.346687,0.805701 0.887869,0.748626 0.959959,0.374066 1.316198,0.770873 0.35623,0.396807 0.05951,0.522071 0.716752,1.512721 0.6424,-1.006492 0.337894,-1.083839 0.686263,-1.478473 0.35813,-0.405678 0.515976,-0.106204 1.347205,-0.805121 -0.930179,-0.776203 -0.964879,-0.379542 -1.316199,-0.770872 -0.361149,-0.402283 -0.132439,-0.636913 -0.717269,-1.512723 z m -6.81147,9.068783 c -5.68113,-0.02946 -10.9472,0.562833 -14.984098,1.574833 -2.153011,0.539735 -3.955647,1.196733 -5.296835,1.958527 -1.341186,0.761801 -2.250849,1.632759 -2.498555,2.667289 -0.04196,0.175266 -0.06052,0.349577 -0.05995,0.522429 h -0.01654 v 11.334381 h 0.0062 a 22.475887,6.4666293 0 0 0 20.919653,6.413683 l 0.0217,5.81e-4 a 22.475887,6.4666293 0 0 0 23.95151,-6.010252 22.475887,6.4666293 0 0 0 0.05168,-0.404012 h 0.0067 v -11.334381 h -0.02015 c -0.0028,-0.84872 -0.498641,-1.659662 -1.324983,-2.349769 -0.993514,-0.829714 -2.47979,-1.553717 -4.364075,-2.175625 -3.76857,-1.243812 -9.135701,-2.062973 -15.250749,-2.183752 -0.382191,-0.0075 -0.762791,-0.01196 -1.141532,-0.01393 z m -0.0031,0.732562 v 5.8e-4 c 0.375217,0.0019 0.752058,0.0065 1.130681,0.01393 6.057852,0.119647 11.372998,0.937878 15.035258,2.146602 1.831127,0.604361 3.247681,1.309882 4.123779,2.041535 0.8761,0.731656 1.194054,1.420276 1.02371,2.136734 -0.170355,0.716458 -0.892322,1.489049 -2.143538,2.200586 -1.251209,0.711537 -3.001209,1.35673 -5.110283,1.885968 -4.218158,1.05846 -9.872229,1.659977 -15.930294,1.541164 l -0.0078,0.366281 -0.02067,-5.81e-4 a 22.096696,6.3575312 0 0 1 -0.001,0 l 0.0078,-0.366861 c -6.05765,-0.12049 -11.371464,-0.939139 -15.03164,-2.148343 -1.830082,-0.604599 -3.245412,-1.311029 -4.120162,-2.042696 -0.87475,-0.73166 -1.191153,-1.420139 -1.019576,-2.136734 0.171584,-0.7166 0.895188,-1.489171 2.147672,-2.200585 1.252484,-0.711418 3.003399,-1.356441 5.113383,-1.885388 3.956212,-0.991776 9.174386,-1.581005 14.802714,-1.552193 z m -22.838916,18.355823 -0.01395,5.81e-4 v 11.334381 h 0.0062 a 22.475887,6.4666293 0 0 0 20.919653,6.413683 l 0.0217,0.0012 a 22.475887,6.4666293 0 0 0 23.952027,-6.010832 22.475887,6.4666293 0 0 0 0.05116,-0.404012 h 0.0067 v -11.327996 a 22.472885,6.4657663 0 0 1 -0.05219,0.434777 22.472885,6.4657663 0 0 1 -23.948926,6.009671 l -0.02119,-5.8e-4 A 22.472885,6.4657663 0 0 1 45.63513,-72.970073 Z m 0,12.365888 -0.01395,5.81e-4 v 11.334381 h 0.0062 a 22.475887,6.4666293 0 0 0 20.919653,6.413683 l 0.0217,0.0012 a 22.475887,6.4666293 0 0 0 23.952027,-6.010832 22.475887,6.4666293 0 0 0 0.05116,-0.404012 h 0.0067 v -11.334381 h -5.17e-4 a 22.472885,6.4657663 0 0 1 -0.05168,0.441162 22.472885,6.4657663 0 0 1 -23.948926,6.009671 l -0.02119,-5.8e-4 a 22.472885,6.4657663 0 0 1 -20.921204,-6.450834 z m 0,12.554543 -0.01395,5.8e-4 v 11.334382 h 0.0062 a 22.475887,6.4666293 0 0 0 20.919653,6.413683 l 0.0217,5.81e-4 a 22.475887,6.4666293 0 0 0 23.952027,-6.010253 22.475887,6.4666293 0 0 0 0.05116,-0.404011 h 0.0067 v -11.334382 h -5.17e-4 a 22.472885,6.4657663 0 0 1 -0.05168,0.441162 22.472885,6.4657663 0 0 1 -23.948926,6.009672 l -0.02119,-0.0012 A 22.472885,6.4657663 0 0 1 45.635123,-48.04972 Z"
       transform="matrix(1,0,0,0.8902418,-217.55244,13.033287)" /></g></svg>
