<?xml version="1.0" encoding="UTF-8" standalone="no"?>
<!-- Created with Inkscape (http://www.inkscape.org/) -->

<svg
   width="112mm"
   height="112mm"
   viewBox="0 0 112 112"
   version="1.1"
   id="svg14963"
   xml:space="preserve"
   inkscape:version="1.2.2 (b0a8486, 2022-12-01)"
   sodipodi:docname="jupyter-lab-jumpstart.svg"
   xmlns:inkscape="http://www.inkscape.org/namespaces/inkscape"
   xmlns:sodipodi="http://sodipodi.sourceforge.net/DTD/sodipodi-0.dtd"
   xmlns:xlink="http://www.w3.org/1999/xlink"
   xmlns="http://www.w3.org/2000/svg"
   xmlns:svg="http://www.w3.org/2000/svg"><sodipodi:namedview
     id="namedview14965"
     pagecolor="#505050"
     bordercolor="#eeeeee"
     borderopacity="1"
     inkscape:showpageshadow="0"
     inkscape:pageopacity="0"
     inkscape:pagecheckerboard="0"
     inkscape:deskcolor="#505050"
     inkscape:document-units="mm"
     showgrid="false"
     inkscape:zoom="1.1893044"
     inkscape:cx="161.01849"
     inkscape:cy="283.77933"
     inkscape:window-width="1850"
     inkscape:window-height="1136"
     inkscape:window-x="70"
     inkscape:window-y="27"
     inkscape:window-maximized="1"
     inkscape:current-layer="layer1"><inkscape:grid
       type="xygrid"
       id="grid17381" /></sodipodi:namedview><defs
     id="defs14960"><linearGradient
       inkscape:collect="always"
       id="linearGradient20723"><stop
         style="stop-color:#56b5ed;stop-opacity:1;"
         offset="0"
         id="stop20719" /><stop
         style="stop-color:#6675e4;stop-opacity:1;"
         offset="1"
         id="stop20721" /></linearGradient><clipPath
       clipPathUnits="userSpaceOnUse"
       id="clipath_lpe_path-effect32319-4"><path
         id="lpe_path-effect32319-4"
         style="color:#000000;fill:#1e1b1b;stroke-width:0.994756;stroke-linecap:square;stroke-linejoin:bevel;-inkscape-stroke:none"
         class="powerclip"
         d="m -230.35095,194.57131 h 353.33587 v 352.89552 h -353.33587 z m 176.36411,65.67436 c -5.56264,0.0507 -11.191875,0.5224 -16.849356,1.44039 -60.346444,9.79188 -101.419784,66.73774 -91.624504,127.03276 v 0.002 l 0.006,0.0351 c 9.81576,60.29171 66.82254,101.3175 127.167334,91.51538 37.7878122,-6.13813 68.0111,-30.76925 82.921574,-63.1284 9.152446,-19.31109 12.757573,-41.46754 9.06424,-64.10805 -4.295153,-26.32982 -17.736495,-48.93191 -36.554014,-65.13378 -18.7027395,-16.428 -42.798697,-26.50567 -68.592894,-27.56738 -1.838274,-0.0757 -3.684239,-0.10542 -5.538448,-0.0885 z m 1.48524,11.66494 1.9e-5,2.6e-4 c -4.978797,0.0481 -10.018988,0.47031 -15.086456,1.29004 -54.053023,8.74388 -90.661073,59.34502 -81.887353,113.18664 l 0.006,0.0327 v 10e-4 c 8.79293,53.83762 59.601292,90.29106 113.652246,81.53817 25.268738,-4.09198 46.68972,-17.35655 61.474624,-35.79867 a 5.86555,5.86555 0 0 1 0.104265,-0.76869 L 41.02522,375.26796 33.858456,336.69643 10.464325,304.65514 -36.771339,276.39061 a 5.86555,5.86555 0 0 1 -2.69042,-3.73191 c -2.670009,-0.32859 -5.36349,-0.56206 -8.082161,-0.67169 h -0.0012 c -1.644841,-0.0663 -3.296877,-0.0924 -4.95648,-0.0764 z" /></clipPath><inkscape:path-effect
       effect="powerclip"
       id="path-effect32319-4"
       is_visible="true"
       lpeversion="1"
       inverse="true"
       flatten="false"
       hide_clip="false"
       message="Use fill-rule evenodd on &lt;b&gt;fill and stroke&lt;/b&gt; dialog if no flatten result after convert clip to paths." /><linearGradient
       inkscape:collect="always"
       xlink:href="#linearGradient20723"
       id="linearGradient20725"
       x1="60.129833"
       y1="4.5307865"
       x2="59.870216"
       y2="105.11794"
       gradientUnits="userSpaceOnUse"
       gradientTransform="matrix(0.97813244,0,0,0.97813244,2.4369929,0.70957163)" /></defs><g
     inkscape:label="Layer 1"
     inkscape:groupmode="layer"
     id="layer1"><path
       id="rect15511"
       style="color:#000000;display:inline;fill:url(#linearGradient20725);fill-opacity:1;stroke-width:0.978132;stroke-linecap:round;stroke-linejoin:round;-inkscape-stroke:none"
       d="m 28.051518,5.38055 c -0.20722,5.62e-4 -0.431104,0.1246238 -0.5271,0.3033407 l -2.24069,4.1697706 C 25.174018,10.05791 24.988506,10.223845 24.87135,10.221597 h -0.106453 c -0.650113,0 -1.505335,0.0646 -1.505335,0.0646 -0.23108,0.01742 -0.528756,-0.124747 -0.660941,-0.3152257 L 19.85977,6.0285725 C 19.727584,5.8382311 19.437166,5.7326696 19.213814,5.7944783 l -4.309297,1.4541748 c -0.215065,0.086533 -0.376238,0.3461454 -0.358118,0.5772257 l 0.367419,4.6865352 c 0.01812,0.231078 -0.126731,0.522815 -0.321427,0.648539 l -1.369942,0.948779 c -0.05139,0.03813 -0.127231,0.04926 -0.19482,0.07183 H 12.45092 L 8.0579061,12.363069 c -0.2142234,-0.08864 -0.5156765,-0.0203 -0.6707601,0.151928 l -2.7657227,3.428732 c -0.1355576,0.187954 -0.1314182,0.492898 0.00878,0.677478 l 2.8292847,3.726387 c 0.1401934,0.184584 0.1748628,0.507356 0.077515,0.717786 l -0.769462,1.842265 c -0.081335,0.217034 -0.3346276,0.428063 -0.5627564,0.469222 l -4.7066894,0.850594 c -0.2281303,0.04116 -0.4445843,0.26092 -0.4811076,0.489892 0,0 -0.46043702,2.895147 -0.46043702,4.622974 v 0.0093 c 1.4046e-4,0.01025 0.17824819,0.08327 0.39584147,0.16278 l 4.39249675,1.604554 c 0.2177352,0.07951 0.4225389,0.332328 0.4552694,0.561723 l 0.4123779,2.245341 c 0.051413,0.226021 -0.04594,0.540115 -0.2154907,0.698148 l -3.4788575,3.239596 c -0.1695524,0.158032 -0.2300217,0.460144 -0.1343587,0.671277 l 1.8970419,3.678845 c 0.1168746,0.200177 0.3975738,0.322152 0.6237345,0.271301 l 4.582666,-1.029911 c 0.097253,-0.02186 0.2106536,-0.0042 0.3198771,0.02377 v 48.989774 c 3.436e-4,0.949477 0.7703143,1.719211 1.7197913,1.719275 H 51.720874 L 35.94561,103.45724 v 2.31459 h 49.370113 v -2.31459 L 69.44589,92.186103 h 40.27765 c 0.94947,-5.8e-5 1.71945,-0.769793 1.71979,-1.719275 V 15.901354 c -6e-5,-0.94968 -0.77012,-1.719734 -1.71979,-1.719792 H 43.598372 c -0.0074,-0.01004 -0.0058,-0.02582 -0.01395,-0.03514 l -3.256649,-3.321761 c -0.171379,-0.156067 -0.478016,-0.191592 -0.680579,-0.07906 l -4.165637,2.312004 c -0.202703,0.11252 -0.530286,0.106533 -0.728638,-0.01344 l -1.125512,-0.639754 c -0.20467,-0.108725 -0.379802,-0.387441 -0.38809,-0.619084 L 33.068783,7.0104247 c -0.0083,-0.231642 -0.19729,-0.4761131 -0.419096,-0.5431193 L 28.138334,5.3877847 c -0.02851,-0.00517 -0.05722,-0.00732 -0.08682,-0.00723 z M 41.990202,17.620629 H 108.00478 V 88.747037 H 13.24622 V 50.519396 l 1.483113,0.835608 c 0.207478,0.103389 0.510535,0.0533 0.673344,-0.111621 l 3.317627,-3.364136 c 0.162808,-0.165058 0.479024,-0.250294 0.7028,-0.190169 l 2.359546,0.523999 c 0.228131,0.04074 0.474584,0.253891 0.54777,0.473873 l 1.48053,4.44624 c 0.07319,0.219841 0.322705,0.405259 0.554488,0.411861 0,0 0.124457,0.0031 0.398942,0.0031 1.42314,0 3.754809,-0.304375 3.754809,-0.304375 0.229815,-0.03006 0.456741,-0.24029 0.504362,-0.467154 l 0.980302,-4.657597 c 0.04776,-0.226866 0.266951,-0.471718 0.486792,-0.545187 l 2.074809,-0.787032 c 0.21324,-0.09103 0.535728,-0.0472 0.716235,0.09819 l 3.641122,2.933155 c 0.180508,0.14539 0.485212,0.158125 0.676961,0.02791 l 3.417879,-2.592607 c 0.177004,-0.149742 0.254026,-0.448983 0.171566,-0.665592 l -1.704289,-4.476213 c -0.08245,-0.21661 -0.0326,-0.54273 0.111105,-0.724503 l 1.128096,-1.537891 c 0.130359,-0.191607 0.426288,-0.328721 0.656808,-0.303857 l 4.65863,0.499711 c 0.230512,0.02472 0.493766,-0.128765 0.585494,-0.341581 l 1.526005,-4.172872 c 0.0677,-0.221668 -0.02895,-0.515666 -0.215491,-0.65319 l -3.86643,-2.853056 c -0.186544,-0.137662 -0.320744,-0.438929 -0.29869,-0.669727 l 0.09974,-1.586983 c 0.0074,-0.23164 0.182817,-0.50649 0.390157,-0.610299 l 4.209563,-2.107365 c 0.2072,-0.103811 0.347242,-0.376675 0.310575,-0.605647 l -0.970483,-4.473112 c -0.06208,-0.223352 -0.302083,-0.418019 -0.533301,-0.433049 l -4.787822,-0.309542 c -0.231364,-0.01504 -0.506022,-0.195922 -0.610815,-0.402559 l -0.651123,-1.196826 c -0.116589,-0.200317 -0.115121,-0.527756 0.0031,-0.727088 z m -17.388086,0.106453 c 6.240033,0 11.244792,5.004754 11.244792,11.244792 0,6.240037 -5.004759,11.242725 -11.244792,11.242725 -6.240031,0 -11.245309,-5.002688 -11.245309,-11.242725 0,-6.240038 5.005278,-11.244792 11.245309,-11.244792 z m 68.413912,24.390243 v 37.525358 h 3.881933 V 42.117325 Z m -7.763867,7.763867 v 29.761491 h 3.881933 V 49.881192 Z m -46.58372,3.881934 v 25.879557 h 3.881933 V 53.763126 Z m 38.819852,0 v 25.879557 h 3.881934 V 53.763126 Z m -31.055468,3.881933 v 21.997624 h 3.881933 V 57.645059 Z m 23.291601,2.587956 V 79.642683 H 73.60636 V 60.233015 Z m -15.527734,1.293978 v 18.11569 h 3.881933 v -18.11569 z m 7.763867,1.293978 v 16.821712 h 3.881934 V 62.820971 Z" /></g></svg>
