<?xml version="1.0" encoding="UTF-8" standalone="no"?>
<!-- Created with Inkscape (http://www.inkscape.org/) -->

<svg
   width="54.671932mm"
   height="49.171551mm"
   viewBox="0 0 54.671932 49.171551"
   version="1.1"
   id="svg10622"
   xml:space="preserve"
   inkscape:version="1.2.2 (b0a8486, 2022-12-01)"
   sodipodi:docname="muscly-arm.svg"
   xmlns:inkscape="http://www.inkscape.org/namespaces/inkscape"
   xmlns:sodipodi="http://sodipodi.sourceforge.net/DTD/sodipodi-0.dtd"
   xmlns="http://www.w3.org/2000/svg"
   xmlns:svg="http://www.w3.org/2000/svg"><sodipodi:namedview
     id="namedview10624"
     pagecolor="#505050"
     bordercolor="#eeeeee"
     borderopacity="1"
     inkscape:showpageshadow="0"
     inkscape:pageopacity="0"
     inkscape:pagecheckerboard="0"
     inkscape:deskcolor="#505050"
     inkscape:document-units="mm"
     showgrid="false"
     inkscape:zoom="2"
     inkscape:cx="102.75"
     inkscape:cy="95.25"
     inkscape:window-width="1850"
     inkscape:window-height="1136"
     inkscape:window-x="70"
     inkscape:window-y="27"
     inkscape:window-maximized="1"
     inkscape:current-layer="layer1" /><defs
     id="defs10619"><clipPath
       clipPathUnits="userSpaceOnUse"
       id="clipPath6388-7"><path
         d="M 0,121.698 H 179.895 V 0 H 0 Z"
         id="path6386-4" /></clipPath></defs><g
     inkscape:label="Layer 1"
     inkscape:groupmode="layer"
     id="layer1"
     transform="translate(-78.803316,-56.257793)"><path
       id="path6392-4"
       style="fill:#4e5a66;fill-opacity:1;fill-rule:nonzero;stroke:none;stroke-width:1.41732;stroke-dasharray:none"
       d="m -34.727015,172.49299 c 4.369515,0.0331 8.788418,-0.89881 12.897212,-3.80948 l -0.0656,0.0496 c 3.13337,-2.10654 7.692481,-3.98186 10.817275,-7.38378 2.7670615,-3.01248 3.6079621,-8.2274 0.910372,-12.55162 2.3422762,-2.32099 3.0704533,-5.44021 2.8879135,-8.05736 -0.1885521,-2.70158 -1.0283052,-5.03816 -2.9327115,-6.7902 -3.290001,-3.44008 -5.795752,-6.18258 -9.615711,-9.8941 -1.614984,-1.91207 -3.429737,-3.75624 -6.076618,-5.09745 a 3.2512258,3.2512258 0 0 0 -0.204794,-0.0896 c -3.810702,-1.61048 -8.160308,-1.40237 -11.018868,-1.29437 -4.215168,-0.0705 -8.121087,-0.0525 -12.33403,-0.04 -0.0082,-1.8185 0.13656,-3.65169 0.239993,-5.46864 0.341344,-6.10808 1.689276,-12.481297 2.588722,-18.909832 2.79e-4,-0.002 -2.78e-4,-0.0042 0,-0.0064 0.486513,-3.254225 0.369153,-6.918065 -0.351989,-10.433286 5.61737,4.000919 12.480354,6.361409 19.895402,6.361409 7.364993,0 14.20601,-2.329015 19.8010048,-6.283011 l 1.1007669,-0.862374 0.5423837,3.553493 C -1.5542937,105.46599 16.13944,120.52016 37.328419,120.52016 v -0.002 c 6.252179,-0.13623 11.757013,-2.36324 15.63313,-6.53581 3.879754,-4.17648 6.05794,-10.07412 6.603001,-17.186681 l -0.016,-0.0016 C 59.924178,80.204094 60.847649,63.698007 58.698976,46.751173 a 3.2512258,3.2512258 0 0 0 0,-0.0176 C 57.898655,40.706462 53.382798,36.340337 48.292889,33.186781 43.202981,30.033194 37.251589,27.922136 32.219772,26.626978 a 3.2512258,3.2512258 0 0 0 -0.048,-0.0128 C 22.6861,24.327051 7.7876398,19.714661 -10.578941,20.379166 h -0.247993 c -6.151401,-0.167412 -11.506428,-0.15875 -16.210713,-0.0224 h -0.0528 c -0.766562,-0.0011 -1.524203,0.03137 -2.278332,0.08 -20.34291,0.810299 -27.556018,4.110728 -33.435795,5.609431 a 3.2512258,3.2512258 0 0 0 -0.115196,0.0352 c -8.986193,2.64137 -18.580385,6.543863 -29.170323,11.508454 a 3.2512258,3.2512258 0 0 0 -0.163195,0.0784 c -2.674591,1.438566 -6.925985,3.400863 -10.564482,6.246212 -3.6385,2.845347 -7.02466,7.156374 -6.27661,12.614021 a 3.2512258,3.2512258 0 0 0 0.0368,0.199994 c 1.42547,7.055333 1.77772,15.172616 2.57592,22.168934 a 3.2512258,3.2512258 0 0 0 0,0.0016 3.2512258,3.2512258 0 0 0 0,0.0016 3.2512258,3.2512258 0 0 0 0,0.0016 3.2512258,3.2512258 0 0 0 0,0.0016 3.2512258,3.2512258 0 0 0 0,0.0016 3.2512258,3.2512258 0 0 0 0,0.0016 3.2512258,3.2512258 0 0 0 0,0.0016 c 1.16274,9.737924 6.46924,21.897408 9.898902,30.483878 a 3.2512258,3.2512258 0 0 0 0.024,0.0656 c 3.458491,8.13249 7.111073,18.84909 16.993089,31.80224 a 3.2512258,3.2512258 0 0 0 0.0656,0.0784 c 3.326102,4.0803 8.196272,10.53376 13.721188,16.35791 5.520086,5.81908 11.595959,11.19618 18.455445,12.81881 3.908786,0.94777 8.226937,1.94448 12.596422,1.97754 z m -0.212794,-6.4974 c -3.380454,-0.0657 -7.011544,-0.86665 -10.854074,-1.79835 a 3.2512258,3.2512258 0 0 0 -0.0176,-0.006 c -4.341682,-1.02269 -10.067232,-5.50499 -15.250742,-10.96927 -5.162177,-5.44176 -9.875243,-11.65876 -13.346799,-15.92112 -9.297009,-12.19237 -12.554208,-21.89884 -16.164314,-30.38789 -3.479606,-8.709428 -8.503542,-20.837719 -9.450912,-28.77193 -0.74894,-6.572829 -1.08728,-14.799314 -2.62712,-22.520923 -0.32468,-2.457456 1.05001,-4.397997 3.84308,-6.582203 2.782396,-2.175881 6.60891,-4.012616 9.566112,-5.599831 10.364357,-4.855024 19.655269,-8.617589 28.149554,-11.114866 0.0022,-6.5e-4 0.0017,-0.0064 0.0048,-0.0064 3.274075,-0.841368 6.364829,-1.974841 10.860473,-3.00151 -6.893461,6.28911 -11.223662,15.347737 -11.223662,25.402437 0,3.175805 0.441641,6.247684 1.249562,9.167724 -1.857715,-1.225605 -3.887081,-2.182421 -6.188614,-2.868714 l -1.855944,6.228613 c 2.670225,0.796232 4.462372,1.842943 6.487805,3.627091 2.649079,2.468199 4.025633,4.00194 6.028619,6.882993 2.02082,3.264195 3.289134,10.293478 2.66072,14.457166 a 3.2512258,3.2512258 0 0 0 0,0.0016 3.2512258,3.2512258 0 0 0 0,0.0016 3.2512258,3.2512258 0 0 0 0,0.0016 3.2512258,3.2512258 0 0 0 0,0.0016 3.2512258,3.2512258 0 0 0 0,0.0016 3.2512258,3.2512258 0 0 0 0,0.0016 3.2512258,3.2512258 0 0 0 0,0.0016 3.2512258,3.2512258 0 0 0 0,0.0016 3.2512258,3.2512258 0 0 0 0,0.0016 3.2512258,3.2512258 0 0 0 0,0.0016 3.2512258,3.2512258 0 0 0 0,0.0016 3.2512258,3.2512258 0 0 0 0,0.0016 3.2512258,3.2512258 0 0 0 0,0.0016 3.2512258,3.2512258 0 0 0 0,0.0016 3.2512258,3.2512258 0 0 0 0,0.0016 3.2512258,3.2512258 0 0 0 0,0.0016 3.2512258,3.2512258 0 0 0 0,0.0016 3.2512258,3.2512258 0 0 0 0,0.0016 3.2512258,3.2512258 0 0 0 0,0.0016 3.2512258,3.2512258 0 0 0 0,0.0016 3.2512258,3.2512258 0 0 0 0,0.0016 3.2512258,3.2512258 0 0 0 0,0.0016 3.2512258,3.2512258 0 0 0 0,0.0016 c -0.854615,6.1099 -2.261537,12.659003 -2.641521,19.447413 v 0.006 c -0.311498,5.46707 -1.276771,14.66376 6.00462,21.84254 l 4.559863,-4.62706 c -1.578764,-1.55651 -2.601221,-3.19545 -3.254303,-4.88625 3.814353,-0.0115 7.379521,-0.0201 11.162865,0.0432 a 3.2512258,3.2512258 0 0 0 0.175995,0 c 2.591491,-0.0961 6.687427,0.11781 8.31495,0.76798 1.579162,0.82179 2.565369,1.76416 3.955081,3.40949 a 3.2512258,3.2512258 0 0 0 0.217593,0.2368 c 3.895597,3.76968 6.300823,6.43652 9.807706,10.09889 a 3.2512258,3.2512258 0 0 0 0.150395,0.144 c 0.0093,0.009 0.767879,1.24504 0.852774,2.46232 0.07354,1.05525 -0.120404,1.96962 -0.740777,2.71992 -2.673224,-2.82383 -5.845128,-6.18244 -7.239783,-7.60137 l 0.0048,-0.005 c -2.792242,-2.87038 -6.920377,-4.02914 -10.812475,-3.06551 -3.892098,0.96364 -6.995431,3.92792 -8.066957,7.78217 -0.988997,3.55739 -0.08924,7.3649 2.31833,10.1197 l -0.0144,0.0144 c 0.703525,0.70672 4.616088,4.83913 5.643031,5.87183 l 4.607861,-4.58386 c -0.57472,-0.57794 -3.600115,-3.77413 -5.083047,-5.30544 l 0.0032,-0.003 c -1.200634,-1.16128 -1.644131,-2.80961 -1.209564,-4.37267 0.434537,-1.56307 1.696441,-2.79847 3.363099,-3.21111 1.616095,-0.40012 3.319752,0.0644 4.481465,1.18237 1.55917,1.57671 7.659457,8.08471 10.449286,10.98047 1.791877,2.1643 0.912444,4.4507 0.191995,5.23504 -1.486404,1.61825 -5.839363,3.81386 -9.65731,6.38061 a 3.2512258,3.2512258 0 0 0 -0.0656,0.048 c -2.83887,2.01105 -5.969666,2.68007 -9.350119,2.61432 z M 37.171623,114.02915 C 16.647661,113.96187 0.03193971,97.19371 0.03193971,76.651074 c 0,-11.774306 5.98015309,-22.544242 15.05234729,-29.899901 0.06131,-0.04971 0.0768,-0.0912 0.0768,-0.0912 -3.909013,-5.137449 -0.07621,-0.03926 -3.855884,-5.187044 -8.2527738,6.234031 -16.4397821,19.124817 -17.6154727,30.69508 l -0.063998,1.262362 -0.534384,0.380789 c -5.0709953,5.355994 -12.2368013,8.695738 -20.1817933,8.695738 -15.336985,0 -27.789565,-12.45258 -27.789565,-27.789564 0,-14.378986 10.944664,-26.220971 24.94965,-27.643969 l 2.446327,-0.124797 -1.689549,1.396758 c -4.970995,4.967995 -8.050958,11.831824 -8.050958,19.413817 v 0.0592 h 6.572602 c 0,-0.02 0.0016,-0.0392 0.0016,-0.0592 0,-10.08699 7.164508,-18.510787 16.679499,-20.461785 l 3.582292,-0.415988 c 17.1533938,-0.629048 31.100365,3.652108 40.993968,6.039819 4.553201,1.172397 10.02545,3.166598 14.265171,5.793426 4.233477,2.622954 6.951025,5.712006 7.377378,8.858933 v 0.0064 c 2.053338,16.201269 1.176428,32.365475 0.798376,49.107324 h 0.0032 c -0.510741,5.869568 -2.282144,10.099588 -4.854254,12.868418 -2.628422,2.82944 -6.157035,4.36572 -11.023669,4.46866 z"
       transform="matrix(-0.32298741,0,0,-0.32298741,98.205356,111.97113)" /></g></svg>
