<?xml version="1.0" encoding="UTF-8" standalone="no"?>
<!-- Created with Inkscape (http://www.inkscape.org/) -->

<svg
   width="112mm"
   height="112mm"
   viewBox="0 0 112 112"
   version="1.1"
   id="svg5"
   xml:space="preserve"
   inkscape:version="1.2.2 (b0a8486, 2022-12-01)"
   sodipodi:docname="slurm-team-edition.svg"
   xmlns:inkscape="http://www.inkscape.org/namespaces/inkscape"
   xmlns:sodipodi="http://sodipodi.sourceforge.net/DTD/sodipodi-0.dtd"
   xmlns:xlink="http://www.w3.org/1999/xlink"
   xmlns="http://www.w3.org/2000/svg"
   xmlns:svg="http://www.w3.org/2000/svg"><sodipodi:namedview
     id="namedview7"
     pagecolor="#505050"
     bordercolor="#eeeeee"
     borderopacity="1"
     inkscape:showpageshadow="0"
     inkscape:pageopacity="0"
     inkscape:pagecheckerboard="0"
     inkscape:deskcolor="#505050"
     inkscape:document-units="mm"
     showgrid="false"
     inkscape:zoom="1.6819304"
     inkscape:cx="159.638"
     inkscape:cy="211.95883"
     inkscape:window-width="1850"
     inkscape:window-height="1136"
     inkscape:window-x="70"
     inkscape:window-y="27"
     inkscape:window-maximized="1"
     inkscape:current-layer="layer1" /><defs
     id="defs2"><linearGradient
       inkscape:collect="always"
       id="linearGradient2399"><stop
         style="stop-color:#b38fd6;stop-opacity:1;"
         offset="0"
         id="stop2395" /><stop
         style="stop-color:#d68fd6;stop-opacity:1;"
         offset="1"
         id="stop2397" /></linearGradient><inkscape:perspective
       sodipodi:type="inkscape:persp3d"
       inkscape:vp_x="-92.196255 : 53.229531 : 0"
       inkscape:vp_y="-1.8369702e-13 : 999.99994 : 0"
       inkscape:vp_z="88.90833 : 51.331248 : 0"
       inkscape:persp3d-origin="196.12213 : -130.54902 : 1"
       id="perspective414" /><inkscape:perspective
       sodipodi:type="inkscape:persp3d"
       inkscape:vp_x="-91.115077 : 53.274115 : 0"
       inkscape:vp_y="-1.8154283e-13 : 1000.8375 : 0"
       inkscape:vp_z="87.865708 : 51.374239 : 0"
       inkscape:persp3d-origin="38.684672 : -28.469671 : 1"
       id="perspective414-2" /><inkscape:perspective
       sodipodi:type="inkscape:persp3d"
       inkscape:vp_x="-90.360947 : 53.273603 : 0"
       inkscape:vp_y="-1.8004026e-13 : 1000.8279 : 0"
       inkscape:vp_z="87.138471 : 51.373745 : 0"
       inkscape:persp3d-origin="96.119222 : -28.468954 : 1"
       id="perspective414-2-2" /><clipPath
       clipPathUnits="userSpaceOnUse"
       id="clipPath5438"><path
         id="path5440"
         style="color:#000000;fill:#9c9c9c;fill-rule:evenodd;stroke:none;stroke-width:4.99999;stroke-linecap:butt;stroke-linejoin:round;-inkscape-stroke:none"
         d="m 67.586572,13.645679 a 2.50025,2.50025 0 0 0 -0.989087,0.32091 L 41.310658,28.566216 a 2.50025,2.50025 0 0 0 -5.29e-4,5.29e-4 2.50025,2.50025 0 0 0 -0.0083,0.0057 2.50025,2.50025 0 0 0 -0.433049,0.32246 2.50025,2.50025 0 0 0 -0.13539,0.150382 2.50025,2.50025 0 0 0 -0.224793,0.267681 2.50025,2.50025 0 0 0 -0.118856,0.20619 2.50025,2.50025 0 0 0 -0.139528,0.277503 2.50025,2.50025 0 0 0 -0.07803,0.240295 2.50025,2.50025 0 0 0 -0.06976,0.29352 2.50025,2.50025 0 0 0 -0.02635,0.253733 2.50025,2.50025 0 0 0 -0.01551,0.148312 V 59.39072 a 2.50025,2.50025 0 0 0 1.250054,2.164209 l 25.058417,14.466816 a 2.50025,2.50025 0 0 0 5.29e-4,0 2.50025,2.50025 0 0 0 0.476975,0.212389 2.50025,2.50025 0 0 0 5.29e-4,0 2.50025,2.50025 0 0 0 0.510564,0.108522 2.50025,2.50025 0 0 0 5.29e-4,0 2.50025,2.50025 0 0 0 1.51102,-0.320911 L 94.156051,61.422111 a 2.50025,2.50025 0 0 0 1.250053,-2.16421 V 30.599684 a 2.50025,2.50025 0 0 0 0,-5.29e-4 2.50025,2.50025 0 0 0 0,-5.29e-4 2.50025,2.50025 0 0 0 -5.29e-4,-0.0072 2.50025,2.50025 0 0 0 -0.01603,-0.271817 2.50025,2.50025 0 0 0 -0.01085,-0.0708 2.50025,2.50025 0 0 0 -0.03617,-0.204121 2.50025,2.50025 0 0 0 -0.02429,-0.08992 2.50025,2.50025 0 0 0 -0.05168,-0.173114 2.50025,2.50025 0 0 0 -0.04134,-0.107487 2.50025,2.50025 0 0 0 -0.06408,-0.148828 2.50025,2.50025 0 0 0 -0.05168,-0.101285 2.50025,2.50025 0 0 0 -0.08372,-0.145212 2.50025,2.50025 0 0 0 -0.06149,-0.09509 2.50025,2.50025 0 0 0 -0.09663,-0.130225 2.50025,2.50025 0 0 0 -0.07545,-0.09302 2.50025,2.50025 0 0 0 -0.110069,-0.116271 2.50025,2.50025 0 0 0 -0.08268,-0.08268 2.50025,2.50025 0 0 0 -0.146245,-0.122473 2.50025,2.50025 0 0 0 -0.06356,-0.05168 2.50025,2.50025 0 0 0 -0.23358,-0.153992 L 69.097591,13.966589 a 2.50025,2.50025 0 0 0 -1.511019,-0.32091 z M 67.847538,19.019511 87.905746,30.599166 76.34056,37.27731 67.619129,42.312664 47.562471,30.732492 Z m 22.55883,15.91014 V 57.814559 L 70.119235,69.527539 V 46.643147 l 10.106877,-5.835819 z m -45.34607,0.133324 20.058724,11.580172 V 69.527539 L 45.060298,57.947367 Z m -6.41201,28.35951 a 2.50025,2.50025 0 0 0 -0.997873,0.327628 L 12.658142,78.363175 a 2.50025,2.50025 0 0 0 -0.09973,0.07493 2.50025,2.50025 0 0 0 -0.33228,0.250116 2.50025,2.50025 0 0 0 -0.139009,0.153477 2.50025,2.50025 0 0 0 -0.221176,0.265618 2.50025,2.50025 0 0 0 -0.113688,0.196887 2.50025,2.50025 0 0 0 -0.144694,0.289388 2.50025,2.50025 0 0 0 -0.07235,0.221692 2.50025,2.50025 0 0 0 -0.07441,0.315227 2.50025,2.50025 0 0 0 -0.02377,0.228925 2.50025,2.50025 0 0 0 -0.01705,0.162264 v 28.681451 a 2.50025,2.50025 0 0 0 1.238167,2.15801 l 24.763864,14.4787 a 2.50025,2.50025 0 0 0 2.522326,0.002 2.50025,2.50025 0 0 0 0.0031,-0.002 l 24.990206,-14.61151 a 2.50025,2.50025 0 0 0 1.238168,-2.158 V 80.388891 a 2.50025,2.50025 0 0 0 -0.0011,-0.01035 2.50025,2.50025 0 0 0 -0.05013,-0.472324 2.50025,2.50025 0 0 0 -0.0098,-0.05684 2.50025,2.50025 0 0 0 -0.144177,-0.441317 2.50025,2.50025 0 0 0 -0.0279,-0.06511 2.50025,2.50025 0 0 0 -0.22841,-0.394809 2.50025,2.50025 0 0 0 -0.04702,-0.06356 2.50025,2.50025 0 0 0 -0.30851,-0.341067 2.50025,2.50025 0 0 0 -0.04393,-0.03772 2.50025,2.50025 0 0 0 -0.377237,-0.275434 L 40.173751,63.750103 a 2.50025,2.50025 0 0 0 -1.525487,-0.327629 z m 57.431636,0.0011 a 2.50025,2.50025 0 0 0 -1.003557,0.33228 L 70.321805,78.349247 a 2.50025,2.50025 0 0 0 -0.0016,5.3e-4 2.50025,2.50025 0 0 0 -0.0016,0.0011 l -0.0279,0.01654 a 2.50025,2.50025 0 0 0 -0.09974,0.07545 2.50025,2.50025 0 0 0 -0.328144,0.248566 2.50025,2.50025 0 0 0 -0.130742,0.144177 2.50025,2.50025 0 0 0 -0.228928,0.276468 2.50025,2.50025 0 0 0 -0.105936,0.182417 2.50025,2.50025 0 0 0 -0.151411,0.305408 2.50025,2.50025 0 0 0 -0.06821,0.209807 2.50025,2.50025 0 0 0 -0.07597,0.322977 2.50025,2.50025 0 0 0 -0.02376,0.223242 2.50025,2.50025 0 0 0 -0.01757,0.165881 v 28.68145 a 2.50025,2.50025 0 0 0 1.230418,2.15233 l 24.558707,14.48025 a 2.50025,2.50025 0 0 0 0.02066,0.0108 2.50025,2.50025 0 0 0 0.02946,0.0155 2.50025,2.50025 0 0 0 0.451136,0.19741 2.50025,2.50025 0 0 0 0.02946,0.008 2.50025,2.50025 0 0 0 0.481624,0.10025 2.50025,2.50025 0 0 0 0.03669,0.002 2.50025,2.50025 0 0 0 0.489376,-0.004 2.50025,2.50025 0 0 0 0.03307,-0.005 2.50025,2.50025 0 0 0 0.478526,-0.10542 2.50025,2.50025 0 0 0 0.03462,-0.0129 2.50025,2.50025 0 0 0 0.444418,-0.20257 2.50025,2.50025 0 0 0 0.01035,-0.005 l 24.785051,-14.61306 a 2.50025,2.50025 0 0 0 1.23041,-2.15439 V 80.388891 a 2.50025,2.50025 0 0 0 -1.23816,-2.159042 l -0.0217,-0.01291 a 2.50025,2.50025 0 0 0 -0.002,-5.29e-4 L 97.615229,63.755799 A 2.50025,2.50025 0 0 0 96.079924,63.42352 Z M 38.912353,68.80461 58.722514,80.388915 38.684978,92.103964 18.873267,80.521723 Z M 96.345539,68.81081 115.98258,80.386838 96.119199,92.097752 84.463062,85.226334 76.483186,80.521196 Z M 61.175593,84.746777 V 107.63478 L 41.1856,119.32244 V 96.434436 Z m 57.228547,0.01707 V 107.64049 L 98.619302,119.30488 V 96.429796 Z M 16.41967,84.879082 36.185388,96.435481 V 119.324 L 16.41967,107.76758 Z m 57.640925,0.01757 19.558497,11.532114 V 119.30488 L 74.060595,107.77329 Z" /></clipPath><linearGradient
       inkscape:collect="always"
       xlink:href="#linearGradient2399"
       id="linearGradient2401"
       x1="124.32454"
       y1="67.80867"
       x2="12.380351"
       y2="67.775887"
       gradientUnits="userSpaceOnUse"
       gradientTransform="matrix(0,0.97048923,-0.97048923,0,134.06721,1.4949107)" /></defs><g
     inkscape:label="Layer 1"
     inkscape:groupmode="layer"
     id="layer1"
     transform="translate(-12.32454,-11.781772)"><g
       sodipodi:type="inkscape:box3d"
       id="g1431"
       style="fill:#8359fb;stroke:none;stroke-width:1;stroke-linecap:round;stroke-linejoin:round;stroke-dasharray:none;stroke-opacity:1"
       inkscape:perspectiveID="#perspective414"
       inkscape:corner0="0.73305718 : -0.009254321 : 0 : 1"
       inkscape:corner7="0.44403297 : -0.041513453 : 0.29983938 : 1"><path
         id="rect2318"
         style="fill:url(#linearGradient2401);fill-opacity:1;stroke:none;stroke-width:0.970489;stroke-linecap:round;stroke-linejoin:round;stroke-dasharray:none;stroke-opacity:1"
         d="M 68.291441,13.509909 42.904289,28.166661 68.279403,42.816894 93.666555,28.160142 Z M 94.152021,29.000178 68.76487,43.656931 V 74.404766 L 94.152021,59.747512 Z m -51.732194,0.006 V 59.754031 L 67.794439,74.404264 V 43.656931 Z M 41.658026,61.158774 16.270875,75.815525 41.64599,90.46576 67.033141,75.809006 Z m 53.344062,0 L 69.614936,75.815525 94.990051,90.46576 120.37721,75.809006 Z M 67.518607,76.649044 42.131455,91.305796 v 30.747844 l 25.387152,-14.65726 z m 53.344063,0 -25.387153,14.656752 v 30.747844 l 25.387153,-14.65726 z m -105.076256,0.006 V 107.4029 l 25.374611,14.65023 V 91.305796 Z m 53.344061,0 V 107.4029 l 25.374612,14.65023 V 91.305796 Z" /></g></g></svg>
